<svg width="32" height="26" viewBox="0 0 32 26" fill="none" xmlns="http://www.w3.org/2000/svg">
<path fill-rule="evenodd" clip-rule="evenodd" d="M32.0002 21.7471L29.3758 26L23.3223 22.362C24.4712 21.1437 25.4101 19.7184 26.0924 18.1954L32.0061 21.7471H32.0002ZM8.03667 13.5L6.90527 12.4712L9.01061 10.2241L12.0374 13L16.3531 7.80457L18.7558 9.7586L12.3523 17.4597L8.03667 13.5ZM1.87812 6.05745C5.56975 0.109171 13.4487 -1.78163 19.5023 1.83906C25.5442 5.47699 27.4513 13.2643 23.783 19.2069C20.0913 25.1724 12.189 27.0574 6.15878 23.4253C0.105199 19.7931 -1.81352 12.023 1.87812 6.05745ZM4.25756 7.49998C7.15021 2.83331 13.3263 1.36204 18.0618 4.18963C22.7799 7.04021 24.2904 13.1264 21.4035 17.7873C18.5167 22.4483 12.3348 23.9253 7.60511 21.0804C2.86372 18.2299 1.37657 12.1437 4.25756 7.49998Z" fill="black"/>
</svg>
