<svg width="31" height="27" viewBox="0 0 31 27" fill="none" xmlns="http://www.w3.org/2000/svg">
<path d="M29.0645 0H1.93554C0.871864 0 0 0.867832 0 1.92659V21.2133C0 22.2721 0.871864 23.1399 1.93554 23.1399H19.3728V17.8357C19.0624 17.1032 18.8881 16.284 18.8881 15.4231C18.8881 11.9691 21.7164 9.1539 25.1829 9.1539C27.7985 9.1539 30.0444 10.7542 30.9965 13.0105V1.93006C30.9965 0.871304 30.1246 0.00347133 29.061 0.00347133L29.0645 0ZM10.6542 17.3566H5.8101C5.27652 17.3566 4.84059 16.9227 4.84059 16.3916C4.84059 15.8605 5.27652 15.4266 5.8101 15.4266H10.6542C11.1878 15.4266 11.6237 15.8605 11.6237 16.3916C11.6237 16.9227 11.1878 17.3566 10.6542 17.3566ZM14.5322 12.535H5.81359C5.28001 12.535 4.84408 12.1011 4.84408 11.5699C4.84408 11.0388 5.28001 10.6049 5.81359 10.6049H14.5322C15.0658 10.6049 15.5017 11.0388 15.5017 11.5699C15.5017 12.1011 15.0658 12.535 14.5322 12.535ZM18.4068 7.71329H5.81359C5.28001 7.71329 4.84408 7.27938 4.84408 6.74826C4.84408 6.21715 5.28001 5.78324 5.81359 5.78324H18.4068C18.9404 5.78324 19.3763 6.21715 19.3763 6.74826C19.3763 7.27938 18.9404 7.71329 18.4068 7.71329ZM25.1864 21.6958C26.6511 21.6958 27.9938 21.1925 29.061 20.3559V26.035C29.061 26.3925 28.8692 26.7188 28.5483 26.8854C28.4018 26.9618 28.2484 27 28.0949 27C27.9101 27 27.7183 26.941 27.5614 26.8368L25.1899 25.2643L22.8184 26.8368C22.529 27.0382 22.1384 27.0486 21.8315 26.8854C21.5106 26.7223 21.3188 26.3925 21.3188 26.035V20.3559C22.3825 21.1959 23.7321 21.6958 25.1934 21.6958H25.1864ZM29.5457 15.4266C29.5457 17.8218 27.5928 19.7657 25.1864 19.7657C22.7801 19.7657 20.8271 17.8218 20.8271 15.4266C20.8271 13.0314 22.7801 11.0874 25.1864 11.0874C27.5928 11.0874 29.5457 13.0314 29.5457 15.4266Z" fill="black"/>
</svg>
