<svg width="173" height="86" viewBox="0 0 173 86" fill="none" xmlns="http://www.w3.org/2000/svg">
<path d="M87.5113 85.3695C88.8006 81.5166 88.4892 77.1111 107.976 76.6155C128.054 76.1114 141.538 70.6973 145.097 63.1385C154.46 62.0271 157.774 60.0285 166.136 53.4617C174.498 46.895 174.018 36.0931 167.656 30.7838C161.294 25.4744 145.639 21.9373 146.581 21.8707C147.523 21.8042 137.782 8.54437 121.704 3.70559C105.626 -1.13319 74.9838 5.91025 74.9838 5.91025C74.9838 5.91025 70.2612 1.36718 56.0018 0.161573C41.7424 -1.04404 24.2301 4.62166 14.7442 13.0322C5.2584 21.4428 5.45655 32.947 9.80975 36.6174C11.958 40.2272 14.5159 40.9286 12.1138 42.43C9.71163 43.9314 4.56134 46.7257 1.70967 50.9055C-1.14201 55.0852 -1.10794 64.6037 7.15305 69.9952C15.414 75.3866 17.0769 76.817 23.1744 78.3833C29.2719 79.9496 39.8207 77.8722 42.6074 77.4588C45.4481 77.4743 45.0564 76.6198 48.7201 79.2404C52.3603 81.8626 52.4692 83.4028 61.2985 83.4444C70.1042 83.4876 74.798 82.9394 80.4254 82.5415C86.0068 82.1635 87.5113 85.3695 87.5113 85.3695Z" fill="#FFF8E5"/>
</svg>
