<svg width="24" height="39" viewBox="0 0 24 39" fill="none" xmlns="http://www.w3.org/2000/svg">
<path d="M19.5491 9.22233C18.5994 8.17427 17.4673 7.22232 16.2927 6.33996C15.0946 5.45926 13.8553 4.66471 12.6442 3.93473C10.2208 2.45822 7.77146 1.28316 5.61971 0.636338C4.26487 0.216135 2.90171 0.0129035 1.90695 1.00202e-05C1.64678 0.00175955 1.4337 0.000180285 1.22179 0.0151625C1.00989 0.0301447 0.84624 0.0583591 0.706137 0.0849095C0.425935 0.13801 0.26463 0.19935 0.248111 0.300388C0.230421 0.384863 0.355174 0.475913 0.598823 0.575201C0.720063 0.616564 0.866019 0.672822 1.03552 0.727418C1.20502 0.782014 1.39807 0.834945 1.61583 0.902773C2.461 1.14263 3.59456 1.44531 4.85171 1.82249C7.70617 2.70259 10.385 4.11111 12.7802 5.52303C15.1753 6.93496 17.149 8.40997 18.3834 9.8041L18.8199 10.2892C18.9729 10.4449 19.0812 10.6369 19.2106 10.7942C19.3412 10.9681 19.4706 11.1254 19.6024 11.3158L19.9472 11.8407C20.0778 12.0146 20.1613 12.1918 20.2695 12.3839L20.5683 12.9287L20.8212 13.4934C20.9059 13.6871 20.9894 13.8643 21.0506 14.0597C21.6068 15.5684 21.9088 17.1616 21.8552 18.7466C21.8016 20.3317 21.489 21.935 20.8657 23.4938C20.2412 25.036 19.3306 26.5485 18.1764 27.9617C17.5663 28.7039 16.8184 29.5058 15.9069 30.3359C14.9943 31.1495 13.9639 31.9713 12.7899 32.7701C11.6394 33.5671 10.3442 34.3245 8.9736 35.0206C8.63096 35.1947 8.28714 35.3521 7.9445 35.5261C7.60186 35.7002 7.23333 35.8427 6.88952 36.0002C6.17835 36.3168 5.46484 36.6003 4.74898 36.8506C3.50095 37.2718 2.36128 37.5521 1.5195 37.6948C0.678893 37.8541 0.0655439 37.8809 0.0077885 38.068C-0.0334478 38.1542 0.0913052 38.2452 0.336127 38.3611C0.458538 38.419 0.626867 38.457 0.819914 38.51C1.01179 38.5463 1.25076 38.5794 1.5121 38.5942C2.03595 38.6404 2.67285 38.612 3.35215 38.514C4.03145 38.4161 4.75199 38.232 5.44547 37.9998C6.00002 37.8108 6.57577 37.587 7.14918 37.3301C7.44825 37.2091 7.7226 37.0732 8.02049 36.9356C8.18179 36.8743 8.31838 36.798 8.47852 36.7201C8.63865 36.6422 8.77524 36.566 8.93537 36.4881C10.1705 35.8848 11.421 35.1638 12.6645 34.3435C15.1526 32.7195 17.5396 30.6699 19.3452 28.4283C20.5418 26.9455 21.4948 25.3635 22.1606 23.7351C22.8251 22.0902 23.1566 20.419 23.2031 18.7345C23.2497 17.0501 22.9431 15.3907 22.3562 13.7843C22.2951 13.5889 22.1857 13.3802 22.101 13.1865L21.8458 12.5887L21.5211 12.0124C21.4128 11.8203 21.3046 11.6282 21.1964 11.4362L20.8257 10.8798C20.7175 10.6877 20.5633 10.5155 20.4316 10.3251C20.301 10.1512 20.1692 9.9608 20.015 9.7886L19.5491 9.22233Z" fill="#B36A0B"/>
</svg>
