<svg width="100" height="26" viewBox="0 0 100 26" fill="none" xmlns="http://www.w3.org/2000/svg">
<path d="M35.981 18.9669C34.5248 18.7869 33.0556 18.7577 31.6159 18.8095C30.1761 18.8614 28.7421 18.996 27.3777 19.1092C24.6264 19.3536 21.9352 19.444 19.3759 19.3919C16.8154 19.3233 14.4092 19.0939 12.2774 18.7287C10.1456 18.3634 8.26454 17.8639 6.73434 17.3063C4.79099 16.5948 3.17143 15.7772 2.06036 15.1234C0.949299 14.4695 0.25606 14.0358 0.0500108 14.1336C-0.132499 14.2298 0.174523 14.8905 1.13482 15.7547C2.07158 16.6206 3.72991 17.6519 5.84393 18.4345C8.2734 19.328 10.9632 19.8869 13.6825 20.1939C16.4018 20.501 19.1529 20.5895 21.7982 20.519C23.1214 20.492 24.4176 20.417 25.6879 20.3105C26.9582 20.2041 28.1802 20.0844 29.3316 19.9697C30.5077 19.8699 31.6143 19.7917 32.6785 19.783C33.7427 19.7743 34.7163 19.822 35.6239 19.941C37.1754 20.1309 38.6303 20.6272 39.7684 21.3291C40.9077 22.0475 41.6855 23.0078 41.7134 24.0711L43.0391 23.7444C42.3707 22.9927 42.0697 22.0818 42.1465 21.1609C42.2469 20.2384 42.6534 19.2941 43.3271 18.4476C44.0008 17.601 44.8923 16.8222 45.9367 16.1991C46.0722 16.1063 46.2099 16.0466 46.3465 15.9704L46.7574 15.7582C47.0553 15.6207 47.3297 15.4847 47.6523 15.3621C47.9514 15.2411 48.2504 15.12 48.5742 15.0139C48.7355 14.9526 48.898 14.9078 49.0593 14.8465L49.5455 14.6956C50.843 14.3042 52.2216 14.057 53.6038 13.8594C54.9859 13.6618 56.421 13.5437 57.8338 13.4438C60.6839 13.2589 63.5859 13.137 66.4819 12.9322C68.4597 12.7924 70.6742 12.6525 73.0452 12.385C75.4175 12.134 77.9487 11.7886 80.5376 11.256C83.1277 10.74 85.7497 10.0053 88.2599 9.0289C89.5033 8.54152 90.7184 7.98955 91.8841 7.40778C93.0239 6.79456 94.1378 6.14988 95.1293 5.44727C96.8874 4.20776 98.1405 2.85415 98.8001 1.80882C98.9709 1.54707 99.0958 1.30522 99.1995 1.09815C99.302 0.874517 99.3597 0.687336 99.4198 0.533283C99.5165 0.226841 99.5024 0.028099 99.3824 0.00329822C99.2623 -0.0215025 99.0574 0.0928505 98.7913 0.344697C98.6582 0.47062 98.5027 0.614769 98.3261 0.793708C98.1259 0.974311 97.9269 1.17148 97.7054 1.38687C96.7975 2.26666 95.5303 3.42153 93.8841 4.5699C92.5994 5.47633 90.9862 6.42264 89.0835 7.28954C88.1451 7.73872 87.0854 8.14654 86.001 8.53946C85.7231 8.62568 85.4465 8.72847 85.1698 8.83126C85.0308 8.87437 84.8931 8.93404 84.7542 8.97716C84.6152 9.02027 84.4763 9.06338 84.3138 9.10816C84.0124 9.19605 83.7345 9.28228 83.4331 9.37017C83.1317 9.45805 82.8292 9.52938 82.5278 9.61727C81.3198 9.9357 80.04 10.2426 78.7556 10.4832C78.1021 10.6126 77.4476 10.7255 76.7694 10.84C76.0901 10.938 75.4355 11.0508 74.7327 11.1504C73.3741 11.3464 71.9884 11.4943 70.6016 11.6256C69.2147 11.757 67.8032 11.8734 66.3893 11.9567C63.5156 12.1432 60.6372 12.2635 57.7411 12.4683C56.2813 12.5715 54.8227 12.6913 53.3711 12.9104C51.9183 13.113 50.4478 13.4001 49.0338 13.8163L48.5004 13.9705C48.3156 14.0335 48.1543 14.0949 47.9918 14.1396C47.6445 14.2474 47.2995 14.3883 46.9781 14.5276C46.6319 14.6519 46.3128 14.8243 45.9914 14.9635L45.5121 15.2138C45.352 15.2917 45.1919 15.3696 45.0576 15.4789C43.8542 16.1965 42.8509 17.0664 42.0912 18.0356C41.3551 19.0031 40.8626 20.0699 40.7515 21.1763C40.664 22.2811 41.0273 23.4039 41.8745 24.3427L43.1831 25.7815L43.1061 24.0226C43.0816 23.3419 42.8228 22.6944 42.4028 22.1082C41.9827 21.5221 41.4037 21.0304 40.7352 20.6116C39.4194 19.7392 37.7479 19.1916 35.981 18.9669Z" fill="#B36A0B"/>
</svg>
