<svg width="65" height="40" viewBox="0 0 65 40" fill="none" xmlns="http://www.w3.org/2000/svg">
<path d="M4.20551 17.7895C2.03235 20.856 0.660768 24.2154 0.194585 27.3277C-0.0261519 28.8913 -0.0632 30.3753 0.10463 31.7449C0.272453 33.1146 0.595726 34.3401 0.977929 35.395C1.47539 36.7414 2.24251 37.8856 2.93444 38.6356C3.11331 38.8227 3.26747 38.9949 3.41928 39.134C3.57109 39.273 3.72173 39.3955 3.87003 39.4849C4.14308 39.6654 4.33729 39.7348 4.42913 39.6951C4.52097 39.6553 4.55636 39.4863 4.4917 39.2412C4.45879 39.1104 4.40116 38.9647 4.34236 38.8024C4.28356 38.6401 4.19888 38.4463 4.11302 38.236C3.74721 37.413 3.21787 36.2853 2.72627 35.0217C1.62194 32.1204 1.41832 28.9057 2.05986 25.9308C2.65432 22.9593 4.00091 20.2508 5.46382 18.1833C6.83958 16.2218 8.58023 14.4009 10.6163 12.7423C12.6524 11.0836 14.9591 9.57232 17.446 8.26464C22.442 5.63106 28.1511 3.71273 34.1001 2.50981C37.226 1.87269 41.2111 1.34126 45.4586 1.17411C47.5836 1.1071 49.7626 1.13613 51.9075 1.35068C54.0523 1.56522 56.1606 1.93215 58.071 2.51281C59.739 3.01075 61.1303 3.61147 62.1566 4.07154C62.6687 4.28501 63.0853 4.48858 63.4008 4.59944C63.7162 4.71029 63.9328 4.76156 64.0459 4.68699C64.1365 4.63064 64.1013 4.46669 63.9201 4.24647C63.7377 4.00969 63.4788 3.6951 63.0069 3.37892C62.1536 2.69023 60.7024 1.91065 58.8649 1.35812C57.4383 0.92635 55.7326 0.564242 53.822 0.316489C51.9127 0.0852977 49.7984 -0.0315386 47.6005 0.0073433C43.1799 0.0702095 38.4178 0.656575 33.7968 1.56586C27.7076 2.79533 21.8125 4.7601 16.6575 7.48814C14.08 8.85216 11.7049 10.4016 9.57938 12.1332C7.45264 13.8481 5.64722 15.7568 4.20551 17.7895Z" fill="#B36A0B"/>
</svg>
