<svg width="40" height="36" viewBox="0 0 40 36" fill="none" xmlns="http://www.w3.org/2000/svg">
<path d="M15.5967 32.0246C17.1139 32.733 18.7653 33.3319 20.4545 33.7951C22.1436 34.2582 23.8941 34.5839 25.5869 34.7638C28.9748 35.1568 32.1381 35.0497 34.5385 34.8633C37.6206 34.6121 39.9836 33.8957 39.8896 33.5695C39.7932 33.2101 37.3433 33.3667 34.4024 33.6079C31.0154 33.8973 27.4896 33.8969 24.3348 33.4542C22.7574 33.2328 21.2671 32.9054 19.9146 32.5183C18.5856 32.1296 17.3933 31.6646 16.3893 31.1863C14.4801 30.2893 12.7465 29.1968 11.1953 28.0081C10.3962 27.4155 9.66539 26.7847 8.93339 26.1374C8.2014 25.4901 7.51649 24.8394 6.82924 24.1556C6.49739 23.8129 6.16672 23.4867 5.83487 23.144C5.52657 22.7996 5.19588 22.4734 4.90995 22.1108C4.33925 21.4022 3.81566 20.6901 3.38272 19.9218C2.5192 18.4182 1.90882 16.8135 1.62808 15.1855C1.58931 14.9719 1.57292 14.74 1.53298 14.5098C1.52478 14.3939 1.49304 14.2796 1.48485 14.1637L1.45909 13.7993C1.44152 13.5509 1.42512 13.319 1.42993 13.0524C1.43591 12.8023 1.44072 12.5356 1.4467 12.2855C1.5142 11.2321 1.67237 10.1224 2.04128 8.98107C2.11555 8.69285 2.23809 8.41787 2.33591 8.12799C2.39718 7.9905 2.43374 7.83811 2.49501 7.70062C2.55628 7.56313 2.61637 7.40908 2.67764 7.27159C2.92037 6.6885 3.21253 6.1352 3.5765 5.59348C4.27972 4.49513 5.17718 3.46627 6.29941 2.60462C7.26502 1.87055 8.26705 1.31701 9.04417 0.929164C9.43391 0.751805 9.75301 0.579437 10.0062 0.478315C10.2334 0.345733 10.3677 0.236374 10.3383 0.155228C10.3089 0.0740824 10.1394 0.0194854 9.83093 0.00800214C9.52132 -0.0200432 9.09867 0.0264834 8.56181 0.13102C7.51164 0.338428 6.1317 0.902051 5.01064 1.78027C4.1357 2.45799 3.27364 3.31789 2.56339 4.31687C2.1959 4.80891 1.87902 5.3473 1.58685 5.9006C1.52558 6.03809 1.44077 6.17724 1.38067 6.3313C1.3194 6.46879 1.25932 6.62284 1.19805 6.76033C1.07668 7.05188 0.955315 7.34342 0.858663 7.64986C0.0113206 10.0567 -0.223969 12.7532 0.220041 15.3517C0.530187 17.0608 1.14642 18.7483 2.06288 20.3314C2.5217 21.1312 3.07237 21.8912 3.66895 22.6313C3.97843 22.9923 4.31145 23.3516 4.64447 23.7109C4.97632 24.0536 5.30817 24.3963 5.66357 24.7374C6.35081 25.4212 7.06043 26.0867 7.79359 26.7506C8.52676 27.4145 9.30585 28.0585 10.1061 28.6677C11.782 29.9474 13.5899 31.0846 15.5967 32.0246Z" fill="#B36A0B"/>
</svg>
