<svg width="51" height="16" viewBox="0 0 51 16" fill="none" xmlns="http://www.w3.org/2000/svg">
<path d="M18.8858 0.253783C16.124 0.0162722 13.2799 -0.0489582 10.6829 0.0347855C8.08584 0.118529 5.73481 0.334685 3.90998 0.630153C1.59187 0.977141 -0.133044 1.68167 0.00810057 2.00459C0.15042 2.34407 2.0105 2.21256 4.21088 1.87389C6.73856 1.4788 9.41805 1.22277 11.9197 1.12913C14.4214 1.03548 16.7688 1.10254 18.6476 1.23603C20.4322 1.37617 22.1768 1.61901 23.9002 1.89665C25.6247 2.19084 27.308 2.57117 28.9724 3.01942C30.6145 3.4859 32.213 4.00539 33.7691 4.59446C35.3028 5.20175 36.7929 5.86206 38.2171 6.59362C39.7154 7.36986 41.4456 8.41268 43.1439 9.67414C44.841 10.919 46.4815 12.3677 47.8865 13.8329C49.1127 15.1111 50.2931 16.0763 50.7535 15.894C51.1915 15.7298 50.6728 14.4183 49.3949 13.0772C48.3981 12.0324 46.9353 10.7543 45.1888 9.47962C43.4187 8.2066 41.3166 6.92376 39.1062 5.78173C37.6326 5.02039 36.0942 4.34684 34.5123 3.72631C32.9067 3.10745 31.26 2.57473 29.5697 2.09502C27.8569 1.63354 26.1254 1.23997 24.329 0.934208C22.5327 0.628445 20.7175 0.390595 18.8858 0.253783Z" fill="#B36A0B"/>
</svg>
