<svg width="72" height="72" viewBox="0 0 72 72" fill="none" xmlns="http://www.w3.org/2000/svg">
<g clip-path="url(#clip0_209_123)">
<path d="M36 72C26.4528 72 17.2937 68.2044 10.5485 61.4515C3.7956 54.7063 0 45.5472 0 36C0 26.4528 3.7956 17.2937 10.5485 10.5485C17.2937 3.7956 26.4528 0 36 0C45.5472 0 54.7063 3.7956 61.4515 10.5485C68.2044 17.3014 72 26.4528 72 36C71.9845 45.5472 68.1889 54.6986 61.4437 61.4437C54.6986 68.1966 45.5472 71.9922 36 72ZM36 4.85123C27.7413 4.85123 19.8163 8.13454 13.9715 13.9715C8.13454 19.8163 4.85123 27.7335 4.85123 35.9922C4.85123 44.251 8.13454 52.1759 13.9715 58.0207C19.8163 63.8577 27.7335 67.141 36 67.141C44.2665 67.141 52.1837 63.8577 58.0285 58.0207C63.8655 52.1759 67.1488 44.2587 67.1488 35.9922C67.1332 27.7335 63.8499 19.8163 58.0129 13.9793C52.1759 8.1423 44.2587 4.85899 36 4.84347V4.85123ZM27.0737 47.348C26.0957 47.348 25.2109 46.7581 24.8305 45.8499C24.458 44.9418 24.6675 43.9017 25.3583 43.2031L33.5705 34.9909V17.7671C33.5705 16.4243 34.6572 15.3454 35.9922 15.3454C37.3273 15.3454 38.414 16.4321 38.414 17.7671V36C38.414 36.6442 38.1578 37.2574 37.7076 37.7154L28.7814 46.6417C28.3234 47.0996 27.7102 47.348 27.066 47.348H27.0737Z" fill="#81C776"/>
</g>
<defs>
<clipPath id="clip0_209_123">
<rect width="72" height="72" fill="white"/>
</clipPath>
</defs>
</svg>
