<svg width="72" height="72" viewBox="129 52 72 72" fill="none" xmlns="http://www.w3.org/2000/svg">
<path d="M165 124C155.453 124 146.294 120.204 139.549 113.451C132.796 106.706 129 97.5472 129 88C129 78.4528 132.796 69.2937 139.549 62.5485C146.294 55.7956 155.453 52 165 52C174.547 52 183.706 55.7956 190.451 62.5485C197.204 69.3014 201 78.4528 201 88C200.984 97.5472 197.189 106.699 190.444 113.444C183.699 120.197 174.547 123.992 165 124ZM165 56.8512C156.741 56.8512 148.816 60.1345 142.972 65.9715C137.135 71.8163 133.851 79.7335 133.851 87.9922C133.851 96.251 137.135 104.176 142.972 110.021C148.816 115.858 156.734 119.141 165 119.141C173.266 119.141 181.184 115.858 187.028 110.021C192.865 104.176 196.149 96.2587 196.149 87.9922C196.133 79.7335 192.85 71.8163 187.013 65.9793C181.176 60.1423 173.259 56.859 165 56.8435V56.8512Z" fill="#81C776"/>
<path d="M164.983 103C163.314 103 162.48 102.166 162.48 100.497V95.9144H157.388C155.72 95.9144 154.885 95.278 154.885 94.0051C154.885 92.7323 155.72 92.0959 157.388 92.0959H162.48V90.3139L161.843 89.2107H157.388C156.596 89.2107 155.974 89.041 155.522 88.7016C155.097 88.3339 154.885 87.853 154.885 87.259C154.885 85.9579 155.536 85.3073 156.837 85.3073H159.552L154.249 76.3124C153.711 75.4639 153.556 74.7567 153.782 74.191C154.008 73.597 154.532 73.3 155.352 73.3H156.2C157.53 73.3 158.534 73.8799 159.213 75.0396L164.983 85.0527L170.711 75.0396C171.107 74.389 171.56 73.9364 172.069 73.6819C172.606 73.4273 173.243 73.3 173.978 73.3C174.968 73.3 175.619 73.597 175.93 74.191C176.269 74.7567 176.184 75.4639 175.675 76.3124L170.372 85.3073H172.493C174.19 85.3073 175.039 85.9579 175.039 87.259C175.039 88.5601 174.19 89.2107 172.493 89.2107H168.08L167.444 90.3139V92.0959H172.493C174.19 92.0959 175.039 92.7323 175.039 94.0051C175.039 95.278 174.19 95.9144 172.493 95.9144H167.444V100.497C167.444 102.166 166.624 103 164.983 103Z" fill="#81C776"/>
</svg>