<svg width="296" height="80" viewBox="0 0 296 80" fill="none" xmlns="http://www.w3.org/2000/svg">
<path d="M23.1977 78.3303C18.6047 78.3303 14.57 77.3338 11.107 75.3407C7.64394 73.3476 4.92536 70.5626 2.95787 66.979C0.990389 63.3955 0 59.2509 0 54.5388C0 50.8431 0.963801 47.4575 2.89805 44.3821C4.8323 41.3067 7.14542 38.9309 9.84407 37.2678C7.58412 35.6047 5.68975 33.4994 4.15432 30.9652C2.62553 28.4309 1.85449 25.3885 1.85449 21.838C1.85449 17.4955 2.76511 13.6875 4.59301 10.4339C6.41426 7.17373 8.93344 4.6197 12.1439 2.77182C15.3544 0.92394 19.0367 0 23.1977 0C27.3587 0 31.1474 0.92394 34.3579 2.77182C37.5683 4.6197 40.0808 7.17373 41.9087 10.4339C43.73 13.6941 44.6473 17.4955 44.6473 21.838C44.6473 25.3885 43.8629 28.4309 42.2943 30.9652C40.7256 33.4994 38.8445 35.5981 36.6577 37.2678C39.4294 38.9375 41.7625 41.3067 43.6635 44.3821C45.5579 47.4641 46.5084 50.8431 46.5084 54.5388C46.5084 59.3169 45.5047 63.4813 43.4974 67.0318C41.49 70.5824 38.7382 73.3542 35.2352 75.3407C31.7323 77.3338 27.7242 78.3303 23.1977 78.3303ZM23.1977 65.9429C26.6275 65.9429 29.1799 65.0058 30.8549 63.1183C32.53 61.2374 33.3741 58.3006 33.3741 54.3211C33.3741 50.6979 32.5366 47.8403 30.8549 45.7416C29.1733 43.643 26.6209 42.5936 23.1977 42.5936C19.7745 42.5936 17.3085 43.643 15.5936 45.7416C13.8787 47.8403 13.0213 50.7045 13.0213 54.3211C13.0213 58.3072 13.8787 61.2374 15.5936 63.1183C17.3085 64.9992 19.841 65.9429 23.1977 65.9429ZM23.1977 32.3709C28.7412 32.3709 31.513 28.9325 31.513 22.0492C31.513 18.7164 30.7087 16.2745 29.1068 14.717C27.4982 13.1595 25.5308 12.3808 23.1977 12.3808C20.8646 12.3808 18.8905 13.1595 17.2886 14.717C15.68 16.2745 14.8824 18.723 14.8824 22.0492C14.8824 28.9325 17.6542 32.3709 23.1977 32.3709ZM74.7312 78.3303C68.7489 78.3303 64.0828 76.8454 60.7261 73.8756C57.3694 70.9058 55.0364 66.5237 53.7203 60.7292C52.4042 54.9348 51.7528 47.7677 51.7528 39.2212C51.7528 30.6748 52.4109 23.3955 53.7203 17.6011C55.0364 11.8066 57.3694 7.42452 60.7261 4.45471C64.0828 1.4849 68.7489 0 74.7312 0C80.7134 0 85.3463 1.4849 88.6298 4.45471C91.9134 7.42452 94.2265 11.8066 95.5759 17.6011C96.9252 23.3955 97.6032 30.6022 97.6032 39.2212C97.6032 47.8403 96.9252 54.9348 95.5759 60.7292C94.2265 66.5237 91.9134 70.9058 88.6298 73.8756C85.3463 76.8454 80.7134 78.3303 74.7312 78.3303ZM74.7312 65.9429C77.2105 65.9429 79.1646 65.1642 80.5871 63.6067C82.0095 62.0492 83.0331 59.3367 83.6513 55.4562C84.2695 51.5822 84.5819 46.1706 84.5819 39.2146C84.5819 32.2587 84.2695 26.8273 83.6513 22.9203C83.0331 19.0068 82.0095 16.2745 80.5871 14.717C79.1646 13.1595 77.2105 12.3808 74.7312 12.3808C72.2519 12.3808 70.2777 13.1595 68.8221 14.717C67.3597 16.2745 66.3228 19.0068 65.7047 22.9203C65.0865 26.8339 64.7741 32.2653 64.7741 39.2146C64.7741 46.164 65.0865 51.5822 65.7047 55.4562C66.3228 59.3301 67.3597 62.0492 68.8221 63.6067C70.2777 65.1642 72.2519 65.9429 74.7312 65.9429ZM126.816 78.3303C120.834 78.3303 116.168 76.8454 112.811 73.8756C109.455 70.9058 107.122 66.5237 105.805 60.7292C104.489 54.9348 103.838 47.7677 103.838 39.2212C103.838 30.6748 104.496 23.3955 105.805 17.6011C107.115 11.8066 109.455 7.42452 112.811 4.45471C116.168 1.4849 120.834 0 126.816 0C132.799 0 137.431 1.4849 140.715 4.45471C143.999 7.42452 146.312 11.8066 147.661 17.6011C149.01 23.3955 149.682 30.6022 149.682 39.2212C149.682 47.8403 149.004 54.9348 147.661 60.7292C146.312 66.5237 143.999 70.9058 140.715 73.8756C137.431 76.8454 132.799 78.3303 126.816 78.3303ZM126.816 65.9429C129.296 65.9429 131.25 65.1642 132.672 63.6067C134.095 62.0492 135.112 59.3367 135.736 55.4562C136.355 51.5822 136.667 46.1706 136.667 39.2146C136.667 32.2587 136.355 26.8273 135.736 22.9203C135.118 19.0068 134.095 16.2745 132.672 14.717C131.25 13.1595 129.296 12.3808 126.816 12.3808C124.337 12.3808 122.363 13.1595 120.907 14.717C119.445 16.2745 118.408 19.0068 117.79 22.9203C117.172 26.8339 116.859 32.2653 116.859 39.2146C116.859 46.164 117.172 51.5822 117.79 55.4562C118.408 59.3301 119.452 62.0492 120.907 63.6067C122.363 65.1642 124.337 65.9429 126.816 65.9429ZM161.314 78.3633C160.217 78.3633 159.313 77.9937 158.608 77.2612C157.904 76.5286 157.552 75.5651 157.552 74.3706V46.1508C157.552 43.2866 157.784 40.9569 158.25 39.1487C158.715 37.3404 159.512 35.9479 160.642 34.9579C161.779 33.968 163.321 33.2816 165.275 32.8857C167.229 32.4963 169.702 32.2983 172.687 32.2983H184.325C187.31 32.2983 189.789 32.4963 191.763 32.8857C193.737 33.275 195.293 33.968 196.423 34.9579C197.553 35.9479 198.364 37.347 198.842 39.1487C199.321 40.9569 199.56 43.2866 199.56 46.1508V67.1638C199.56 69.962 199.228 72.1465 198.556 73.7304C197.885 75.3143 196.835 76.4494 195.392 77.1292C193.95 77.8089 192.082 78.2049 189.782 78.3039C188.407 78.3369 187.303 78.0531 186.459 77.4592C185.615 76.8652 185.13 75.9479 184.99 74.7269C184.85 73.5324 185.136 72.5227 185.841 71.6845C186.545 70.853 187.496 70.3976 188.699 70.3316C190.141 70.2326 191.052 69.896 191.431 69.3351C191.81 68.7741 191.996 67.7248 191.996 66.1937V58.0168H165.069V74.3772C165.069 75.5717 164.717 76.5352 164.012 77.2678C163.308 78.0003 162.404 78.3699 161.307 78.3699L161.314 78.3633ZM165.069 51.1203H174.8V39.3598H172.687C170.56 39.3598 168.944 39.5116 167.848 39.8218C166.751 40.1254 166.013 40.7589 165.634 41.7159C165.255 42.6728 165.069 44.1511 165.069 46.164V51.1203ZM182.318 51.1203H191.996V46.164C191.996 44.1511 191.803 42.6728 191.431 41.7159C191.052 40.7589 190.314 40.132 189.217 39.8218C188.121 39.5182 186.486 39.3598 184.325 39.3598H182.318V51.1203ZM212.249 79.637C211.697 79.967 211.146 80.0726 210.601 79.9538C210.056 79.835 209.597 79.4984 209.218 78.9441C207.603 76.522 206.333 74.0472 205.416 71.5063C204.499 68.9655 204.033 66.2201 204.033 63.2701C204.033 60.3201 204.492 57.5747 205.416 55.0206C206.333 52.4666 207.603 49.9917 209.218 47.5961C209.597 47.0483 210.056 46.7118 210.601 46.593C211.146 46.4742 211.691 46.5732 212.249 46.9031C212.761 47.1869 213.06 47.6159 213.166 48.1703C213.266 48.7312 213.166 49.2394 212.847 49.708C211.87 51.2259 211.039 52.6712 210.355 54.0505C209.67 55.4298 209.145 56.8487 208.793 58.3204C208.44 59.7921 208.261 61.442 208.261 63.2701C208.261 65.0982 208.44 66.7547 208.793 68.2396C209.145 69.7245 209.67 71.15 210.355 72.5095C211.039 73.8756 211.87 75.3143 212.847 76.8322C213.16 77.2942 213.259 77.8089 213.166 78.3699C213.067 78.9309 212.761 79.3532 212.249 79.637ZM224.645 77.1952C224.027 77.1952 223.496 76.9906 223.05 76.5814C222.605 76.1722 222.386 75.6311 222.386 74.9513V66.9988C222.12 67.4806 221.867 67.936 221.621 68.3518C221.375 68.7675 221.169 69.1305 220.99 69.4407C220.704 69.9224 220.245 70.2458 219.607 70.4108C218.976 70.5758 218.371 70.4504 217.799 70.028C217.314 69.6783 217.035 69.2229 216.968 68.6553C216.902 68.0944 217.021 67.606 217.334 67.1902C217.666 66.7283 218.065 66.1409 218.53 65.4281C218.996 64.7154 219.474 63.9564 219.959 63.1513C220.445 62.3461 220.897 61.5674 221.309 60.8084C221.721 60.0495 222.053 59.3961 222.319 58.8418H219.627C219.029 58.8418 218.517 58.6306 218.098 58.2148C217.68 57.799 217.467 57.2909 217.467 56.6969C217.467 56.103 217.68 55.6014 218.098 55.1988C218.517 54.7896 219.029 54.5916 219.627 54.5916H222.386V52.7108C222.053 52.7768 221.721 52.8428 221.388 52.9088C221.056 52.9748 220.737 53.0275 220.425 53.0737C219.674 53.2255 219.055 53.1529 218.577 52.8626C218.098 52.5656 217.799 52.097 217.66 51.4635C217.547 50.8497 217.66 50.3217 218.012 49.8928C218.357 49.4638 218.883 49.1932 219.594 49.081C220.372 48.949 221.249 48.7708 222.233 48.553C223.216 48.3353 224.193 48.0911 225.157 47.8271C226.121 47.5631 226.932 47.3123 227.597 47.0681C228.261 46.8503 228.853 46.8306 229.371 47.0153C229.89 47.2001 230.262 47.5961 230.481 48.1901C230.701 48.7642 230.688 49.3054 230.435 49.8202C230.182 50.3349 229.75 50.7045 229.152 50.9223C228.82 51.0345 228.467 51.1467 228.089 51.2721C227.71 51.3909 227.311 51.5096 226.892 51.6218V54.5916H228.753C229.285 54.5916 229.75 54.7566 230.149 55.0866C230.548 55.4166 230.794 55.8324 230.88 56.3405C231.06 55.4166 231.419 54.6972 231.957 54.1825C232.502 53.6677 233.293 53.2981 234.337 53.0737C234.004 52.856 233.725 52.592 233.506 52.2818C233.373 52.0838 233.193 51.8132 232.974 51.4701C232.755 51.1269 232.542 50.7969 232.343 50.4669C232.143 50.1369 231.99 49.906 231.877 49.774C231.545 49.2658 231.459 48.7312 231.611 48.1571C231.764 47.5829 232.097 47.1473 232.608 46.8372C233.187 46.461 233.785 46.3224 234.403 46.4082C235.021 46.494 235.533 46.8174 235.932 47.3651C236.065 47.5433 236.244 47.8007 236.464 48.1373C236.683 48.4804 236.909 48.817 237.128 49.147C237.348 49.477 237.507 49.7212 237.594 49.873C237.906 50.3547 238.012 50.8761 237.926 51.4239C237.84 51.9716 237.58 52.4336 237.162 52.8098H239.189C239.388 52.328 239.634 51.734 239.933 51.0279C240.232 50.3217 240.518 49.6486 240.777 48.9952C241.043 48.3485 241.229 47.8799 241.342 47.5961C241.588 47.0021 242.014 46.593 242.619 46.3752C243.23 46.1574 243.842 46.1772 244.467 46.4412C245.065 46.7052 245.477 47.0945 245.716 47.6159C245.949 48.1307 245.955 48.685 245.729 49.279C245.577 49.6552 245.311 50.2293 244.932 51.0081C244.553 51.7868 244.214 52.5128 243.902 53.1727C245.145 53.4829 245.989 54.0505 246.447 54.8886C246.899 55.7268 247.132 56.9147 247.132 58.4524V59.0464C247.132 60.6765 246.879 61.9106 246.368 62.7553C245.856 63.6001 244.885 64.1676 243.443 64.4514V71.315C243.443 71.7967 243.516 72.1069 243.662 72.2389C243.808 72.3709 244.088 72.4369 244.513 72.4369C244.759 72.4369 244.945 72.3577 245.078 72.1861C245.211 72.0145 245.344 71.6647 245.477 71.117C245.656 70.457 246.009 70.0016 246.54 69.7443C247.072 69.4935 247.65 69.4539 248.269 69.6321C249.531 70.028 250.03 70.8992 249.764 72.2389C249.432 73.9746 248.86 75.1889 248.056 75.8687C247.245 76.5484 246.009 76.8916 244.347 76.8916C243.037 76.8916 242.001 76.7662 241.223 76.5088C240.445 76.258 239.893 75.8093 239.561 75.1691C239.229 74.529 239.063 73.638 239.063 72.4963V64.7088H238.066C237.913 67.3948 237.334 69.7509 236.337 71.7835C235.34 73.8162 233.812 75.4529 231.751 76.687C231.153 77.0368 230.528 77.1754 229.87 77.0962C229.219 77.017 228.693 76.6738 228.288 76.0535C227.976 75.5717 227.889 75.0173 228.022 74.4036C228.155 73.7898 228.521 73.3146 229.119 72.9846C230.694 72.1069 231.837 70.9388 232.555 69.4869C233.273 68.035 233.712 66.3059 233.871 64.3062C232.655 63.9762 231.824 63.3955 231.379 62.5771C230.933 61.7522 230.714 60.5709 230.714 59.0266V57.9838C230.714 57.8386 230.727 57.6934 230.747 57.5417C230.594 57.9178 230.335 58.2214 229.97 58.4656C229.604 58.7098 229.199 58.8286 228.753 58.8286H226.892V59.9835C227.092 60.1815 227.377 60.4587 227.756 60.8084C228.135 61.1582 228.534 61.5344 228.953 61.9304C229.371 62.3263 229.77 62.6827 230.136 62.9995C230.501 63.3163 230.774 63.5539 230.947 63.7123C231.412 64.062 231.651 64.524 231.665 65.0982C231.678 65.6723 231.492 66.1871 231.113 66.6491C230.734 67.111 230.229 67.3552 229.584 67.375C228.939 67.3948 228.421 67.1902 228.022 66.7481C227.736 66.4643 227.357 66.0551 226.892 65.5271V74.9315C226.892 75.6113 226.673 76.159 226.241 76.5616C225.809 76.9708 225.27 77.1754 224.632 77.1754L224.645 77.1952ZM237.773 60.7292H240.1C241.117 60.7292 241.781 60.6171 242.08 60.3993C242.379 60.1815 242.526 59.7261 242.526 59.0464V58.4524C242.526 57.7924 242.373 57.3503 242.08 57.1127C241.781 56.8817 241.123 56.7695 240.1 56.7695H237.773C236.756 56.7695 236.098 56.8817 235.799 57.1127C235.5 57.3437 235.354 57.7924 235.354 58.4524V59.0464C235.354 59.7261 235.5 60.1815 235.799 60.3993C236.098 60.6171 236.756 60.7292 237.773 60.7292ZM270.509 76.4692C267.405 76.4692 264.899 76.2514 262.985 75.8291C261.07 75.4001 259.568 74.6675 258.478 73.6314C258.212 73.8294 257.88 74.0736 257.481 74.3574C257.082 74.6411 256.71 74.9117 256.371 75.1691C256.026 75.4199 255.766 75.6113 255.593 75.7499C255.042 76.1458 254.41 76.291 253.699 76.1788C252.988 76.0667 252.456 75.7169 252.104 75.1229C251.752 74.5488 251.645 73.9416 251.785 73.2882C251.931 72.6415 252.303 72.1597 252.895 71.8561C253.227 71.6779 253.673 71.447 254.224 71.1434C254.776 70.8464 255.274 70.589 255.72 70.3712V63.8376C255.72 63.3295 255.647 62.9929 255.507 62.8147C255.361 62.6365 255.035 62.5507 254.523 62.5507H253.759C253.094 62.5507 252.569 62.3395 252.177 61.9238C251.791 61.508 251.592 60.9998 251.592 60.4059C251.592 59.8119 251.785 59.3037 252.177 58.888C252.562 58.4722 253.094 58.261 253.759 58.261H256.551C259.03 58.261 260.273 59.4951 260.273 61.9568V69.4473C260.718 70.0412 261.31 70.5296 262.048 70.9124C262.792 71.2952 263.829 71.5921 265.172 71.7901C266.514 71.9881 268.289 72.0871 270.502 72.0871C272.297 72.0871 274.012 72.0541 275.654 71.9881C277.296 71.9221 278.725 71.8429 279.941 71.7571C280.785 71.6911 281.47 71.8693 282.002 72.2983C282.533 72.7273 282.799 73.2948 282.799 74.001C282.799 74.7071 282.58 75.3209 282.135 75.7829C281.689 76.2448 280.991 76.4758 280.041 76.4758H270.502L270.509 76.4692ZM257.249 53.9977C256.983 53.7139 256.637 53.3905 256.218 53.0275C255.8 52.6646 255.374 52.3016 254.955 51.9386C254.537 51.5756 254.158 51.2721 253.825 51.0279C253.36 50.6517 253.121 50.1567 253.108 49.543C253.094 48.9292 253.28 48.4012 253.659 47.9591C254.058 47.4971 254.563 47.2133 255.175 47.1011C255.786 46.9889 256.351 47.1473 256.883 47.5631C257.461 47.9789 258.099 48.4738 258.797 49.048C259.495 49.6222 260.054 50.0907 260.479 50.4669C260.991 50.9289 261.25 51.4767 261.257 52.1168C261.263 52.757 261.031 53.3245 260.539 53.8327C260.093 54.3145 259.555 54.5784 258.91 54.6246C258.266 54.6708 257.714 54.4597 257.249 53.9977ZM278.718 70.0676C277.256 68.8137 275.94 67.2958 274.763 65.5139C273.587 63.7321 272.636 61.7654 271.905 59.6073C271.087 61.607 270.104 63.5209 268.967 65.3489C267.824 67.177 266.581 68.7147 265.231 69.9686C264.746 70.4504 264.121 70.6682 263.37 70.6088C262.619 70.556 262.021 70.2524 261.576 69.6981C261.223 69.2163 261.09 68.6883 261.19 68.1142C261.29 67.54 261.562 67.045 262.001 66.6293C263.217 65.5271 264.341 64.1874 265.358 62.6035C266.375 61.0196 267.272 59.3565 268.036 57.6011C268.801 55.8522 269.419 54.1891 269.884 52.6052C269.598 52.4534 269.186 52.3742 268.655 52.3742H265.763C265.052 52.3742 264.487 52.1564 264.068 51.7142C263.65 51.2721 263.437 50.7375 263.437 50.0973C263.437 49.4572 263.65 48.9226 264.068 48.4804C264.487 48.0383 265.052 47.8205 265.763 47.8205H269.186C270.935 47.8205 272.204 48.1241 272.995 48.7312C273.779 49.3384 274.265 50.4867 274.437 52.1762C274.637 54.0043 275.082 55.7862 275.767 57.5351C276.451 59.2839 277.329 60.914 278.392 62.4319C279.456 63.9498 280.652 65.283 281.982 66.4247C282.467 66.8405 282.753 67.3684 282.832 67.9954C282.912 68.6223 282.753 69.1701 282.354 69.6321C281.909 70.16 281.337 70.4768 280.626 70.589C279.914 70.7012 279.283 70.523 278.731 70.061L278.718 70.0676ZM287.791 79.637C287.306 79.3532 287.013 78.9309 286.914 78.3699C286.814 77.8089 286.914 77.3008 287.193 76.8322C288.19 75.3143 289.027 73.8756 289.699 72.5095C290.377 71.1434 290.889 69.7245 291.247 68.2396C291.606 66.7547 291.779 65.0982 291.779 63.2701C291.779 61.442 291.6 59.7921 291.247 58.3204C290.895 56.8487 290.377 55.4232 289.699 54.0505C289.021 52.6778 288.19 51.2259 287.193 49.708C286.907 49.246 286.807 48.7378 286.914 48.1703C287.013 47.6093 287.306 47.1869 287.791 46.9031C288.369 46.5732 288.928 46.4676 289.473 46.593C290.018 46.7118 290.463 47.0483 290.822 47.5961C292.464 49.9917 293.733 52.4666 294.644 55.0206C295.555 57.5747 296.007 60.3201 296.007 63.2701C296.007 66.2201 295.555 68.9589 294.644 71.5063C293.733 74.0472 292.464 76.5286 290.822 78.9441C290.47 79.4918 290.018 79.8284 289.473 79.9538C288.928 80.0726 288.369 79.967 287.791 79.637Z" fill="url(#paint0_linear_173_1307)"/>
<defs>
<linearGradient id="paint0_linear_173_1307" x1="49.3333" y1="40" x2="49.3333" y2="-1.41686e-06" gradientUnits="userSpaceOnUse">
<stop stop-color="#FF5100"/>
<stop offset="1" stop-color="#FF9100"/>
</linearGradient>
</defs>
</svg>
