<svg width="224" height="160" viewBox="0 0 224 160" fill="none" xmlns="http://www.w3.org/2000/svg">
<path d="M108.828 159.885C107.301 152.784 107.88 144.594 82.5267 144.442C56.4046 144.297 39.0616 134.777 34.7251 120.887C22.578 119.192 18.3425 115.613 7.71354 103.753C-2.91541 91.8922 -1.86534 71.8221 6.62738 61.716C15.1201 51.61 35.6422 44.4276 34.4186 44.3411C33.1949 44.2546 46.399 19.2573 67.5236 9.64203C88.6481 0.0267726 128.268 11.8945 128.268 11.8945C128.268 11.8945 134.596 3.27535 153.209 0.475841C171.823 -2.32367 194.401 7.50369 206.421 22.7423C218.44 37.981 217.729 59.3437 211.917 66.3283C208.977 73.1138 205.619 74.5164 208.688 77.2088C211.756 79.9013 218.352 84.8854 221.9 92.5318C225.449 100.178 225.03 117.848 214.061 128.182C203.093 138.515 200.871 141.236 192.871 144.383C184.87 147.531 171.217 144.09 167.605 143.433C163.906 143.573 164.449 141.972 159.576 146.98C154.733 151.991 154.531 154.855 143.033 155.28C131.566 155.707 125.476 154.874 118.165 154.357C110.913 153.875 108.828 159.885 108.828 159.885Z" fill="#A8D1E3"/>
</svg>
