<svg width="53" height="66" viewBox="0 0 53 66" fill="none" xmlns="http://www.w3.org/2000/svg">
<path d="M31.695 59.682C29.6916 61.0566 27.5179 62.2335 25.3003 63.1598C23.0827 64.086 20.7908 64.7594 18.5797 65.1601C14.153 66.023 10.0386 65.9487 6.92047 65.6973C2.9174 65.3524 -0.131046 64.1157 0.00426449 63.5064C0.143929 62.8355 3.32758 63.0297 7.1471 63.3616C11.5457 63.7654 16.1364 63.6258 20.2615 62.6797C22.324 62.2067 24.2773 61.5402 26.0535 60.7685C27.7991 59.9945 29.3699 59.0844 30.696 58.157C33.2171 56.4168 35.5174 54.3205 37.5838 52.053C38.6476 50.9214 39.624 49.7218 40.6026 48.4913C41.5811 47.2608 42.4985 46.0261 43.4203 44.7297C43.8658 44.0805 44.3092 43.462 44.7548 42.8127C45.1698 42.1613 45.6132 41.5428 45.9998 40.8585C46.7707 39.5205 47.4805 38.1782 48.0744 36.7349C49.258 33.9099 50.1159 30.9071 50.5456 27.8741C50.6044 27.476 50.6349 27.0449 50.696 26.616C50.7112 26.4005 50.7571 26.1871 50.7723 25.9716L50.8202 25.2942C50.8528 24.8323 50.8833 24.4013 50.8876 23.9065C50.8896 23.4425 50.8939 22.9477 50.8959 22.4837C50.8495 20.5309 50.6873 18.4772 50.2519 16.3732C50.1666 15.8411 50.0178 15.3355 49.9019 14.8012C49.8275 14.5484 49.7859 14.267 49.7116 14.0142C49.6372 13.7614 49.565 13.4778 49.4907 13.225C49.1976 12.1522 48.839 11.1366 48.3864 10.1454C47.5141 8.13423 46.3861 6.25975 44.9589 4.70449C43.7305 3.37989 42.4477 2.39183 41.4511 1.70249C40.9506 1.38862 40.542 1.08122 40.2163 0.903484C39.9257 0.666327 39.7552 0.468615 39.7967 0.316829C39.8381 0.165042 40.061 0.0570205 40.463 0.0235576C40.8672 -0.0406949 41.4157 0.0290256 42.1106 0.20193C43.4698 0.545576 45.2443 1.53746 46.6693 3.12352C47.7818 4.34709 48.8704 5.90935 49.7558 7.73574C50.2149 8.63462 50.6063 9.62155 50.9649 10.6371C51.0393 10.8899 51.1442 11.1449 51.2164 11.4285C51.2907 11.6813 51.3629 11.9649 51.4373 12.2177C51.5838 12.7541 51.7304 13.2905 51.8441 13.8555C52.8526 18.2899 53.0528 23.286 52.3723 28.127C51.9012 31.3118 51.0324 34.4685 49.7768 37.4432C49.1479 38.9459 48.401 40.3784 47.5951 41.7758C47.1779 42.458 46.7302 43.1381 46.2824 43.8181C45.8368 44.4674 45.3913 45.1166 44.9151 45.7637C43.9933 47.0601 43.0432 48.3235 42.0625 49.5847C41.0817 50.8459 40.042 52.0721 38.976 53.2345C36.7435 55.6759 34.3449 57.858 31.695 59.682Z" fill="black"/>
</svg>
