<svg width="129" height="46" viewBox="0 0 129 46" fill="none" xmlns="http://www.w3.org/2000/svg">
<path d="M81.9429 32.7122C83.846 32.3207 85.76 32.2085 87.6326 32.2481C89.5052 32.2876 91.3669 32.4812 93.139 32.6374C96.7116 32.9828 100.212 33.0446 103.546 32.8472C106.883 32.6189 110.025 32.0984 112.815 31.3364C115.605 30.5744 118.074 29.5731 120.088 28.4778C122.646 27.0805 124.787 25.499 126.26 24.2416C127.732 22.9842 128.652 22.1518 128.916 22.3253C129.15 22.4965 128.724 23.7351 127.44 25.3771C126.186 27.0213 123.986 29.0009 121.203 30.537C118.005 32.2913 114.48 33.4346 110.928 34.1117C107.375 34.7888 103.789 35.0614 100.348 35.0347C98.6262 35.0367 96.9416 34.9485 95.2918 34.8009C93.6421 34.6534 92.0557 34.4793 90.5611 34.3118C89.0337 34.1728 87.5959 34.0712 86.2106 34.097C84.8253 34.1228 83.5559 34.2497 82.3695 34.5062C80.3419 34.9198 78.428 35.8985 76.9185 37.2461C75.4069 38.6245 74.3563 40.4378 74.2782 42.4127L72.565 41.8584C73.4648 40.4367 73.8927 38.7341 73.8288 37.0277C73.7344 35.3191 73.2423 33.5824 72.3985 32.0374C71.5547 30.4925 70.4246 29.082 69.0893 27.9664C68.9166 27.7995 68.7396 27.6942 68.5648 27.558L68.0381 27.1804C67.6556 26.9368 67.3038 26.6953 66.8886 26.4803C66.504 26.2674 66.1193 26.0546 65.7019 25.8703C65.4943 25.7628 65.2845 25.6861 65.0769 25.5786L64.4498 25.3176C62.7759 24.6423 60.9906 24.2376 59.1988 23.9252C57.407 23.6129 55.5431 23.4502 53.7076 23.3204C50.0039 23.0895 46.2304 22.9774 42.4677 22.7114C39.898 22.5297 37.0203 22.3572 33.9437 21.954C30.8648 21.5816 27.5828 21.0401 24.2329 20.1535C20.8808 19.2976 17.4959 18.0371 14.266 16.3235C12.6663 15.4677 11.1059 14.491 9.61108 13.457C8.15119 12.3636 6.72624 11.2107 5.46296 9.94555C3.22271 7.71394 1.64447 5.25062 0.82676 3.33618C0.614685 2.85704 0.461616 2.41301 0.334784 2.03272C0.210129 1.62163 0.1423 1.27645 0.0701188 0.992856C-0.0436523 0.427825 -0.01753 0.0583527 0.139779 0.00758727C0.297088 -0.0431782 0.559348 0.161023 0.895963 0.618034C1.06427 0.84654 1.26099 1.108 1.48395 1.4332C1.7375 1.76056 1.98887 2.11871 2.26866 2.50982C3.41623 4.1072 5.02059 6.20103 7.11877 8.26788C8.75579 9.89986 10.8189 11.5929 13.2622 13.1272C14.4663 13.924 15.83 14.6393 17.2264 15.326C17.5848 15.4751 17.941 15.655 18.2972 15.8349C18.4764 15.9095 18.6534 16.0148 18.8326 16.0894C19.0118 16.1639 19.191 16.2385 19.4008 16.3152C19.7898 16.4665 20.1481 16.6156 20.5371 16.7669C20.9261 16.9181 21.3172 17.0386 21.7062 17.1899C23.2665 17.7334 24.9207 18.2526 26.5836 18.6487C27.4293 18.8632 28.2771 19.0469 29.1555 19.2328C30.0361 19.3879 30.884 19.5716 31.7952 19.7289C33.5564 20.0391 35.3547 20.259 37.1553 20.4482C38.9558 20.6374 40.7891 20.798 42.6267 20.8969C46.361 21.13 50.104 21.2399 53.8667 21.506C55.7633 21.6401 57.6578 21.805 59.5392 22.1546C61.4228 22.4734 63.326 22.9484 65.1507 23.6653L65.8391 23.9306C66.0773 24.0402 66.2849 24.1477 66.4947 24.2245C66.9427 24.4109 67.3863 24.6588 67.7993 24.9046C68.2451 25.1218 68.6538 25.4292 69.0668 25.675L69.6809 26.1207C69.8864 26.259 70.0918 26.3973 70.2623 26.595C71.8009 27.8797 73.073 29.4549 74.024 31.224C74.9443 32.991 75.5435 34.9519 75.6446 37.0013C75.7151 39.0486 75.1978 41.1471 74.0576 42.9232L72.2972 45.6455L72.4668 42.3775C72.5255 41.1129 72.8879 39.9008 73.4579 38.7962C74.0279 37.6916 74.8011 36.756 75.688 35.9523C77.4356 34.2811 79.6334 33.1988 81.9429 32.7122Z" fill="black"/>
</svg>
