<svg width="32" height="26" viewBox="0 0 32 26" fill="none" xmlns="http://www.w3.org/2000/svg">
<path fill-rule="evenodd" clip-rule="evenodd" d="M32.0004 21.7472L29.376 26L23.3224 22.3621C24.4713 21.1437 25.4103 19.7184 26.0926 18.1954L32.0062 21.7472H32.0004ZM8.03684 13.5L6.90544 12.4713L9.01078 10.2242L12.0376 13L16.3532 7.80463L18.756 9.75866L12.3525 17.4598L8.03684 13.5ZM1.87828 6.05751C5.56992 0.109232 13.4489 -1.78157 19.5025 1.83912C25.5444 5.47705 27.4515 13.2644 23.7831 19.2069C20.0915 25.1724 12.1892 27.0575 6.15895 23.4253C0.105367 19.7931 -1.81335 12.023 1.87828 6.05751ZM4.25773 7.50004C7.15038 2.83337 13.3264 1.36211 18.062 4.18969C22.7801 7.04027 24.2905 13.1265 21.4037 17.7874C18.5169 22.4483 12.335 23.9253 7.60528 21.0805C2.86389 18.2299 1.37674 12.1437 4.25773 7.50004Z" fill="#222222"/>
</svg>
