<svg width="14" height="25" viewBox="0 0 14 25" fill="none" xmlns="http://www.w3.org/2000/svg">
<path d="M2.19157 24.1179C0.730527 24.1179 0 23.7071 0 22.8875C0 21.8169 0.165478 20.765 0.498451 19.7276C0.831424 18.6922 1.39042 17.6154 2.17543 16.4991C2.96044 15.3828 4.02999 14.1649 5.38004 12.8453C6.04397 12.1855 6.67561 11.5257 7.27295 10.8639C7.87028 10.2041 8.35864 9.5484 8.73399 8.89898C9.10934 8.24956 9.30913 7.64163 9.33133 7.07105C9.35353 6.00043 9.12549 5.20369 8.65126 4.68083C8.175 4.15798 7.48282 3.89447 6.57471 3.89447C5.44461 3.89447 4.69189 4.4526 4.31654 5.56886C4.09456 6.25149 3.82819 6.77642 3.51943 7.13952C3.20866 7.50469 2.7324 7.6852 2.09067 7.6852C1.44894 7.6852 0.982775 7.47564 0.629621 7.05445C0.27445 6.63326 0.175571 6.04608 0.330958 5.29499C0.70631 3.61022 1.44894 2.30722 2.55683 1.38392C3.66473 0.460614 5.00267 0 6.57673 0C7.86019 0 9.01853 0.278029 10.0477 0.83616C11.0769 1.39429 11.8861 2.2014 12.4734 3.26164C13.0606 4.31981 13.331 5.62489 13.2866 7.17271C13.2644 8.26615 13.0263 9.25585 12.5723 10.1439C12.1182 11.0319 11.5088 11.9033 10.746 12.7561C9.98315 13.6089 9.10127 14.5259 8.10437 15.5053C7.15186 16.4846 6.30429 17.4058 5.56368 18.271C4.82104 19.1362 4.38515 19.8417 4.25196 20.3894H10.6309C12.092 20.3894 12.8225 21.0036 12.8225 22.234C12.8225 23.4643 12.092 24.1117 10.6309 24.1117H2.19359L2.19157 24.1179Z" fill="#8E4403"/>
</svg>
