<svg width="14" height="25" viewBox="0 0 14 25" fill="none" xmlns="http://www.w3.org/2000/svg">
<path d="M6.28866 24.3461C4.10464 24.3461 2.23098 23.5874 0.667681 22.0701C0.161908 21.5873 -0.0564936 21.1045 0.0124755 20.6218C0.0814446 20.116 0.368816 19.7137 0.874589 19.4148C1.40335 19.0929 1.87464 18.9895 2.28846 19.1044C2.70227 19.1964 3.16206 19.4378 3.66784 19.8286C4.03567 20.1275 4.43799 20.3689 4.8748 20.5528C5.3116 20.7367 5.78289 20.8287 6.28866 20.8287C7.57609 20.8287 8.54165 20.4493 9.18536 19.6907C9.85207 18.909 10.1854 17.8285 10.1854 16.4491C10.1854 14.9548 9.89804 13.8743 9.3233 13.2076C8.77155 12.5179 7.9899 12.173 6.97835 12.173C6.63351 12.173 6.30016 12.2305 5.9783 12.3455C5.67943 12.4374 5.40356 12.5639 5.15067 12.7248C4.69088 12.9777 4.28856 13.2306 3.94371 13.4835C3.59887 13.7134 3.16206 13.8283 2.6333 13.8283C1.36887 13.8283 0.736651 13.1501 0.736651 11.7937V2.03459C0.736651 0.678196 1.42634 0 2.80572 0H10.9786C12.335 0 13.0131 0.563249 13.0131 1.68974C13.0131 2.81624 12.335 3.37949 10.9786 3.37949H4.4265V9.72464C4.81732 9.44877 5.24263 9.23036 5.70243 9.06944C6.16222 8.88552 6.62201 8.79356 7.08181 8.79356C8.36923 8.79356 9.51871 9.08093 10.5303 9.65567C11.5648 10.2304 12.3809 11.081 12.9787 12.2075C13.5994 13.334 13.9097 14.7479 13.9097 16.4491C13.9097 18.955 13.2086 20.8976 11.8062 22.277C10.4038 23.6564 8.56464 24.3461 6.28866 24.3461Z" fill="#8E4403"/>
</svg>
