<svg width="14" height="25" viewBox="0 0 14 25" fill="none" xmlns="http://www.w3.org/2000/svg">
<path d="M2.19169 24.1179C0.730649 24.1179 0.00012207 23.7071 0.00012207 22.8875C0.00012207 21.8169 0.1656 20.765 0.498573 19.7276C0.831547 18.6922 1.39054 17.6154 2.17555 16.4991C2.96056 15.3828 4.03011 14.1649 5.38016 12.8453C6.04409 12.1855 6.67573 11.5257 7.27307 10.8639C7.8704 10.2041 8.35876 9.5484 8.73411 8.89898C9.10946 8.24956 9.30925 7.64163 9.33145 7.07105C9.35365 6.00043 9.12561 5.20369 8.65138 4.68083C8.17513 4.15798 7.48294 3.89447 6.57483 3.89447C5.44474 3.89447 4.69202 4.4526 4.31666 5.56886C4.09468 6.25149 3.82831 6.77642 3.51956 7.13952C3.20878 7.50469 2.73252 7.6852 2.09079 7.6852C1.44906 7.6852 0.982897 7.47564 0.629743 7.05445C0.274572 6.63326 0.175693 6.04608 0.33108 5.29499C0.706432 3.61022 1.44906 2.30722 2.55696 1.38392C3.66485 0.460614 5.00279 0 6.57685 0C7.86031 0 9.01865 0.278029 10.0478 0.83616C11.077 1.39429 11.8863 2.2014 12.4735 3.26164C13.0608 4.31981 13.3312 5.62489 13.2868 7.17271C13.2646 8.26615 13.0264 9.25585 12.5724 10.1439C12.1183 11.0319 11.5089 11.9033 10.7461 12.7561C9.98327 13.6089 9.10139 14.5259 8.10449 15.5053C7.15199 16.4846 6.30441 17.4058 5.5638 18.271C4.82117 19.1362 4.38527 19.8417 4.25209 20.3894H10.6311C12.0921 20.3894 12.8226 21.0036 12.8226 22.234C12.8226 23.4643 12.0921 24.1117 10.6311 24.1117H2.19371L2.19169 24.1179Z" fill="#8E4403"/>
</svg>
