<svg width="14" height="25" viewBox="0 0 14 25" fill="none" xmlns="http://www.w3.org/2000/svg">
<path d="M6.2886 24.3461C4.10458 24.3461 2.23092 23.5874 0.66762 22.0701C0.161847 21.5873 -0.0565547 21.1045 0.0124145 20.6218C0.0813835 20.116 0.368754 19.7137 0.874528 19.4148C1.40329 19.0929 1.87458 18.9895 2.28839 19.1044C2.70221 19.1964 3.162 19.4378 3.66778 19.8286C4.03561 20.1275 4.43793 20.3689 4.87474 20.5528C5.31154 20.7367 5.78283 20.8287 6.2886 20.8287C7.57603 20.8287 8.54159 20.4493 9.1853 19.6907C9.852 18.909 10.1854 17.8285 10.1854 16.4491C10.1854 14.9548 9.89798 13.8743 9.32324 13.2076C8.77149 12.5179 7.98984 12.173 6.97829 12.173C6.63345 12.173 6.3001 12.2305 5.97824 12.3455C5.67937 12.4374 5.4035 12.5639 5.15061 12.7248C4.69082 12.9777 4.2885 13.2306 3.94365 13.4835C3.59881 13.7134 3.162 13.8283 2.63324 13.8283C1.36881 13.8283 0.73659 13.1501 0.73659 11.7937V2.03459C0.73659 0.678196 1.42628 0 2.80566 0H10.9785C12.3349 0 13.0131 0.563249 13.0131 1.68974C13.0131 2.81624 12.3349 3.37949 10.9785 3.37949H4.42644V9.72464C4.81726 9.44877 5.24257 9.23036 5.70236 9.06944C6.16216 8.88552 6.62195 8.79356 7.08175 8.79356C8.36917 8.79356 9.51865 9.08093 10.5302 9.65567C11.5647 10.2304 12.3809 11.081 12.9786 12.2075C13.5993 13.334 13.9097 14.7479 13.9097 16.4491C13.9097 18.955 13.2085 20.8976 11.8061 22.277C10.4038 23.6564 8.56458 24.3461 6.2886 24.3461Z" fill="#8E4403"/>
</svg>
