<svg width="29" height="70" viewBox="0 0 29 70" fill="none" xmlns="http://www.w3.org/2000/svg">
<path d="M28.3496 4.29002C28.2479 4.39051 28.1382 4.49099 28.0166 4.58737C27.899 4.68991 27.7713 4.78629 27.6357 4.87447C27.5001 4.96265 27.3566 5.03852 27.203 5.10004C27.0495 5.15951 26.8899 5.20668 26.7224 5.23949C26.3874 5.30306 26.0504 5.27435 25.7254 5.20053C25.4024 5.1308 25.0993 5.02417 24.8301 4.90318C24.2956 4.66325 23.9168 4.39051 23.9168 4.39051C23.9168 4.39051 24.1122 3.97627 24.499 3.51282C24.5968 3.39593 24.7044 3.27699 24.8261 3.16215C24.9497 3.05141 25.0833 2.94478 25.2289 2.84634C25.3744 2.74791 25.53 2.65973 25.6935 2.58591C25.857 2.51208 26.0325 2.45261 26.2179 2.42596C26.5868 2.36649 26.9498 2.3993 27.2808 2.48337C27.6138 2.57155 27.9209 2.7233 28.1761 2.873C28.6866 3.1765 29.0017 3.50461 29.0017 3.50461C29.0017 3.50461 28.7544 3.89219 28.3496 4.29208V4.29002ZM23.6835 0.0574191C23.4761 0.102534 23.1909 0.188663 22.8759 0.313754C22.2397 0.553684 21.5019 1.02329 21.0692 1.72257C20.6465 2.44441 20.6146 3.25238 20.6943 3.88194C20.7761 4.51765 20.9575 4.97085 20.9575 4.97085C20.9575 4.97085 21.0712 4.94009 21.2547 4.87447C21.4381 4.81295 21.6934 4.72067 21.9705 4.58327C22.1081 4.5156 22.2517 4.43562 22.3973 4.34539C22.5408 4.25516 22.6904 4.16288 22.832 4.05009C23.1171 3.83272 23.3804 3.54973 23.5897 3.22162C24.0105 2.5654 24.1142 1.75128 24.1202 1.11352C24.1261 0.475758 24.0225 0 24.0225 0C24.0225 0 23.8948 0.0143548 23.6855 0.0574191H23.6835ZM24.3714 7.48909C24.3714 7.48909 24.1062 7.06665 23.6496 6.6155C23.1949 6.1705 22.5448 5.71115 21.7671 5.63117C21.0014 5.5717 20.2676 5.90801 19.7631 6.28739C19.5078 6.47195 19.2985 6.65446 19.1629 6.80416C19.0253 6.94976 18.9495 7.04614 18.9495 7.04614C18.9495 7.04614 19.2805 7.41731 19.795 7.79259C20.3055 8.16171 21.0074 8.56774 21.7312 8.61696C21.821 8.62311 21.9107 8.62311 21.9985 8.61901C22.0882 8.61901 22.1739 8.61081 22.2597 8.60056C22.4312 8.58005 22.5947 8.54109 22.7502 8.48982C22.9058 8.43855 23.0513 8.37498 23.1909 8.30731C23.3325 8.24374 23.4621 8.17196 23.5818 8.09814C23.8211 7.95254 24.0165 7.79669 24.1541 7.6798C24.2936 7.56906 24.3714 7.49114 24.3714 7.49114V7.48909ZM18.5268 2.53464C18.4669 2.55515 18.3812 2.58386 18.2775 2.63102C18.0681 2.72125 17.783 2.8607 17.4699 3.04936C17.1548 3.23392 16.8298 3.49026 16.5347 3.79581C16.3871 3.94756 16.2475 4.11367 16.1239 4.29002C16.0022 4.47048 15.9005 4.6694 15.8208 4.87447C15.6593 5.28871 15.6054 5.7091 15.6174 6.10693C15.6333 6.51091 15.7151 6.88824 15.8128 7.21224C16.0122 7.86026 16.2814 8.29705 16.2814 8.29705C16.2814 8.29705 16.3971 8.24579 16.5765 8.14325C16.758 8.04277 16.9973 7.88282 17.2685 7.6962C17.5377 7.50549 17.8169 7.26146 18.0741 6.97437C18.3353 6.69342 18.5666 6.36121 18.7242 5.96748C19.0472 5.19643 19.0233 4.33719 18.9136 3.65841C18.8598 3.318 18.788 3.03501 18.7262 2.82994C18.6663 2.62692 18.6165 2.50593 18.6165 2.50593C18.6165 2.50593 18.5826 2.51619 18.5228 2.53669L18.5268 2.53464ZM20.2995 10.2821C20.2995 10.2821 19.9485 9.89043 19.3942 9.50901C19.117 9.31829 18.788 9.13168 18.4231 9.00044C18.2416 8.93482 18.0502 8.8815 17.8508 8.85074C17.6533 8.81998 17.4559 8.81588 17.2505 8.83433C17.0471 8.85484 16.8497 8.89995 16.6603 8.96353C16.4708 9.0271 16.2894 9.10912 16.1259 9.21166C15.7949 9.41262 15.5017 9.65666 15.2664 9.89864C14.8078 10.397 14.5585 10.8502 14.5585 10.8502C14.5585 10.8502 14.9753 11.1742 15.5855 11.4695C15.8906 11.6171 16.2415 11.7607 16.6124 11.8529C16.7979 11.9001 16.9873 11.935 17.1768 11.9514C17.3702 11.9719 17.5656 11.976 17.759 11.9575C18.5248 11.8734 19.1469 11.4654 19.5876 11.0634C20.0383 10.6758 20.3015 10.2842 20.3015 10.2842L20.2995 10.2821ZM13.051 6.36941C12.9493 6.43504 12.8277 6.51911 12.694 6.61755C12.6282 6.66676 12.5585 6.72008 12.4867 6.77545C12.4169 6.83492 12.3471 6.89644 12.2753 6.96411C11.9881 7.2307 11.6811 7.55266 11.4278 7.92998C11.1805 8.31346 10.9771 8.7441 10.8794 9.20551C10.704 10.1468 10.9811 11.0163 11.3121 11.652C11.6452 12.2918 12.0141 12.6937 12.0141 12.6937C12.0141 12.6937 12.1237 12.6137 12.2892 12.4702C12.4587 12.3266 12.694 12.1257 12.9313 11.8673C13.051 11.7381 13.1706 11.5945 13.2903 11.4428C13.4119 11.2931 13.5316 11.129 13.6392 10.9547C13.7469 10.7804 13.8446 10.5918 13.9264 10.3929C14.0101 10.196 14.0839 9.99092 14.1318 9.77354C14.2295 9.3388 14.2255 8.8897 14.1757 8.47341C14.1278 8.05713 14.0241 7.66339 13.9084 7.32093C13.6771 6.636 13.388 6.16845 13.388 6.16845C13.388 6.16845 13.2584 6.23817 13.053 6.37147L13.051 6.36941ZM16.5845 13.9713C16.5845 13.9713 16.1438 13.6288 15.4898 13.3376C14.8317 13.0403 13.9762 12.8229 13.1228 13.0546C12.706 13.1797 12.3411 13.4094 12.024 13.678C11.713 13.9508 11.4657 14.2768 11.2663 14.5742C11.2164 14.6501 11.1706 14.7239 11.1267 14.7936C11.0868 14.8674 11.0489 14.9392 11.015 15.0069C10.9472 15.1443 10.8894 15.2673 10.8455 15.3719C10.7558 15.5811 10.7139 15.7123 10.7139 15.7123C10.7139 15.7123 11.2124 15.9625 11.9044 16.143C12.2494 16.2332 12.6442 16.3091 13.045 16.3296C13.4478 16.3501 13.8706 16.3296 14.2614 16.2086C14.4588 16.1491 14.6343 16.065 14.8038 15.9748C14.9753 15.8846 15.1308 15.7779 15.2744 15.6631C15.418 15.5483 15.5456 15.4232 15.6632 15.294C15.7849 15.1709 15.8946 15.0438 15.9903 14.9187C16.1857 14.6726 16.3213 14.4245 16.429 14.2563C16.5307 14.0841 16.5845 13.9713 16.5845 13.9713ZM8.48653 11.1331C8.43269 11.1803 8.35492 11.2521 8.26119 11.3444C8.07375 11.5289 7.8205 11.7955 7.56127 12.1298C7.31201 12.4702 7.06075 12.8783 6.86533 13.3253C6.6759 13.7765 6.55426 14.2768 6.54429 14.7793C6.53432 15.2837 6.66393 15.7595 6.83742 16.1737C7.01489 16.588 7.2482 16.9468 7.4835 17.2421C7.96208 17.8368 8.4267 18.1772 8.4267 18.1772C8.4267 18.1772 8.52441 18.0706 8.66799 17.884C8.81954 17.7015 9.01895 17.439 9.21437 17.117C9.40381 16.793 9.61917 16.428 9.77072 16.0138C9.91828 15.5975 10.0379 15.1545 10.0499 14.6767C10.0559 14.4368 10.0359 14.201 9.99804 13.9713C9.96414 13.7457 9.9123 13.5242 9.8445 13.311C9.71289 12.8844 9.52744 12.4927 9.338 12.1564C8.96112 11.4859 8.57028 11.0573 8.57028 11.0573C8.57028 11.0573 8.53837 11.0819 8.48453 11.129L8.48653 11.1331ZM13.4458 18.5402C13.4458 18.5402 12.9194 18.2757 12.1796 18.1096C11.4338 17.9373 10.4946 17.8881 9.65905 18.3146C9.24627 18.53 8.91725 18.8519 8.64207 19.2005C8.37286 19.5512 8.18542 19.9449 8.03786 20.2997C7.96208 20.476 7.91023 20.6504 7.86836 20.8062C7.82449 20.9641 7.79258 21.1056 7.76865 21.2225C7.7188 21.4604 7.70285 21.606 7.70285 21.606C7.70285 21.606 8.27515 21.7536 9.03291 21.7885C9.41178 21.8069 9.83852 21.7967 10.2593 21.7311C10.678 21.6634 11.1187 21.5506 11.4956 21.3414C11.689 21.2389 11.8525 21.1138 12.0121 20.9846C12.1716 20.8534 12.3112 20.7119 12.4348 20.5622C12.5604 20.4145 12.6621 20.2546 12.7638 20.1008C12.8655 19.947 12.9513 19.7932 13.0251 19.6435C13.0988 19.4938 13.1607 19.3502 13.2125 19.2169C13.2644 19.0836 13.3122 18.9688 13.3461 18.8683C13.4159 18.6673 13.4478 18.5402 13.4478 18.5402H13.4458ZM4.43255 17.3242C4.38668 17.3857 4.32088 17.478 4.24112 17.5969C4.08358 17.8327 3.8742 18.169 3.6728 18.5771C3.48536 18.9914 3.30589 19.4753 3.19422 19.988C3.0985 20.5068 3.07059 21.0543 3.1663 21.5834C3.27598 22.1166 3.49932 22.5821 3.77051 22.9717C3.90611 23.1665 4.05367 23.345 4.20722 23.5049C4.36275 23.6669 4.52428 23.8105 4.67981 23.9376C5.30396 24.4462 5.86031 24.6902 5.86031 24.6902C5.86031 24.6902 5.94008 24.5569 6.04975 24.3293C6.15344 24.0996 6.31696 23.7838 6.45056 23.4065C6.52036 23.2178 6.58018 23.0127 6.64 22.7995C6.70182 22.5882 6.75566 22.3647 6.79155 22.133C6.82944 21.9013 6.84739 21.6613 6.84938 21.4173C6.85736 21.1753 6.8414 20.9272 6.79753 20.677C6.75366 20.4268 6.68587 20.1849 6.59813 19.9531C6.51238 19.7234 6.41467 19.5061 6.30101 19.2969C6.07568 18.8827 5.80049 18.5115 5.53528 18.2039C5.27006 17.8963 5.01283 17.6502 4.82339 17.4821C4.63196 17.3139 4.51032 17.2257 4.51032 17.2257C4.51032 17.2257 4.48041 17.2585 4.43454 17.32L4.43255 17.3242ZM11.1486 23.9273C11.1486 23.9273 10.5444 23.7715 9.73881 23.7633C9.33401 23.7592 8.88534 23.7961 8.44266 23.915C7.99997 24.034 7.5493 24.2308 7.16644 24.5487C6.79355 24.8707 6.5064 25.2746 6.305 25.7032C6.11556 26.1339 5.98594 26.5809 5.92014 26.9849C5.86031 27.3909 5.84635 27.7498 5.84635 28.0082C5.84237 28.2645 5.86829 28.4204 5.86829 28.4204C5.86829 28.4204 6.02383 28.4245 6.27907 28.4101C6.53232 28.3958 6.88727 28.363 7.28808 28.2912C7.6869 28.2194 8.12759 28.1107 8.55433 27.9446C8.76769 27.8605 8.97707 27.7642 9.17449 27.6493C9.37389 27.5345 9.57131 27.4053 9.74679 27.2556C10.0997 26.9541 10.343 26.5994 10.5464 26.2385C10.6441 26.058 10.7219 25.8714 10.7857 25.6889C10.8475 25.5064 10.9133 25.33 10.9552 25.1598C11.0489 24.8214 11.0808 24.5077 11.1167 24.2883C11.1466 24.0668 11.1526 23.9273 11.1526 23.9273H11.1486ZM1.3816 25.0655C1.26993 25.3485 1.11239 25.7483 1.0107 26.2262C0.787358 27.1756 0.699618 28.4245 1.16025 29.4847C1.39356 30.0138 1.7186 30.4424 2.09548 30.7828C2.47435 31.1232 2.88514 31.3775 3.26601 31.5661C4.02575 31.9414 4.65788 32.0583 4.65788 32.0583C4.65788 32.0583 4.71172 31.9004 4.77752 31.6379C4.80943 31.5067 4.84532 31.3488 4.87723 31.1703C4.89318 31.0822 4.90913 30.9878 4.92309 30.8894C4.94104 30.791 4.95899 30.6884 4.97295 30.5839C5.08461 29.7328 5.11453 28.6665 4.71571 27.6698C4.52029 27.1715 4.21719 26.7327 3.88816 26.3533C3.56313 25.976 3.2002 25.6561 2.85722 25.3977C2.17325 24.8809 1.57901 24.6184 1.57901 24.6184C1.57901 24.6184 1.49526 24.7825 1.3816 25.0655ZM9.96414 29.9953C9.96414 29.9953 9.79863 29.9912 9.52744 30.0097C9.25425 30.0281 8.88335 30.0691 8.46858 30.1614C8.05381 30.2537 7.59716 30.3993 7.16046 30.629C6.94111 30.7438 6.72774 30.8792 6.52435 31.0371C6.32892 31.197 6.14946 31.3816 5.98794 31.5928C5.82841 31.804 5.6968 32.0316 5.58912 32.2695C5.48543 32.5074 5.41763 32.7514 5.36179 32.9996C5.30795 33.2456 5.27405 33.4917 5.25411 33.7317C5.24414 33.9716 5.24813 34.2033 5.26209 34.4207C5.28801 34.8554 5.34783 35.2327 5.42161 35.4973C5.48742 35.7618 5.54325 35.9197 5.54325 35.9197C5.54325 35.9197 6.19333 35.7803 6.979 35.4358C7.7547 35.0913 8.70588 34.5519 9.27419 33.7624C9.5753 33.3666 9.75875 32.9401 9.86444 32.5197C9.99007 32.0993 10.0319 31.6851 10.0399 31.3118C10.0619 30.9407 10.0399 30.6146 10.014 30.3788C9.98409 30.143 9.96414 29.9994 9.96414 29.9994V29.9953ZM0.107374 33.5532C0.0475517 33.8752 0.00966403 34.3304 -0.000306406 34.8534C-0.0162591 35.8972 0.201096 37.2219 0.92495 38.2103C1.09844 38.4585 1.30981 38.6717 1.52716 38.8542C1.74651 39.0388 1.97583 39.1926 2.20914 39.3218C2.67576 39.5802 3.15434 39.7401 3.59902 39.8365C4.03971 39.9329 4.43055 39.9698 4.71172 39.9842C4.99289 39.9965 5.16438 39.9883 5.16438 39.9883C5.16438 39.9883 5.17834 39.8119 5.17834 39.5248C5.17435 39.2377 5.18232 38.8358 5.13247 38.3826C5.03875 37.4762 4.82538 36.3627 4.17132 35.4296C4.00183 35.1958 3.82635 34.9846 3.63292 34.7919C3.43949 34.5991 3.23011 34.4268 3.01475 34.271C2.58403 33.9593 2.1234 33.7173 1.71461 33.5348C0.89105 33.1657 0.215055 33.0406 0.215055 33.0406C0.215055 33.0406 0.163209 33.2313 0.107374 33.5532ZM10.1536 36.5185C10.1536 36.5185 9.98209 36.5554 9.70691 36.6416C9.43172 36.7277 9.05484 36.863 8.64605 37.062C8.23926 37.2609 7.7866 37.5275 7.39775 37.872C7.00691 38.2165 6.65197 38.6451 6.41467 39.1639C6.305 39.4223 6.22723 39.6909 6.17737 39.9616C6.13151 40.2323 6.09761 40.5091 6.11157 40.7737C6.11954 41.0403 6.14946 41.3028 6.19133 41.555C6.21327 41.6801 6.2352 41.8031 6.26312 41.9221C6.29502 42.041 6.32892 42.1538 6.36282 42.2645C6.5064 42.7034 6.65595 43.0766 6.79554 43.3309C6.93313 43.5852 7.02885 43.7328 7.02885 43.7328C7.02885 43.7328 7.18838 43.6549 7.43764 43.5031C7.6869 43.3534 8.02589 43.132 8.38483 42.851C8.74177 42.5701 9.1366 42.2276 9.48357 41.838C9.65705 41.6432 9.82057 41.4361 9.96614 41.2187C10.0379 41.11 10.1057 40.9993 10.1655 40.8844C10.2294 40.7696 10.2912 40.6506 10.343 40.5317C10.5564 40.0498 10.6242 39.574 10.6521 39.1126C10.6621 38.883 10.6521 38.6615 10.6262 38.4482C10.6062 38.2349 10.5823 38.0278 10.5424 37.8371C10.5045 37.6464 10.4607 37.468 10.4128 37.3101C10.3689 37.1501 10.3291 37.0086 10.2892 36.8917C10.2114 36.6559 10.1476 36.5165 10.1476 36.5165L10.1536 36.5185ZM0.835216 42.7198C0.84718 42.8961 0.867121 43.1053 0.897032 43.3411C0.93492 43.5749 0.984772 43.8333 1.04858 44.106C1.11439 44.3788 1.19016 44.6679 1.29186 44.9591C1.39954 45.2483 1.52517 45.5415 1.67273 45.8266C1.74651 45.9701 1.82428 46.1116 1.90803 46.249C1.99378 46.3864 2.09149 46.5197 2.19119 46.6468C2.3926 46.9032 2.61594 47.141 2.8632 47.3502C3.10648 47.5594 3.38366 47.7214 3.65286 47.8547C3.92605 47.9859 4.20123 48.0844 4.47642 48.1541C5.0208 48.2976 5.56918 48.3243 6.04576 48.3038C6.52235 48.2833 6.93313 48.2136 7.22626 48.15C7.5174 48.0864 7.69089 48.029 7.69089 48.029C7.69089 48.029 7.66097 47.8444 7.58719 47.5471C7.50743 47.2538 7.40573 46.8396 7.24222 46.3864C7.06873 45.9352 6.87331 45.4308 6.58417 44.9489C6.43661 44.7089 6.28705 44.469 6.10758 44.2414C5.92811 44.0138 5.72472 43.7984 5.4934 43.6016C5.04673 43.2037 4.53425 42.9166 4.00781 42.7075C3.48137 42.4983 2.9649 42.363 2.49031 42.2809C2.01771 42.1989 1.59895 42.1661 1.29784 42.1558C0.996737 42.1456 0.815275 42.1579 0.815275 42.1579C0.815275 42.1579 0.813281 42.3691 0.83721 42.7198H0.835216ZM11.9323 43.1053C11.9323 43.1053 11.7648 43.1894 11.5036 43.3534C11.2424 43.5154 10.8894 43.7554 10.5185 44.0712C10.1476 44.387 9.75477 44.7807 9.44369 45.2401C9.28615 45.4718 9.14258 45.7199 9.02692 45.9865C8.91127 46.2531 8.81356 46.5402 8.76969 46.8335C8.67596 47.424 8.71784 48.029 8.88136 48.5704C8.95912 48.8431 9.05285 49.1077 9.16252 49.3537C9.27818 49.5957 9.40381 49.8233 9.53143 50.0325C9.77869 50.4529 10.0599 50.7769 10.2633 51.0025C10.4667 51.2281 10.6042 51.3511 10.6042 51.3511C10.6042 51.3511 10.7458 51.226 10.9632 51.0004C11.1785 50.7749 11.4697 50.4509 11.7668 50.0592C12.0639 49.6675 12.371 49.2081 12.6183 48.716C12.8755 48.2177 13.0809 47.6824 13.1587 47.139C13.2005 46.8663 13.2205 46.5976 13.2065 46.3433C13.1986 46.087 13.1507 45.8471 13.1088 45.6092C13.0171 45.1355 12.8356 44.7151 12.6721 44.3419C12.5864 44.1573 12.4946 43.9892 12.4069 43.8415C12.3172 43.6939 12.2454 43.5585 12.1736 43.4498C12.034 43.2325 11.9343 43.1074 11.9343 43.1074L11.9323 43.1053ZM3.96394 52.0524C4.08358 52.4092 4.28499 52.8912 4.55818 53.4243C4.69178 53.693 4.86526 53.9596 5.04872 54.2323C5.23616 54.5009 5.43358 54.7778 5.66888 55.0259C6.13949 55.5263 6.6759 55.9795 7.316 56.2563C7.63106 56.3978 7.94812 56.4942 8.2592 56.5537C8.57427 56.6111 8.88933 56.6275 9.19243 56.6213C9.79664 56.6049 10.359 56.4819 10.8395 56.3261C11.3241 56.1661 11.7269 55.9733 12.0101 55.8216C12.2912 55.6698 12.4528 55.5611 12.4528 55.5611C12.4528 55.5611 12.369 55.3827 12.2095 55.0997C12.0579 54.8126 11.8326 54.423 11.5355 54.0108C10.9632 53.1618 10.1257 52.2103 8.99701 51.6464C8.71186 51.507 8.40876 51.4044 8.11563 51.3224C7.8225 51.2404 7.52338 51.1829 7.22826 51.1481C6.63801 51.0763 6.04975 51.0927 5.54724 51.1358C5.04074 51.1809 4.60404 51.2629 4.29296 51.3367C3.98188 51.4106 3.79843 51.4721 3.79843 51.4721C3.79843 51.4721 3.85027 51.6936 3.96593 52.0504L3.96394 52.0524ZM15.4559 49.3025C15.4559 49.3025 15.3063 49.4378 15.081 49.6798C14.8536 49.9238 14.5585 50.2683 14.2674 50.6949C13.9743 51.1214 13.6871 51.632 13.4817 52.2001C13.376 52.4872 13.3022 52.7804 13.2584 53.0839C13.2145 53.3895 13.2005 53.7053 13.2265 54.0252C13.2484 54.3512 13.3322 54.6486 13.4299 54.9418C13.5336 55.231 13.6552 55.5201 13.8167 55.7703C13.9723 56.0266 14.1457 56.2645 14.3252 56.486C14.5027 56.7095 14.7041 56.8961 14.8915 57.0725C15.081 57.2448 15.2644 57.4006 15.4379 57.5318C15.6154 57.6569 15.7749 57.7636 15.9125 57.8477C16.1857 58.0158 16.3592 58.1019 16.3592 58.1019C16.3592 58.1019 16.4689 57.9297 16.6264 57.6364C16.7839 57.3411 16.9873 56.9228 17.1807 56.4347C17.3762 55.9446 17.5536 55.3909 17.6773 54.8085C17.8029 54.222 17.8567 53.6253 17.7949 53.0429C17.7411 52.4523 17.5516 51.9561 17.3303 51.4987C17.2186 51.2732 17.081 51.0722 16.9514 50.8753C16.8218 50.6805 16.6822 50.5021 16.5406 50.3422C16.3971 50.1843 16.2655 50.0366 16.1398 49.9074C16.0142 49.7782 15.8946 49.6695 15.7929 49.5814C15.5855 49.405 15.4559 49.3025 15.4559 49.3025ZM9.75875 60.7781C9.97611 61.1164 10.3231 61.5512 10.7578 62.0167C10.8675 62.1315 10.9791 62.2525 11.1028 62.3653C11.2264 62.4781 11.356 62.5909 11.4896 62.7037C11.7588 62.9251 12.044 63.1466 12.3551 63.3353C12.9832 63.7085 13.6672 64.014 14.401 64.1063C14.7659 64.1555 15.1169 64.1617 15.4559 64.1268C15.7988 64.0879 16.1239 64.012 16.431 63.9136C17.0471 63.7126 17.5796 63.4235 18.0302 63.1077C18.4789 62.7959 18.8338 62.476 19.0771 62.2361C19.3204 61.9962 19.454 61.8342 19.454 61.8342C19.454 61.8342 19.3164 61.6742 19.0731 61.4384C18.8299 61.1985 18.4929 60.8622 18.0681 60.532C17.2386 59.8409 16.1119 59.1232 14.7958 58.8812C14.1238 58.7766 13.4757 58.7869 12.8436 58.8935C12.5305 58.9448 12.2234 59.0186 11.9343 59.1006C11.6472 59.1806 11.374 59.2749 11.1207 59.3713C10.6142 59.5661 10.1875 59.7814 9.88837 59.9475C9.58926 60.1137 9.41776 60.2326 9.41776 60.2326C9.41776 60.2326 9.53542 60.4438 9.75676 60.776L9.75875 60.7781ZM20.7302 54.544C20.7302 54.544 20.6166 54.7265 20.455 55.0423C20.2915 55.3581 20.0901 55.799 19.9106 56.324C19.7332 56.849 19.5836 57.456 19.5358 58.0978C19.4899 58.7377 19.5617 59.3939 19.799 60.0378C20.2955 61.2948 21.4062 62.1643 22.3873 62.6216C22.6286 62.7447 22.8659 62.8349 23.0832 62.9087C23.2986 62.9826 23.494 63.042 23.6575 63.0871C23.8211 63.1323 23.9527 63.163 24.0464 63.1774C24.1381 63.1917 24.19 63.1999 24.19 63.1999C24.19 63.1999 24.2498 62.9908 24.3196 62.6442C24.3894 62.2976 24.4691 61.8096 24.523 61.2477C24.5748 60.6879 24.5968 60.0583 24.5469 59.4349C24.521 59.1252 24.4811 58.8074 24.4193 58.4977C24.3555 58.1881 24.2697 57.8887 24.1541 57.6077C24.0364 57.3268 23.9048 57.0581 23.7493 56.8264C23.5937 56.5926 23.4202 56.3896 23.2448 56.1907C23.0673 55.9979 22.8778 55.8277 22.6864 55.6801C22.501 55.5222 22.3095 55.3827 22.1241 55.2638C22.0304 55.2043 21.9386 55.149 21.8489 55.0997C21.7612 55.0464 21.6774 54.9952 21.5957 54.95C21.4321 54.8578 21.2826 54.7839 21.153 54.7245C21.0253 54.665 20.9177 54.624 20.8459 54.5932C20.7741 54.5625 20.7342 54.5461 20.7342 54.5461L20.7302 54.544ZM18.2536 67.9985C18.5846 68.2651 19.0691 68.6117 19.6554 68.9562C20.8379 69.6186 22.479 70.1989 24.0384 69.9344C24.8161 69.8031 25.4921 69.4771 26.0524 69.0854C26.6168 68.6814 27.0754 68.1954 27.4323 67.736C27.7893 67.2767 28.0485 66.8378 28.22 66.5159C28.3915 66.1939 28.4752 65.9868 28.4752 65.9868C28.4752 65.9868 28.2878 65.8658 27.9687 65.6997C27.8092 65.6156 27.6158 65.5213 27.3964 65.4249C27.1751 65.3306 26.9358 65.2116 26.6706 65.1091C26.539 65.0578 26.4014 65.0066 26.2598 64.9574C26.1182 64.9102 25.9727 64.863 25.8231 64.8138C25.526 64.7174 25.2129 64.6354 24.8859 64.578C24.5609 64.5185 24.2298 64.4611 23.8869 64.4488C23.7154 64.4406 23.5419 64.4406 23.3644 64.4488C23.1909 64.4529 23.0154 64.4652 22.838 64.4878C22.483 64.5329 22.138 64.617 21.805 64.7277C21.472 64.8364 21.157 64.9635 20.8519 65.1132C20.2457 65.4106 19.6913 65.7858 19.2327 66.1406C18.774 66.4954 18.4011 66.844 18.1439 67.1065C17.8867 67.3669 17.7471 67.5412 17.7471 67.5412C17.7471 67.5412 17.9305 67.7237 18.2575 67.9965L18.2536 67.9985Z" fill="#AA8158"/>
</svg>
