<svg width="80" height="80" viewBox="0 0 80 80" fill="none" xmlns="http://www.w3.org/2000/svg">
<g clip-path="url(#clip0_79_810)">
<mask id="mask0_79_810" style="mask-type:luminance" maskUnits="userSpaceOnUse" x="0" y="0" width="80" height="80">
<path d="M80 0H0V80H80V0Z" fill="white"/>
</mask>
<g mask="url(#mask0_79_810)">
<path d="M24.4973 38.2035C24.9903 37.1561 25.6642 36.204 26.4882 35.3908C27.2069 34.6994 28.0652 34.1696 29.0055 33.8372C29.9737 33.5073 30.9908 33.3435 32.0136 33.3526C32.9982 33.3366 33.9773 33.5008 34.9027 33.8372C35.7234 34.1405 36.4352 34.6814 36.9473 35.3908C37.5059 36.2278 37.8304 37.1989 37.8873 38.2035C37.9732 39.6328 37.8336 41.0668 37.4736 42.4526C37.097 44.3379 36.3993 46.1445 35.4109 47.7935C34.6783 49.0023 33.6384 49.9954 32.3973 50.6717C31.2319 51.264 29.9408 51.5662 28.6336 51.5526C27.678 51.5632 26.7284 51.399 25.8318 51.0681C25.0001 50.7585 24.273 50.2199 23.7345 49.5145C23.1434 48.6863 22.7843 47.7152 22.6945 46.7017C22.57 45.275 22.693 43.8375 23.0582 42.4526C23.3737 40.9855 23.8575 39.5597 24.5 38.2035M27.33 46.5117C27.2232 47.1918 27.3219 47.8882 27.6136 48.5117C27.7361 48.696 27.9049 48.8449 28.1031 48.9433C28.3013 49.0418 28.5219 49.0864 28.7427 49.0726C29.2755 49.0769 29.7895 48.8761 30.1782 48.5117C30.7127 47.9397 31.1143 47.2568 31.3545 46.5117C31.8306 45.1869 32.2167 43.8314 32.51 42.4545C32.8413 41.1192 33.08 39.7626 33.2245 38.3945C33.3437 37.7175 33.2553 37.0203 32.9709 36.3945C32.8408 36.205 32.6631 36.0532 32.4556 35.9544C32.2481 35.8556 32.0182 35.8133 31.7891 35.8317C31.2733 35.836 30.7786 36.0373 30.4064 36.3945C29.8643 36.9658 29.4529 37.6483 29.2009 38.3945C28.7067 39.7166 28.3116 41.0736 28.0191 42.4545C27.685 43.7878 27.4537 45.1448 27.3273 46.5135" fill="#AA8158"/>
<path d="M40.1818 49.3544C40.1818 49.1026 40.2227 48.9535 40.3055 48.9054C40.4654 48.8447 40.6368 48.8204 40.8073 48.8344H43.7864C43.9802 48.8605 44.1769 48.8163 44.3409 48.7099C44.451 48.5579 44.5241 48.3824 44.5545 48.1972L46.7964 38.6363C46.8171 38.477 46.7796 38.3156 46.6909 38.1817C46.557 38.0981 46.3985 38.0628 46.2418 38.0817H43.8309C43.6893 38.0926 43.5472 38.0682 43.4173 38.0108C43.3382 37.9626 43.2991 37.8335 43.2991 37.6199V36.2008C43.2991 35.8772 43.3858 35.6954 43.5591 35.6554C43.7809 35.6104 44.0064 35.5866 44.2327 35.5844C44.9635 35.5676 45.6924 35.5023 46.4145 35.389C47.1335 35.2797 47.829 35.0501 48.4718 34.7099C49.1354 34.3469 49.6931 33.8175 50.09 33.1735C50.1928 33.0074 50.3348 32.8691 50.5036 32.7708C50.7227 32.6727 50.9621 32.6284 51.2018 32.6417H51.9809C52.1639 32.6271 52.3475 32.6616 52.5127 32.7417C52.6164 32.809 52.6391 32.9563 52.5836 33.1844L49.1609 48.1717C49.09 48.4717 49.1191 48.6563 49.2518 48.7281C49.4672 48.8146 49.6994 48.8509 49.9309 48.8344H52.5536C52.7109 48.8269 52.8681 48.8529 53.0145 48.9108C53.1255 48.9617 53.1809 49.0935 53.1809 49.3063V50.619C53.1982 50.8123 53.1699 51.0069 53.0982 51.1872C53.0418 51.2717 52.8691 51.3163 52.5782 51.3163H40.9473C40.7279 51.3433 40.5056 51.3017 40.3109 51.1972C40.2242 51.119 40.1809 50.9023 40.1809 50.5472L40.1818 49.3544Z" fill="#AA8158"/>
<path d="M28.9355 25C28.9191 25.0709 28.9191 25.1163 28.9355 25.1363C28.9518 25.1563 29.0055 25.1672 29.1009 25.1672H29.6818C29.7991 25.1672 29.87 25.1827 29.8945 25.2127C29.9275 25.2826 29.9404 25.3604 29.9318 25.4372V25.8918C29.9318 25.9936 29.9164 26.0527 29.8864 26.0736C29.8227 26.0979 29.7543 26.1075 29.6864 26.1018H26.5745C26.5129 26.1045 26.4513 26.0959 26.3927 26.0763C26.3509 26.0609 26.3291 26.01 26.3291 25.9254V25.3272C26.3225 25.2824 26.3328 25.2367 26.3582 25.1991C26.3976 25.1758 26.4436 25.1662 26.4891 25.1718H27.0909C27.1755 25.1718 27.2236 25.1618 27.2364 25.1391C27.2553 25.0977 27.2684 25.054 27.2755 25.0091L28.1136 21.1C28.1327 20.9982 28.1273 20.9391 28.0973 20.9182C28.0295 20.8925 27.9567 20.8826 27.8845 20.8891H27.4755C27.4018 20.8891 27.3573 20.8791 27.3409 20.8582C27.3195 20.8145 27.311 20.7656 27.3164 20.7172V20.1118C27.3108 20.0688 27.3208 20.0253 27.3445 19.9891C27.3826 19.9656 27.4274 19.9557 27.4718 19.9609H30.8355C31.2641 19.9468 31.6918 20.0112 32.0973 20.1509C32.3867 20.2434 32.6375 20.4287 32.8109 20.6782C32.9843 20.9277 33.0706 21.2274 33.0564 21.5309C33.0683 21.8921 32.9792 22.2494 32.7991 22.5627C32.628 22.8426 32.3896 23.0751 32.1055 23.2391C31.8034 23.4142 31.4753 23.54 31.1336 23.6118C30.7752 23.6893 30.4095 23.7283 30.0427 23.7282H29.3918C29.2882 23.7282 29.2282 23.7427 29.21 23.7709C29.1858 23.824 29.1681 23.8799 29.1573 23.9372L28.9355 25ZM29.9827 22.7945C30.2248 22.7995 30.464 22.7409 30.6764 22.6245C30.8712 22.5173 31.0343 22.3605 31.1491 22.17C31.2635 21.9776 31.323 21.7575 31.3209 21.5336C31.3214 21.4235 31.2968 21.3147 31.2491 21.2154C31.2003 21.1157 31.1219 21.0335 31.0245 20.98C30.9028 20.916 30.7666 20.8847 30.6291 20.8891H29.9927C29.9018 20.8891 29.8409 20.8991 29.8245 20.9182C29.7989 20.9623 29.7822 21.0112 29.7755 21.0618L29.44 22.6445C29.4237 22.6835 29.4214 22.7268 29.4336 22.7672C29.4464 22.7863 29.4945 22.7954 29.5791 22.7954L29.9827 22.7945Z" fill="#AA8158"/>
<path d="M33.7273 23.4173C33.8733 23.0812 34.0847 22.7774 34.3491 22.5236C34.6218 22.2624 34.9434 22.0576 35.2955 21.9209C35.6771 21.7731 36.0835 21.6993 36.4927 21.7036C36.8422 21.6956 37.1894 21.7626 37.5109 21.9C37.7887 22.0213 38.0228 22.2246 38.1818 22.4827C38.3483 22.7729 38.4305 23.1038 38.4191 23.4382C38.4223 23.8088 38.3496 24.1762 38.2054 24.5176C38.0613 24.8591 37.8487 25.1674 37.5809 25.4236C37.3081 25.6855 36.9862 25.8906 36.6336 26.0273C36.2524 26.1757 35.8463 26.2494 35.4373 26.2446C35.0875 26.2525 34.74 26.1855 34.4182 26.0482C34.1397 25.9267 33.905 25.7231 33.7455 25.4646C33.5773 25.1753 33.4944 24.8444 33.5064 24.51C33.5037 24.135 33.5789 23.7635 33.7273 23.4191M35.1364 25.1382C35.1605 25.2385 35.214 25.3294 35.29 25.3991C35.365 25.4593 35.4594 25.4901 35.5555 25.4855C35.7299 25.4815 35.8976 25.4173 36.03 25.3036C36.1969 25.1639 36.3368 24.9947 36.4427 24.8046C36.572 24.58 36.6704 24.339 36.7355 24.0882C36.8085 23.8188 36.8452 23.5409 36.8445 23.2618C36.8482 23.1113 36.8307 22.9611 36.7927 22.8155C36.7688 22.715 36.7157 22.6239 36.64 22.5536C36.5642 22.4945 36.4698 22.4642 36.3736 22.4682C36.1986 22.4719 36.0303 22.5362 35.8973 22.65C35.7291 22.7888 35.5882 22.9578 35.4818 23.1482C35.3538 23.3724 35.2563 23.6127 35.1918 23.8627C35.1204 24.133 35.0846 24.4114 35.0855 24.6909C35.0816 24.8413 35.0988 24.9916 35.1364 25.1373" fill="#AA8158"/>
<path d="M41.2727 25C41.2673 25.0245 41.2618 25.0518 41.2564 25.0827C41.2514 25.1078 41.2486 25.1334 41.2482 25.1591C41.2455 25.176 41.2468 25.1933 41.252 25.2096C41.2572 25.2259 41.266 25.2409 41.2779 25.2532C41.2898 25.2655 41.3044 25.2749 41.3205 25.2807C41.3367 25.2864 41.3539 25.2884 41.3709 25.2863C41.4902 25.2722 41.599 25.2114 41.6736 25.1172C41.8016 24.9763 41.9076 24.8169 41.9882 24.6445C42.0115 24.5906 42.0421 24.5401 42.0791 24.4945C42.1009 24.4745 42.1555 24.4845 42.2427 24.5254L42.5818 24.6809C42.6609 24.7191 42.6927 24.7591 42.6727 24.8018C42.6485 24.861 42.6212 24.919 42.5909 24.9754C42.4117 25.348 42.1469 25.6729 41.8182 25.9236C41.5079 26.154 41.131 26.2769 40.7445 26.2736C40.4936 26.288 40.2457 26.2133 40.0445 26.0627C39.9621 25.9953 39.8963 25.9098 39.8523 25.8128C39.8083 25.7158 39.7873 25.61 39.7909 25.5036C39.792 25.4287 39.8002 25.3542 39.8155 25.2809L39.8564 25.0745L40.3682 22.8091C40.3887 22.7531 40.3921 22.6924 40.3782 22.6345C40.3627 22.6091 40.3009 22.5954 40.1964 22.5954H39.8082C39.7547 22.6028 39.7004 22.5912 39.6545 22.5627C39.6272 22.5141 39.6163 22.458 39.6236 22.4027V22.0063C39.6236 21.9327 39.6355 21.8881 39.6609 21.8709C39.7058 21.8512 39.7548 21.843 39.8036 21.8472H41.7882C41.9155 21.8472 41.9891 21.8591 42.0091 21.8818C42.0291 21.9045 42.0218 21.9727 41.9918 22.08L41.2727 25ZM40.9327 19.8745C41.1054 19.7442 41.3159 19.6737 41.5323 19.6737C41.7486 19.6737 41.9591 19.7442 42.1318 19.8745C42.2105 19.9449 42.2734 20.031 42.3165 20.1274C42.3596 20.2237 42.3819 20.3281 42.3819 20.4336C42.3819 20.5391 42.3596 20.6435 42.3165 20.7398C42.2734 20.8362 42.2105 20.9223 42.1318 20.9927C41.9596 21.1241 41.7489 21.1953 41.5323 21.1953C41.3156 21.1953 41.105 21.1241 40.9327 20.9927C40.8543 20.9222 40.7916 20.836 40.7487 20.7397C40.7057 20.6433 40.6835 20.5391 40.6835 20.4336C40.6835 20.3281 40.7057 20.2239 40.7487 20.1275C40.7916 20.0312 40.8543 19.945 40.9327 19.8745Z" fill="#AA8158"/>
<path d="M45.8391 21.8472C45.8933 21.8412 45.9481 21.8517 45.9964 21.8772C46.0191 21.8981 46.0227 21.9418 46.0073 22.0063L45.8555 22.6427C45.8273 22.7545 45.8236 22.8145 45.8455 22.8245C45.8673 22.8345 45.9182 22.7818 46.0027 22.6672C46.2007 22.384 46.452 22.1422 46.7427 21.9554C46.9983 21.7972 47.2931 21.7137 47.5936 21.7145C47.7606 21.7147 47.9268 21.7383 48.0873 21.7845C48.2448 21.8286 48.3884 21.9121 48.5045 22.0272C48.628 22.1607 48.7035 22.3315 48.7191 22.5127C48.7377 22.7844 48.7 23.0571 48.6082 23.3136L48.1045 24.9672C48.0869 25.0214 48.0763 25.0776 48.0727 25.1345C48.0701 25.1514 48.0714 25.1687 48.0765 25.185C48.0817 25.2014 48.0906 25.2163 48.1025 25.2286C48.1144 25.2409 48.1289 25.2504 48.1451 25.2561C48.1612 25.2619 48.1784 25.2638 48.1955 25.2618C48.3155 25.2474 48.4253 25.1872 48.5018 25.0936C48.6409 24.9419 48.7557 24.7696 48.8418 24.5827C48.8596 24.5373 48.8884 24.497 48.9255 24.4654C48.9545 24.4445 48.9991 24.4481 49.0582 24.4763L49.3855 24.639C49.4673 24.6772 49.5091 24.7099 49.51 24.7381C49.5027 24.7954 49.4842 24.8507 49.4555 24.9008C49.2786 25.2835 49.0127 25.6183 48.68 25.8772C48.3681 26.1192 47.9839 26.2492 47.5891 26.2463C47.3304 26.2649 47.0733 26.1929 46.8618 26.0427C46.7833 25.9818 46.7201 25.9034 46.6773 25.8137C46.6346 25.7241 46.6134 25.6256 46.6155 25.5263C46.6152 25.4614 46.6209 25.3965 46.6327 25.3327C46.6431 25.2711 46.6577 25.2104 46.6764 25.1508L47.1264 23.5145C47.1749 23.353 47.2123 23.1884 47.2382 23.0218C47.262 22.912 47.2521 22.7977 47.21 22.6936C47.1861 22.6536 47.1511 22.6215 47.1094 22.601C47.0676 22.5805 47.0208 22.5726 46.9745 22.5781C46.8154 22.5874 46.6643 22.6517 46.5473 22.7599C46.3805 22.9011 46.2345 23.0652 46.1136 23.2472C45.9666 23.4625 45.84 23.6911 45.7355 23.9299C45.6238 24.1804 45.5377 24.4414 45.4782 24.709L45.2055 25.8999C45.1948 25.9569 45.1701 26.0104 45.1336 26.0554C45.0767 26.09 45.0098 26.1044 44.9436 26.0963H43.9618C43.8273 26.0963 43.7536 26.0808 43.74 26.0508C43.7275 25.9854 43.7319 25.9178 43.7527 25.8545L44.46 22.799C44.4791 22.7081 44.4809 22.6481 44.46 22.6245C44.4391 22.6008 44.3773 22.5899 44.2609 22.5899H43.9582C43.8755 22.5899 43.8255 22.5781 43.8064 22.5527C43.7819 22.5063 43.7718 22.4538 43.7773 22.4018V22.0172C43.7714 21.9671 43.7809 21.9163 43.8045 21.8718C43.8218 21.8518 43.8664 21.8418 43.9373 21.8418L45.8391 21.8472Z" fill="#AA8158"/>
<path d="M51.4927 21.8472C51.5636 21.8472 51.6036 21.8372 51.6136 21.8182C51.6282 21.7825 51.6397 21.7457 51.6482 21.7082L51.7627 21.2209C51.77 21.1835 51.7895 21.1496 51.8182 21.1245C51.8526 21.1058 51.8909 21.0952 51.93 21.0936C52.1082 21.091 52.285 21.0603 52.4536 21.0027C52.5612 20.9631 52.6652 20.9145 52.7645 20.8572C52.798 20.8327 52.8329 20.8102 52.8691 20.79C52.8936 20.7766 52.9211 20.7694 52.9491 20.7691H53.0909C53.1486 20.7648 53.2066 20.7716 53.2618 20.7891C53.2918 20.8027 53.2991 20.8409 53.2827 20.9036L53.0909 21.6972C53.075 21.7374 53.0706 21.7811 53.0782 21.8236C53.0864 21.8427 53.13 21.8527 53.2091 21.8527H53.8455C53.8886 21.8495 53.9318 21.8564 53.9718 21.8727C53.9973 21.8863 54.0082 21.9263 54.0082 21.9909V22.4082C54.0142 22.4626 54.0061 22.5177 53.9845 22.5682C53.9682 22.5909 53.9191 22.6009 53.8373 22.6009H53C52.9345 22.6009 52.8927 22.6109 52.8755 22.6318C52.8528 22.6626 52.8381 22.6985 52.8327 22.7363L52.2918 24.9009C52.2782 24.9572 52.2673 25.0154 52.2573 25.0763C52.2468 25.1266 52.2516 25.1788 52.2709 25.2263C52.2909 25.2682 52.3355 25.2882 52.4064 25.2882C52.5193 25.2821 52.6255 25.2326 52.7027 25.15C52.8233 25.0308 52.9273 24.896 53.0118 24.7491C53.0366 24.7063 53.0672 24.6671 53.1027 24.6327C53.1309 24.6063 53.1745 24.6063 53.2309 24.6327L53.5545 24.7954C53.6227 24.8309 53.6591 24.8609 53.6655 24.8863C53.6647 24.9385 53.6519 24.9899 53.6282 25.0363C53.4862 25.398 53.2396 25.7091 52.92 25.93C52.5931 26.1503 52.206 26.264 51.8118 26.2554C51.6585 26.2715 51.5034 26.2543 51.3573 26.2053C51.2111 26.1562 51.0771 26.0762 50.9645 25.9709C50.8796 25.8567 50.823 25.7239 50.7997 25.5835C50.7763 25.4431 50.7867 25.2992 50.83 25.1636L51.4064 22.7736C51.4161 22.7313 51.4198 22.6878 51.4173 22.6445C51.4173 22.6163 51.3709 22.6018 51.2918 22.6018H50.8791C50.8277 22.6043 50.7765 22.5953 50.7291 22.5754C50.6955 22.5572 50.6782 22.5127 50.6782 22.4391V22.0218C50.6782 21.9427 50.6964 21.8936 50.7318 21.8772C50.7828 21.8591 50.8368 21.8511 50.8909 21.8536L51.4927 21.8472Z" fill="#AA8158"/>
</g>
<mask id="mask1_79_810" style="mask-type:luminance" maskUnits="userSpaceOnUse" x="0" y="0" width="80" height="80">
<path d="M80 0H0V80H80V0Z" fill="white"/>
</mask>
<g mask="url(#mask1_79_810)">
<path d="M76.8673 24.4846C73.0195 15.3447 65.9128 7.96066 56.9268 3.76599C47.9409 -0.428688 37.7169 -1.13471 28.2396 1.785C18.7624 4.7047 10.7082 11.0418 5.64064 19.566C0.573084 28.0903 -1.14625 38.1934 0.816444 47.914C2.77913 57.6346 8.28381 66.2791 16.2618 72.1693C24.2398 78.0595 34.1218 80.7751 43.9894 79.7889C53.857 78.8027 63.0062 74.185 69.6606 66.8324C76.315 59.4798 80 49.9168 80 40C80 34.6711 78.9349 29.396 76.8673 24.4846ZM64.8873 60.5455C63.1795 61.6012 61.7406 63.0397 60.6845 64.7473C58.5239 68.254 55.5014 71.149 51.905 73.1566C48.3085 75.1643 44.2579 76.2176 40.1391 76.2164H39.9655C35.8466 76.2176 31.796 75.1643 28.1996 73.1566C24.6031 71.149 21.5806 68.254 19.42 64.7473C18.362 63.0388 16.9206 61.6002 15.21 60.5455C11.7041 58.384 8.80962 55.3613 6.80201 51.7651C4.79441 48.1688 3.74046 44.1187 3.74046 40C3.74046 35.8814 4.79441 31.8312 6.80201 28.235C8.80962 24.6387 11.7041 21.6161 15.21 19.4546C16.9178 18.3989 18.3566 16.9603 19.4127 15.2528C21.5735 11.745 24.5966 8.84917 28.1939 6.84116C31.7912 4.83315 35.8429 3.77991 39.9627 3.78185H40.1364C44.2552 3.7805 48.3059 4.83383 51.9023 6.84147C55.4988 8.84912 58.5213 11.7442 60.6818 15.2509C61.7386 16.9594 63.1784 18.3985 64.8873 19.4546C68.3932 21.6161 71.2877 24.6387 73.2953 28.235C75.3029 31.8312 76.3568 35.8814 76.3568 40C76.3568 44.1187 75.3029 48.1688 73.2953 51.7651C71.2877 55.3613 68.3932 58.384 64.8873 60.5455Z" fill="#AA8158"/>
<path d="M60.24 64.1401C61.2482 62.5129 62.6195 61.1414 64.2464 60.1328C67.683 58.0156 70.5205 55.0538 72.4887 51.5296C74.4568 48.0055 75.4901 44.0361 75.4901 39.9996C75.4901 35.9631 74.4568 31.9938 72.4887 28.4696C70.5205 24.9454 67.683 21.9837 64.2464 19.8664C62.6174 18.8574 61.2445 17.4845 60.2355 15.8555C58.1174 12.4189 55.155 9.58159 51.6304 7.6136C48.1057 5.6456 44.136 4.61243 40.0991 4.61243C36.0622 4.61243 32.0925 5.6456 28.5678 7.6136C25.0431 9.58159 22.0808 12.4189 19.9627 15.8555C18.9566 17.4834 17.5876 18.8565 15.9627 19.8673C12.5261 21.9846 9.68856 24.9463 7.72042 28.4705C5.75228 31.9947 4.71902 35.964 4.71902 40.0005C4.71902 44.037 5.75228 48.0064 7.72042 51.5306C9.68856 55.0547 12.5261 58.0165 15.9627 60.1337C17.5907 61.1418 18.9631 62.5131 19.9727 64.1401C22.0908 67.5767 25.0531 70.414 28.5778 72.382C32.1025 74.35 36.0722 75.3832 40.1091 75.3832C44.146 75.3832 48.1157 74.35 51.6404 72.382C55.165 70.414 58.1274 67.5767 60.2455 64.1401M51.5891 71.9092C46.3586 74.8849 40.1771 75.714 34.3473 74.2216C28.5175 72.7293 23.4947 69.0321 20.3373 63.9092C19.2912 62.224 17.8688 60.8041 16.1818 59.761C12.8079 57.6824 10.0223 54.7748 8.09012 51.3149C6.15794 47.8551 5.14356 43.9583 5.14356 39.9955C5.14356 36.0327 6.15794 32.1359 8.09012 28.6761C10.0223 25.2163 12.8079 22.3087 16.1818 20.2301C17.8672 19.1869 19.2883 17.7677 20.3336 16.0837C22.413 12.7101 25.3211 9.92477 28.7813 7.99285C32.2414 6.06093 36.1384 5.04671 40.1014 5.04671C44.0643 5.04671 47.9613 6.06093 51.4215 7.99285C54.8816 9.92477 57.7898 12.7101 59.8691 16.0837C60.9138 17.7679 62.3342 19.1874 64.0191 20.231C67.3932 22.3094 70.179 25.217 72.1114 28.6768C74.0437 32.1367 75.0582 36.0336 75.0582 39.9964C75.0582 43.9593 74.0437 47.8562 72.1114 51.3161C70.179 54.7759 67.3932 57.6835 64.0191 59.7619C62.3353 60.8059 60.9158 62.2254 59.8718 63.9092C57.82 67.2244 54.9722 69.9744 51.5873 71.9092" fill="#AA8158"/>
</g>
</g>
<defs>
<clipPath id="clip0_79_810">
<rect width="80" height="80" fill="white"/>
</clipPath>
</defs>
</svg>
