<svg width="80" height="80" viewBox="0 0 80 80" fill="none" xmlns="http://www.w3.org/2000/svg">
<g clip-path="url(#clip0_79_896)">
<mask id="mask0_79_896" style="mask-type:luminance" maskUnits="userSpaceOnUse" x="0" y="0" width="80" height="80">
<path d="M80 0H0V80H80V0Z" fill="white"/>
</mask>
<g mask="url(#mask0_79_896)">
<path d="M23.5964 38.2038C24.0893 37.1567 24.7633 36.2048 25.5873 35.392C26.3055 34.6999 27.1639 34.1701 28.1045 33.8384C29.0726 33.5077 30.0898 33.3436 31.1127 33.3529C32.0973 33.3367 33.0766 33.5012 34.0018 33.8384C34.8229 34.141 35.5348 34.682 36.0464 35.392C36.605 36.2286 36.9296 37.1994 36.9864 38.2038C37.0726 39.6337 36.933 41.0683 36.5727 42.4547C36.1961 44.3403 35.4983 46.1472 34.51 47.7965C33.7777 49.0054 32.7378 49.9982 31.4964 50.6738C30.331 51.266 29.0399 51.5682 27.7327 51.5547C26.7771 51.5653 25.8275 51.4011 24.9309 51.0702C24.0988 50.7613 23.3716 50.2225 22.8336 49.5165C22.2422 48.6886 21.8831 47.7174 21.7936 46.7038C21.6691 45.2771 21.7921 43.8395 22.1573 42.4547C22.4731 40.9877 22.9569 39.5619 23.5991 38.2056M26.4291 46.5147C26.3219 47.1947 26.4207 47.8913 26.7127 48.5147C26.8351 48.6992 27.0039 48.8482 27.2021 48.9468C27.4002 49.0454 27.6209 49.0902 27.8418 49.0765C28.3739 49.0778 28.8861 48.8748 29.2727 48.5093C29.8075 47.9375 30.2093 47.2545 30.4491 46.5093C30.9264 45.1853 31.314 43.8308 31.6091 42.4547C31.9404 41.1194 32.1791 39.7629 32.3236 38.3947C32.4427 37.7177 32.3542 37.0206 32.07 36.3947C31.9397 36.2055 31.7619 36.0539 31.5544 35.9553C31.347 35.8567 31.1172 35.8144 30.8882 35.8329C30.3725 35.8372 29.878 36.0382 29.5055 36.3947C28.9636 36.9662 28.5523 37.6486 28.3 38.3947C27.8058 39.7168 27.4107 41.0739 27.1182 42.4547C26.784 43.7884 26.5527 45.1457 26.4264 46.5147" fill="#AA8158"/>
<path d="M39.9091 45.1719C40.1724 44.8928 40.4933 44.6742 40.8495 44.5314C41.2056 44.3886 41.5886 44.3248 41.9718 44.3446C42.6218 44.2967 43.2657 44.4972 43.7736 44.9055C43.9701 45.0814 44.1262 45.2976 44.2313 45.5394C44.3365 45.7812 44.3881 46.0428 44.3827 46.3064C44.3998 46.625 44.3216 46.9415 44.1582 47.2155C44.0231 47.4212 43.8481 47.5977 43.6436 47.7346C43.4509 47.8619 43.28 47.9719 43.13 48.0664C43.0654 48.0984 43.0106 48.147 42.9711 48.2073C42.9317 48.2675 42.909 48.3372 42.9055 48.4092C42.9081 48.5184 42.9394 48.625 42.9964 48.7182C43.0534 48.8114 43.134 48.888 43.23 48.9401C43.4768 49.0947 43.7488 49.2049 44.0336 49.2655C44.3415 49.3395 44.657 49.3773 44.9736 49.3783C45.5464 49.3799 46.1114 49.2463 46.6227 48.9883C47.1471 48.72 47.5822 48.3054 47.8755 47.7946C48.2154 47.1723 48.3806 46.4696 48.3536 45.761C48.3731 45.3154 48.2793 44.8722 48.0809 44.4728C47.8984 44.1494 47.6193 43.8913 47.2827 43.7346C46.8662 43.5479 46.4206 43.4341 45.9655 43.3983C45.8448 43.3837 45.7234 43.3756 45.6018 43.3737C45.5655 43.3775 45.5288 43.3725 45.4948 43.3592C45.4608 43.3459 45.4305 43.3247 45.4064 43.2974C45.3552 43.1928 45.3344 43.0759 45.3464 42.9601V41.4146C45.3379 41.3101 45.3522 41.205 45.3882 41.1064C45.4051 41.0816 45.4281 41.0616 45.455 41.0482C45.4819 41.0348 45.5118 41.0286 45.5418 41.0301L45.8555 41.0128C46.5634 40.9629 47.245 40.724 47.8291 40.321C48.4006 39.9357 48.8824 39.4319 49.2418 38.8437C49.573 38.3275 49.7549 37.7297 49.7673 37.1164C49.7896 36.843 49.728 36.5692 49.5908 36.3316C49.4535 36.0939 49.2471 35.9038 48.9991 35.7864C48.4009 35.5209 47.7505 35.3938 47.0964 35.4146C46.7621 35.4135 46.4295 35.4613 46.1091 35.5564C45.7909 35.6474 45.6309 35.801 45.6309 36.0055C45.6346 36.0768 45.6589 36.1455 45.7009 36.2033C45.7428 36.2611 45.8006 36.3054 45.8673 36.331C46.0245 36.4128 46.21 36.5128 46.4227 36.6319C46.685 36.7734 46.8999 36.9889 47.0407 37.2515C47.1814 37.5142 47.2419 37.8124 47.2145 38.1092C47.2079 38.3684 47.146 38.6232 47.0327 38.8566C46.9195 39.0899 46.7577 39.2963 46.5582 39.4619C46.0745 39.8849 45.4454 40.1034 44.8036 40.071C44.3402 40.071 43.8824 39.9702 43.4618 39.7755C43.0365 39.5824 42.6713 39.278 42.4045 38.8946C42.1175 38.4679 41.9727 37.9613 41.9909 37.4474C41.9944 37.0602 42.0745 36.6775 42.2266 36.3214C42.3788 35.9654 42.5999 35.643 42.8773 35.3728C43.55 34.7012 44.3703 34.196 45.2727 33.8974C46.3537 33.5214 47.492 33.3369 48.6364 33.3519C49.7422 33.323 50.8454 33.4725 51.9036 33.7946C52.6648 34.0181 53.3459 34.4551 53.8664 35.0537C54.3052 35.603 54.5372 36.289 54.5218 36.9919C54.5435 37.8096 54.2803 38.6095 53.7773 39.2546C53.2515 39.906 52.5981 40.443 51.8573 40.8328C51.0632 41.2616 50.23 41.6138 49.3691 41.8846C49.163 41.9535 48.9493 41.9969 48.7327 42.0137C48.5709 42.0219 48.49 42.0701 48.49 42.1564C48.49 42.2592 48.5564 42.3083 48.6855 42.3046C48.9163 42.3172 49.1448 42.3584 49.3655 42.4274C50.1259 42.606 50.8619 42.8761 51.5573 43.2319C52.0245 43.4669 52.4099 43.8377 52.6627 44.2955C52.8919 44.7907 53.0012 45.3329 52.9818 45.8783C52.9923 46.7258 52.7405 47.5558 52.2609 48.2546C51.76 48.9746 51.1163 49.5839 50.37 50.0446C49.5791 50.5428 48.7193 50.922 47.8182 51.1701C46.9306 51.4205 46.0132 51.5496 45.0909 51.5537C43.9803 51.5861 42.8758 51.3787 41.8527 50.9455C41.0504 50.6033 40.356 50.0497 39.8436 49.3437C39.3989 48.7187 39.1594 47.9708 39.1582 47.2037C39.1378 46.4552 39.4064 45.7276 39.9082 45.1719" fill="#AA8158"/>
<path d="M28.9355 25C28.9191 25.0709 28.9191 25.1163 28.9355 25.1363C28.9518 25.1563 29.0055 25.1672 29.1009 25.1672H29.6818C29.7991 25.1672 29.87 25.1827 29.8945 25.2127C29.9275 25.2826 29.9404 25.3604 29.9318 25.4372V25.8918C29.9318 25.9936 29.9164 26.0527 29.8864 26.0736C29.8227 26.0979 29.7543 26.1075 29.6864 26.1018H26.5745C26.5129 26.1045 26.4513 26.0959 26.3927 26.0763C26.3509 26.0609 26.3291 26.01 26.3291 25.9254V25.3272C26.3225 25.2824 26.3328 25.2367 26.3582 25.1991C26.3976 25.1758 26.4436 25.1662 26.4891 25.1718H27.0909C27.1755 25.1718 27.2236 25.1618 27.2364 25.1391C27.2553 25.0977 27.2684 25.054 27.2755 25.0091L28.1136 21.1C28.1327 20.9982 28.1273 20.9391 28.0973 20.9182C28.0295 20.8925 27.9567 20.8826 27.8845 20.8891H27.4755C27.4018 20.8891 27.3573 20.8791 27.3409 20.8582C27.3195 20.8145 27.311 20.7656 27.3164 20.7172V20.1118C27.3108 20.0688 27.3208 20.0253 27.3445 19.9891C27.3826 19.9656 27.4274 19.9557 27.4718 19.9609H30.8355C31.2641 19.9468 31.6918 20.0112 32.0973 20.1509C32.3867 20.2434 32.6375 20.4287 32.8109 20.6782C32.9843 20.9277 33.0706 21.2274 33.0564 21.5309C33.0683 21.8921 32.9792 22.2494 32.7991 22.5627C32.628 22.8426 32.3896 23.0751 32.1055 23.2391C31.8034 23.4142 31.4753 23.54 31.1336 23.6118C30.7752 23.6893 30.4095 23.7283 30.0427 23.7282H29.3918C29.2882 23.7282 29.2282 23.7427 29.21 23.7709C29.1858 23.824 29.1681 23.8799 29.1573 23.9372L28.9355 25ZM29.9827 22.7945C30.2248 22.7995 30.464 22.7409 30.6764 22.6245C30.8712 22.5173 31.0343 22.3605 31.1491 22.17C31.2635 21.9776 31.323 21.7575 31.3209 21.5336C31.3214 21.4235 31.2968 21.3147 31.2491 21.2154C31.2003 21.1157 31.1219 21.0335 31.0245 20.98C30.9028 20.916 30.7666 20.8847 30.6291 20.8891H29.9927C29.9018 20.8891 29.8409 20.8991 29.8245 20.9182C29.7989 20.9623 29.7822 21.0112 29.7755 21.0618L29.44 22.6445C29.4237 22.6835 29.4214 22.7268 29.4336 22.7672C29.4464 22.7863 29.4945 22.7954 29.5791 22.7954L29.9827 22.7945Z" fill="#AA8158"/>
<path d="M33.7273 23.4174C33.8733 23.0813 34.0847 22.7775 34.3491 22.5238C34.6218 22.2625 34.9434 22.0577 35.2955 21.921C35.6771 21.7732 36.0835 21.6994 36.4927 21.7038C36.8422 21.6958 37.1894 21.7627 37.5109 21.9001C37.7887 22.0214 38.0228 22.2247 38.1818 22.4829C38.3483 22.773 38.4305 23.1039 38.4191 23.4383C38.4223 23.8089 38.3496 24.1763 38.2054 24.5178C38.0613 24.8592 37.8487 25.1675 37.5809 25.4238C37.3081 25.6856 36.9862 25.8907 36.6336 26.0274C36.2524 26.1758 35.8463 26.2495 35.4373 26.2447C35.0875 26.2526 34.74 26.1857 34.4182 26.0483C34.1397 25.9269 33.905 25.7232 33.7455 25.4647C33.5773 25.1754 33.4944 24.8445 33.5064 24.5101C33.5037 24.1351 33.5789 23.7636 33.7273 23.4192M35.1364 25.1383C35.1605 25.2386 35.214 25.3295 35.29 25.3992C35.365 25.4595 35.4594 25.4902 35.5555 25.4856C35.7299 25.4817 35.8976 25.4174 36.03 25.3038C36.1969 25.164 36.3368 24.9948 36.4427 24.8047C36.572 24.5801 36.6704 24.3391 36.7355 24.0883C36.8085 23.8189 36.8452 23.541 36.8445 23.2619C36.8482 23.1115 36.8307 22.9612 36.7927 22.8156C36.7688 22.7151 36.7157 22.624 36.64 22.5538C36.5642 22.4946 36.4698 22.4643 36.3736 22.4683C36.1986 22.472 36.0303 22.5363 35.8973 22.6501C35.7291 22.789 35.5882 22.9579 35.4818 23.1483C35.3538 23.3725 35.2563 23.6128 35.1918 23.8629C35.1204 24.1331 35.0846 24.4115 35.0855 24.691C35.0816 24.8415 35.0988 24.9917 35.1364 25.1374" fill="#AA8158"/>
<path d="M41.2727 25.0001C41.2673 25.0246 41.2618 25.0519 41.2564 25.0828C41.2514 25.108 41.2486 25.1335 41.2482 25.1592C41.2455 25.1761 41.2468 25.1934 41.252 25.2097C41.2572 25.2261 41.266 25.241 41.2779 25.2533C41.2898 25.2656 41.3044 25.275 41.3205 25.2808C41.3367 25.2865 41.3539 25.2885 41.3709 25.2864C41.4902 25.2723 41.599 25.2115 41.6736 25.1174C41.8016 24.9764 41.9076 24.8171 41.9882 24.6446C42.0112 24.5906 42.0418 24.5401 42.0791 24.4946C42.1009 24.4746 42.1555 24.4846 42.2427 24.5255L42.5818 24.681C42.6609 24.7192 42.6927 24.7592 42.6727 24.8019C42.6485 24.8612 42.6212 24.9191 42.5909 24.9755C42.4117 25.3481 42.1469 25.673 41.8182 25.9237C41.5079 26.1541 41.131 26.277 40.7445 26.2737C40.4936 26.2881 40.2457 26.2134 40.0445 26.0628C39.9621 25.9954 39.8963 25.9099 39.8523 25.8129C39.8083 25.716 39.7873 25.6101 39.7909 25.5037C39.792 25.4289 39.8002 25.3543 39.8155 25.281C39.8318 25.1974 39.8455 25.1292 39.8564 25.0746L40.3682 22.8092C40.3887 22.7533 40.3921 22.6925 40.3782 22.6346C40.3627 22.6092 40.3009 22.5955 40.1964 22.5955H39.8082C39.7547 22.6029 39.7004 22.5913 39.6545 22.5628C39.6272 22.5142 39.6163 22.4581 39.6236 22.4028V22.0064C39.6236 21.9328 39.6355 21.8883 39.6609 21.871C39.7058 21.8513 39.7548 21.8432 39.8036 21.8474H41.7882C41.9155 21.8474 41.9891 21.8592 42.0091 21.8819C42.0291 21.9046 42.0218 21.9728 41.9918 22.0801L41.2727 25.0001ZM40.9327 19.8746C41.1054 19.7443 41.3159 19.6738 41.5323 19.6738C41.7486 19.6738 41.9591 19.7443 42.1318 19.8746C42.2105 19.945 42.2734 20.0311 42.3165 20.1275C42.3596 20.2238 42.3819 20.3282 42.3819 20.4337C42.3819 20.5393 42.3596 20.6436 42.3165 20.74C42.2734 20.8363 42.2105 20.9225 42.1318 20.9928C41.9596 21.1243 41.7489 21.1955 41.5323 21.1955C41.3156 21.1955 41.105 21.1243 40.9327 20.9928C40.8543 20.9223 40.7916 20.8361 40.7487 20.7398C40.7057 20.6435 40.6835 20.5392 40.6835 20.4337C40.6835 20.3283 40.7057 20.224 40.7487 20.1277C40.7916 20.0313 40.8543 19.9451 40.9327 19.8746Z" fill="#AA8158"/>
<path d="M45.8391 21.8464C45.8933 21.8404 45.9481 21.8508 45.9964 21.8764C46.0191 21.8973 46.0227 21.9409 46.0073 22.0055L45.8555 22.6418C45.8273 22.7536 45.8236 22.8136 45.8455 22.8236C45.8673 22.8336 45.9182 22.78 46.0027 22.6655C46.2007 22.3822 46.452 22.1404 46.7427 21.9536C46.9984 21.7957 47.2931 21.7126 47.5936 21.7136C47.7606 21.7136 47.9267 21.7368 48.0873 21.7827C48.2448 21.8268 48.3884 21.9104 48.5045 22.0255C48.628 22.1589 48.7035 22.3297 48.7191 22.5109C48.7377 22.7827 48.7 23.0553 48.6082 23.3118L48.1045 24.9655C48.0869 25.0196 48.0763 25.0758 48.0727 25.1327C48.0701 25.1496 48.0714 25.1669 48.0765 25.1833C48.0817 25.1996 48.0906 25.2145 48.1025 25.2269C48.1144 25.2392 48.1289 25.2486 48.1451 25.2543C48.1612 25.2601 48.1784 25.262 48.1955 25.26C48.3155 25.2457 48.4253 25.1854 48.5018 25.0918C48.6409 24.9402 48.7557 24.7678 48.8418 24.5809C48.8596 24.5355 48.8884 24.4953 48.9255 24.4636C48.9545 24.4427 48.9991 24.4464 49.0582 24.4745L49.3855 24.6373C49.4673 24.6755 49.5091 24.7082 49.51 24.7364C49.5027 24.7937 49.4842 24.849 49.4555 24.8991C49.2786 25.2818 49.0127 25.6166 48.68 25.8755C48.3682 26.1177 47.9839 26.2481 47.5891 26.2455C47.3303 26.2638 47.0731 26.1915 46.8618 26.0409C46.7834 25.9801 46.7203 25.9019 46.6775 25.8124C46.6348 25.7229 46.6135 25.6246 46.6155 25.5255C46.6151 25.4602 46.6209 25.3951 46.6327 25.3309C46.6433 25.2709 46.6579 25.2117 46.6764 25.1536L47.1264 23.5173C47.1749 23.3558 47.2123 23.1912 47.2382 23.0245C47.262 22.9148 47.2521 22.8004 47.21 22.6964C47.1861 22.6564 47.1511 22.6243 47.1094 22.6038C47.0676 22.5833 47.0208 22.5754 46.9745 22.5809C46.8154 22.5902 46.6643 22.6544 46.5473 22.7627C46.3805 22.9039 46.2345 23.068 46.1136 23.25C45.9666 23.4653 45.84 23.6939 45.7355 23.9327C45.6238 24.1832 45.5377 24.4442 45.4782 24.7118L45.2055 25.9027C45.1948 25.9597 45.1701 26.0131 45.1336 26.0582C45.0767 26.0927 45.0098 26.1071 44.9436 26.0991H43.9618C43.8273 26.0991 43.7536 26.0836 43.74 26.0536C43.7275 25.9882 43.7319 25.9206 43.7527 25.8573L44.46 22.8018C44.4791 22.7109 44.4809 22.6509 44.46 22.6273C44.4391 22.6036 44.3773 22.5927 44.2609 22.5927H43.9582C43.8755 22.5927 43.8255 22.5809 43.8064 22.5555C43.7819 22.5091 43.7718 22.4566 43.7773 22.4045V22.02C43.7714 21.9699 43.7809 21.9191 43.8045 21.8745C43.8218 21.8545 43.8664 21.8445 43.9373 21.8445L45.8391 21.8464Z" fill="#AA8158"/>
<path d="M51.4927 21.8465C51.5636 21.8465 51.6036 21.8365 51.6136 21.8174C51.6282 21.7817 51.6397 21.7449 51.6482 21.7074L51.7627 21.221C51.7698 21.1833 51.7894 21.1491 51.8182 21.1238C51.8525 21.105 51.8909 21.0947 51.93 21.0938C52.1085 21.089 52.2852 21.0565 52.4536 20.9974C52.5612 20.9578 52.6652 20.9092 52.7645 20.8519C52.798 20.8274 52.8329 20.8049 52.8691 20.7847C52.8937 20.7716 52.9212 20.7647 52.9491 20.7647C52.9782 20.7647 53.0282 20.7647 53.0964 20.7647C53.1541 20.7604 53.2121 20.7672 53.2673 20.7847C53.2973 20.7983 53.3045 20.8365 53.2882 20.8992L53.0964 21.6929C53.0805 21.733 53.0761 21.7767 53.0836 21.8192C53.0918 21.8383 53.1355 21.8483 53.2145 21.8483H53.8509C53.894 21.8451 53.9373 21.852 53.9773 21.8683C54.0027 21.8819 54.0136 21.9219 54.0136 21.9865V22.4038C54.0197 22.4582 54.0115 22.5134 53.99 22.5638C53.9736 22.5865 53.9245 22.5965 53.8427 22.5965H53C52.9345 22.5965 52.8927 22.6065 52.8755 22.6274C52.8528 22.6582 52.8381 22.6941 52.8327 22.7319L52.2918 24.8965C52.2782 24.9529 52.2673 25.011 52.2573 25.0719C52.2468 25.1225 52.2516 25.175 52.2709 25.2229C52.2909 25.2638 52.3355 25.2838 52.4064 25.2838C52.5193 25.2777 52.6255 25.2282 52.7027 25.1456C52.8233 25.0265 52.9273 24.8916 53.0118 24.7447C53.0366 24.7019 53.0672 24.6627 53.1027 24.6283C53.1309 24.6019 53.1745 24.6019 53.2309 24.6283L53.5545 24.791C53.6227 24.8265 53.6591 24.8565 53.6655 24.8819C53.6645 24.9338 53.6518 24.9848 53.6282 25.031C53.4862 25.3927 53.2396 25.7038 52.92 25.9247C52.5931 26.145 52.206 26.2587 51.8118 26.2501C51.6585 26.2662 51.5034 26.249 51.3573 26.2C51.2111 26.1509 51.0771 26.0709 50.9645 25.9656C50.8796 25.8514 50.823 25.7186 50.7997 25.5782C50.7763 25.4378 50.7867 25.2939 50.83 25.1583L51.4064 22.7683C51.4161 22.726 51.4198 22.6825 51.4173 22.6392C51.4173 22.611 51.3709 22.5965 51.2918 22.5965H50.8791C50.8277 22.599 50.7765 22.59 50.7291 22.5701C50.6955 22.5519 50.6782 22.5074 50.6782 22.4338V22.0165C50.6782 21.9374 50.6964 21.8892 50.7318 21.8719C50.7828 21.8538 50.8368 21.8458 50.8909 21.8483L51.4927 21.8465Z" fill="#AA8158"/>
</g>
<mask id="mask1_79_896" style="mask-type:luminance" maskUnits="userSpaceOnUse" x="0" y="0" width="80" height="80">
<path d="M80 0H0V80H80V0Z" fill="white"/>
</mask>
<g mask="url(#mask1_79_896)">
<path d="M76.8673 24.4845C73.0195 15.3446 65.9128 7.96054 56.9268 3.76587C47.9409 -0.42881 37.7169 -1.13483 28.2396 1.78488C18.7624 4.70458 10.7082 11.0417 5.64064 19.5659C0.573084 28.0901 -1.14625 38.1933 0.816444 47.9139C2.77913 57.6345 8.28381 66.279 16.2618 72.1692C24.2398 78.0594 34.1218 80.775 43.9894 79.7888C53.857 78.8026 63.0062 74.1849 69.6606 66.8323C76.315 59.4797 80 49.9167 80 39.9999C80 34.671 78.9349 29.3959 76.8673 24.4845ZM64.8873 60.5454C63.1795 61.6011 61.7406 63.0396 60.6845 64.7472C58.5239 68.2538 55.5014 71.1489 51.905 73.1565C48.3085 75.1642 44.2579 76.2175 40.1391 76.2163H39.9655C35.8466 76.2175 31.796 75.1642 28.1996 73.1565C24.6031 71.1489 21.5806 68.2538 19.42 64.7472C18.362 63.0387 16.9206 61.6001 15.21 60.5454C11.7041 58.3839 8.80962 55.3612 6.80201 51.765C4.79441 48.1687 3.74046 44.1186 3.74046 39.9999C3.74046 35.8812 4.79441 31.8311 6.80201 28.2348C8.80962 24.6386 11.7041 21.6159 15.21 19.4545C16.9178 18.3987 18.3566 16.9602 19.4127 15.2526C21.5735 11.7449 24.5966 8.84905 28.1939 6.84104C31.7912 4.83302 35.8429 3.77979 39.9627 3.78172H40.1364C44.2552 3.78038 48.3059 4.8337 51.9023 6.84135C55.4988 8.849 58.5213 11.7441 60.6818 15.2508C61.7386 16.9593 63.1784 18.3984 64.8873 19.4545C68.3932 21.6159 71.2877 24.6386 73.2953 28.2348C75.3029 31.8311 76.3568 35.8812 76.3568 39.9999C76.3568 44.1186 75.3029 48.1687 73.2953 51.765C71.2877 55.3612 68.3932 58.3839 64.8873 60.5454Z" fill="#AA8158"/>
<path d="M60.24 64.14C61.2482 62.5128 62.6195 61.1412 64.2464 60.1327C67.683 58.0154 70.5205 55.0537 72.4887 51.5295C74.4568 48.0053 75.4901 44.036 75.4901 39.9995C75.4901 35.963 74.4568 31.9937 72.4887 28.4695C70.5205 24.9453 67.683 21.9836 64.2464 19.8663C62.6174 18.8573 61.2445 17.4844 60.2355 15.8554C58.1174 12.4188 55.155 9.58147 51.6304 7.61347C48.1057 5.64547 44.136 4.6123 40.0991 4.6123C36.0622 4.6123 32.0925 5.64547 28.5678 7.61347C25.0431 9.58147 22.0808 12.4188 19.9627 15.8554C18.9566 17.4833 17.5876 18.8563 15.9627 19.8672C12.5261 21.9845 9.68856 24.9462 7.72042 28.4704C5.75228 31.9946 4.71902 35.9639 4.71902 40.0004C4.71902 44.0369 5.75228 48.0062 7.72042 51.5304C9.68856 55.0546 12.5261 58.0163 15.9627 60.1336C17.5907 61.1417 18.9631 62.5129 19.9727 64.14C22.0908 67.5766 25.0531 70.4139 28.5778 72.3819C32.1025 74.3499 36.0722 75.3831 40.1091 75.3831C44.146 75.3831 48.1157 74.3499 51.6404 72.3819C55.165 70.4139 58.1274 67.5766 60.2455 64.14M51.5891 71.909C46.3586 74.8848 40.1771 75.7139 34.3473 74.2215C28.5175 72.7292 23.4947 69.032 20.3373 63.909C19.2912 62.2239 17.8688 60.804 16.1818 59.7609C12.8079 57.6823 10.0223 54.7746 8.09012 51.3148C6.15794 47.855 5.14356 43.9582 5.14356 39.9954C5.14356 36.0326 6.15794 32.1358 8.09012 28.676C10.0223 25.2162 12.8079 22.3085 16.1818 20.23C17.8672 19.1868 19.2883 17.7676 20.3336 16.0836C22.413 12.71 25.3211 9.92465 28.7813 7.99273C32.2414 6.06081 36.1384 5.04659 40.1014 5.04659C44.0643 5.04659 47.9613 6.06081 51.4215 7.99273C54.8816 9.92465 57.7898 12.71 59.8691 16.0836C60.9138 17.7678 62.3342 19.1873 64.0191 20.2309C67.3932 22.3093 70.179 25.2169 72.1114 28.6767C74.0437 32.1365 75.0582 36.0334 75.0582 39.9963C75.0582 43.9592 74.0437 47.8561 72.1114 51.3159C70.179 54.7758 67.3932 57.6833 64.0191 59.7618C62.3353 60.8058 60.9158 62.2252 59.8718 63.909C57.82 67.2243 54.9722 69.9743 51.5873 71.909" fill="#AA8158"/>
</g>
</g>
<defs>
<clipPath id="clip0_79_896">
<rect width="80" height="80" fill="white"/>
</clipPath>
</defs>
</svg>
