<svg width="80" height="80" viewBox="0 0 80 80" fill="none" xmlns="http://www.w3.org/2000/svg">
<g clip-path="url(#clip0_79_859)">
<mask id="mask0_79_859" style="mask-type:luminance" maskUnits="userSpaceOnUse" x="0" y="0" width="80" height="80">
<path d="M80 0H0V80H80V0Z" fill="white"/>
</mask>
<g mask="url(#mask0_79_859)">
<path d="M23.5964 38.2038C24.0893 37.1567 24.7633 36.2048 25.5873 35.392C26.3055 34.6999 27.1639 34.1701 28.1045 33.8384C29.0726 33.5077 30.0898 33.3436 31.1127 33.3529C32.0973 33.3367 33.0766 33.5012 34.0018 33.8384C34.8229 34.141 35.5348 34.682 36.0464 35.392C36.605 36.2286 36.9296 37.1994 36.9864 38.2038C37.0726 39.6337 36.933 41.0683 36.5727 42.4547C36.1961 44.3403 35.4983 46.1472 34.51 47.7965C33.7777 49.0054 32.7378 49.9982 31.4964 50.6738C30.331 51.266 29.0399 51.5682 27.7327 51.5547C26.7771 51.5653 25.8275 51.4011 24.9309 51.0702C24.0988 50.7613 23.3716 50.2225 22.8336 49.5165C22.2422 48.6886 21.8831 47.7174 21.7936 46.7038C21.6691 45.2771 21.7921 43.8395 22.1573 42.4547C22.4731 40.9877 22.9569 39.5619 23.5991 38.2056M26.4291 46.5147C26.3219 47.1947 26.4206 47.8913 26.7127 48.5147C26.8351 48.6992 27.0039 48.8482 27.202 48.9468C27.4002 49.0454 27.6209 49.0902 27.8418 49.0765C28.3739 49.0778 28.8861 48.8748 29.2727 48.5093C29.8075 47.9375 30.2092 47.2545 30.4491 46.5093C30.9264 45.1853 31.3139 43.8308 31.6091 42.4547C31.9404 41.1194 32.1791 39.7629 32.3236 38.3947C32.4426 37.7177 32.3542 37.0206 32.07 36.3947C31.9397 36.2055 31.7619 36.0539 31.5544 35.9553C31.347 35.8567 31.1172 35.8144 30.8882 35.8329C30.3725 35.8372 29.878 36.0382 29.5054 36.3947C28.9636 36.9662 28.5523 37.6486 28.3 38.3947C27.8057 39.7168 27.4107 41.0739 27.1182 42.4547C26.784 43.7884 26.5527 45.1457 26.4264 46.5147" fill="#AA8158"/>
<path d="M53.8445 48.58C53.2461 49.4811 52.4474 50.2316 51.5109 50.7728C50.6119 51.2882 49.5927 51.5573 48.5564 51.5528C47.937 51.5612 47.3192 51.4897 46.7182 51.34C46.2237 51.2111 45.7396 51.0452 45.27 50.8437C44.8373 50.6546 44.4197 50.4888 44.0173 50.3464C43.6148 50.2051 43.1911 50.1335 42.7645 50.1346C42.4686 50.1236 42.1757 50.1971 41.92 50.3464C41.6964 50.4877 41.5117 50.6827 41.3827 50.9137C41.2918 51.0719 41.2227 51.1782 41.1873 51.2337C41.1518 51.2891 41 51.3164 40.7327 51.3164H39.0536C38.9032 51.3338 38.7509 51.3049 38.6173 51.2337C38.5545 51.1782 38.5264 51.04 38.5264 50.82C38.5428 50.0695 38.7159 49.3307 39.0345 48.6509C39.4053 47.8298 39.8732 47.0561 40.4282 46.3464C41.0361 45.5612 41.721 44.8389 42.4727 44.19C43.2312 43.5302 44.0598 42.9555 44.9436 42.4764C45.6212 42.1128 46.3242 41.7288 47.0527 41.3246C47.7531 40.9363 48.4317 40.5099 49.0855 40.0473C49.6561 39.6536 50.1707 39.1845 50.6155 38.6528C50.9854 38.2322 51.195 37.6946 51.2073 37.1346C51.2249 36.8862 51.1807 36.6374 51.0785 36.4103C50.9764 36.1833 50.8194 35.9851 50.6218 35.8337C50.0466 35.5043 49.3853 35.3563 48.7245 35.4091C48.2024 35.4109 47.6818 35.466 47.1709 35.5737C46.7084 35.6632 46.2567 35.8018 45.8236 35.9873C45.46 36.1537 45.2782 36.3237 45.2782 36.4964C45.2782 36.5982 45.3755 36.6873 45.5682 36.7619C45.7609 36.8364 45.9836 36.9373 46.2364 37.0637C46.5047 37.2042 46.734 37.4091 46.9036 37.66C47.1142 38.0146 47.2113 38.4251 47.1818 38.8364C47.202 39.1783 47.1414 39.5201 47.005 39.8343C46.8685 40.1484 46.66 40.426 46.3964 40.6446C45.8866 41.0567 45.2491 41.2782 44.5936 41.2709C44.1332 41.2723 43.6784 41.1691 43.2636 40.9691C42.8421 40.769 42.4857 40.4539 42.2355 40.06C41.9565 39.5995 41.8189 39.0672 41.84 38.5291C41.831 37.7455 42.0823 36.981 42.5545 36.3555C43.0717 35.6812 43.7277 35.1259 44.4782 34.7273C45.3281 34.2645 46.2379 33.9212 47.1818 33.7073C48.1888 33.4702 49.22 33.3512 50.2545 33.3528C51.3041 33.337 52.3516 33.45 53.3736 33.6891C54.1727 33.8586 54.8997 34.2715 55.4545 34.871C55.9841 35.5477 56.2467 36.3952 56.1927 37.2528C56.202 37.8835 56.0184 38.502 55.6664 39.0255C55.2844 39.5774 54.8058 40.0557 54.2536 40.4373C53.6277 40.8798 52.9636 41.2656 52.2691 41.59C51.5364 41.9367 50.7818 42.2655 50.0055 42.5764C49.2291 42.8873 48.4864 43.2006 47.7773 43.5164C47.1161 43.8079 46.5018 44.1073 45.9345 44.4146C45.3673 44.7219 44.8688 45.0213 44.4391 45.3128C44.0791 45.5508 43.7373 45.8151 43.4164 46.1037C43.1979 46.3155 42.9909 46.5388 42.7964 46.7728C42.6168 46.9806 42.4531 47.2015 42.3064 47.4337C42.1882 47.6273 42.1718 47.7346 42.2591 47.7591C42.324 47.7785 42.3936 47.7756 42.4567 47.7509C42.5198 47.7262 42.5728 47.6811 42.6073 47.6228C42.7055 47.4937 42.8364 47.3173 42.9973 47.0973C43.2024 46.8356 43.4479 46.6082 43.7245 46.4237C44.0981 46.1759 44.5191 46.0087 44.9609 45.9328C45.4054 45.8351 45.8586 45.7818 46.3136 45.7737C46.7369 45.7631 47.1592 45.8167 47.5664 45.9328C47.8759 46.0322 48.1779 46.1538 48.47 46.2964C48.7516 46.4362 49.0419 46.5577 49.3391 46.66C49.7059 46.7754 50.0892 46.8294 50.4736 46.82C51.0358 46.8377 51.5913 46.6942 52.0745 46.4064C52.2772 46.2895 52.4516 46.1293 52.5853 45.9373C52.7191 45.7453 52.8088 45.5261 52.8482 45.2955C52.8622 45.1414 52.8984 44.9902 52.9555 44.8464C52.9864 44.7991 53.1445 44.7755 53.4282 44.7755H54.6809C54.8426 44.7551 55.0068 44.7819 55.1536 44.8528C55.2082 44.9037 55.2127 45.051 55.1645 45.2955C54.959 46.4721 54.5103 47.5929 53.8473 48.5864" fill="#AA8158"/>
<path d="M28.9354 25C28.9191 25.0709 28.9191 25.1163 28.9354 25.1363C28.9518 25.1563 29.0054 25.1672 29.1009 25.1672H29.6818C29.7991 25.1672 29.87 25.1827 29.8945 25.2127C29.9275 25.2826 29.9404 25.3604 29.9318 25.4372V25.8918C29.9318 25.9936 29.9163 26.0527 29.8863 26.0736C29.8226 26.0979 29.7543 26.1075 29.6863 26.1018H26.5745C26.5129 26.1045 26.4513 26.0959 26.3927 26.0763C26.3509 26.0609 26.3291 26.01 26.3291 25.9254V25.3272C26.3224 25.2824 26.3328 25.2367 26.3582 25.1991C26.3976 25.1758 26.4436 25.1662 26.4891 25.1718H27.0909C27.1754 25.1718 27.2236 25.1618 27.2363 25.1391C27.2552 25.0977 27.2684 25.054 27.2754 25.0091L28.1136 21.1C28.1327 20.9982 28.1273 20.9391 28.0973 20.9182C28.0294 20.8925 27.9567 20.8826 27.8845 20.8891H27.4754C27.4018 20.8891 27.3573 20.8791 27.3409 20.8582C27.3195 20.8145 27.311 20.7656 27.3163 20.7172V20.1118C27.3108 20.0688 27.3208 20.0253 27.3445 19.9891C27.3826 19.9656 27.4274 19.9557 27.4718 19.9609H30.8354C31.2641 19.9468 31.6917 20.0112 32.0973 20.1509C32.3867 20.2434 32.6375 20.4287 32.8109 20.6782C32.9843 20.9277 33.0706 21.2274 33.0563 21.5309C33.0683 21.8921 32.9792 22.2494 32.7991 22.5627C32.628 22.8426 32.3895 23.0751 32.1054 23.2391C31.8034 23.4142 31.4753 23.54 31.1336 23.6118C30.7752 23.6893 30.4095 23.7283 30.0427 23.7282H29.3918C29.2882 23.7282 29.2282 23.7427 29.21 23.7709C29.1858 23.824 29.1681 23.8799 29.1573 23.9372L28.9354 25ZM29.9827 22.7945C30.2248 22.7995 30.464 22.7409 30.6763 22.6245C30.8712 22.5173 31.0343 22.3605 31.1491 22.17C31.2635 21.9776 31.3229 21.7575 31.3209 21.5336C31.3213 21.4235 31.2968 21.3147 31.2491 21.2154C31.2003 21.1157 31.1218 21.0335 31.0245 20.98C30.9028 20.916 30.7665 20.8847 30.6291 20.8891H29.9927C29.9018 20.8891 29.8409 20.8991 29.8245 20.9182C29.7989 20.9623 29.7822 21.0112 29.7754 21.0618L29.44 22.6445C29.4237 22.6835 29.4214 22.7268 29.4336 22.7672C29.4463 22.7863 29.4945 22.7954 29.5791 22.7954L29.9827 22.7945Z" fill="#AA8158"/>
<path d="M33.7273 23.4164C33.8733 23.0803 34.0847 22.7766 34.3491 22.5228C34.6218 22.2616 34.9434 22.0568 35.2954 21.9201C35.6771 21.7722 36.0834 21.6985 36.4927 21.7028C36.8422 21.6948 37.1894 21.7617 37.5109 21.8992C37.7887 22.0204 38.0228 22.2238 38.1818 22.4819C38.3483 22.7721 38.4305 23.103 38.4191 23.4373C38.4223 23.808 38.3495 24.1753 38.2054 24.5168C38.0612 24.8582 37.8487 25.1666 37.5809 25.4228C37.3081 25.6846 36.9862 25.8898 36.6336 26.0264C36.2524 26.1748 35.8463 26.2486 35.4373 26.2437C35.0875 26.2516 34.74 26.1847 34.4182 26.0473C34.1397 25.9259 33.905 25.7222 33.7454 25.4637C33.5773 25.1745 33.4944 24.8435 33.5064 24.5092C33.5037 24.1341 33.5789 23.7627 33.7273 23.4182M35.1364 25.1373C35.1605 25.2377 35.2139 25.3285 35.29 25.3982C35.365 25.4585 35.4594 25.4892 35.5554 25.4846C35.7299 25.4807 35.8976 25.4164 36.03 25.3028C36.1969 25.163 36.3368 24.9939 36.4427 24.8037C36.572 24.5791 36.6704 24.3382 36.7354 24.0873C36.8085 23.818 36.8451 23.5401 36.8445 23.261C36.8482 23.1105 36.8307 22.9602 36.7927 22.8146C36.7688 22.7141 36.7157 22.623 36.64 22.5528C36.5642 22.4936 36.4697 22.4633 36.3736 22.4673C36.1986 22.4711 36.0303 22.5353 35.8973 22.6492C35.7291 22.788 35.5882 22.9569 35.4818 23.1473C35.3538 23.3716 35.2563 23.6119 35.1918 23.8619C35.1204 24.1321 35.0846 24.4105 35.0854 24.6901C35.0816 24.8405 35.0988 24.9916 35.1364 25.1373Z" fill="#AA8158"/>
<path d="M41.2727 25.0001C41.2673 25.0246 41.2618 25.0519 41.2563 25.0828C41.2513 25.108 41.2486 25.1335 41.2482 25.1592C41.2455 25.1761 41.2468 25.1934 41.252 25.2097C41.2571 25.2261 41.266 25.241 41.2779 25.2533C41.2898 25.2656 41.3044 25.275 41.3205 25.2808C41.3366 25.2865 41.3539 25.2885 41.3709 25.2864C41.4902 25.2723 41.599 25.2115 41.6736 25.1174C41.8016 24.9764 41.9076 24.8171 41.9882 24.6446C42.0112 24.5906 42.0418 24.5401 42.0791 24.4946C42.1009 24.4746 42.1554 24.4846 42.2427 24.5255L42.5818 24.681C42.6609 24.7192 42.6927 24.7592 42.6727 24.8019C42.6485 24.8612 42.6212 24.9191 42.5909 24.9755C42.4115 25.3478 42.1468 25.6723 41.8182 25.9228C41.5079 26.1532 41.131 26.2761 40.7445 26.2728C40.4936 26.2872 40.2457 26.2125 40.0445 26.0619C39.9621 25.9945 39.8963 25.909 39.8523 25.812C39.8083 25.7151 39.7873 25.6092 39.7909 25.5028C39.792 25.428 39.8002 25.3534 39.8154 25.2801C39.8318 25.1964 39.8454 25.1283 39.8563 25.0737L40.3682 22.8083C40.3886 22.7523 40.3921 22.6916 40.3782 22.6337C40.3627 22.6083 40.3009 22.5946 40.1963 22.5946H39.8082C39.7547 22.602 39.7003 22.5904 39.6545 22.5619C39.6272 22.5133 39.6163 22.4572 39.6236 22.4019V22.0055C39.6236 21.9319 39.6354 21.8874 39.6609 21.8701C39.7057 21.8504 39.7548 21.8423 39.8036 21.8464H41.7882C41.9154 21.8464 41.9891 21.8583 42.0091 21.881C42.0291 21.9037 42.0218 21.9719 41.9918 22.0792L41.2727 25.0001ZM40.9327 19.8746C41.1054 19.7443 41.3159 19.6738 41.5323 19.6738C41.7486 19.6738 41.9591 19.7443 42.1318 19.8746C42.2105 19.945 42.2734 20.0311 42.3165 20.1275C42.3596 20.2238 42.3819 20.3282 42.3819 20.4337C42.3819 20.5393 42.3596 20.6436 42.3165 20.74C42.2734 20.8363 42.2105 20.9225 42.1318 20.9928C41.9596 21.1243 41.7489 21.1955 41.5323 21.1955C41.3156 21.1955 41.1049 21.1243 40.9327 20.9928C40.8543 20.9223 40.7916 20.8361 40.7486 20.7398C40.7057 20.6435 40.6835 20.5392 40.6835 20.4337C40.6835 20.3283 40.7057 20.224 40.7486 20.1277C40.7916 20.0313 40.8543 19.9451 40.9327 19.8746Z" fill="#AA8158"/>
<path d="M45.8391 21.8464C45.8933 21.8404 45.9481 21.8508 45.9964 21.8764C46.0191 21.8973 46.0227 21.9409 46.0073 22.0055L45.8554 22.6418C45.8273 22.7536 45.8236 22.8136 45.8454 22.8236C45.8673 22.8336 45.9182 22.78 46.0027 22.6655C46.2007 22.3822 46.452 22.1404 46.7427 21.9536C46.9984 21.7957 47.2931 21.7126 47.5936 21.7136C47.7606 21.7136 47.9267 21.7368 48.0873 21.7827C48.2447 21.8268 48.3884 21.9104 48.5045 22.0255C48.628 22.1589 48.7035 22.3297 48.7191 22.5109C48.7377 22.7827 48.7 23.0553 48.6082 23.3118L48.1045 24.9655C48.0869 25.0196 48.0762 25.0758 48.0727 25.1327C48.0701 25.1496 48.0714 25.1669 48.0765 25.1833C48.0817 25.1996 48.0906 25.2145 48.1025 25.2269C48.1143 25.2392 48.1289 25.2486 48.1451 25.2543C48.1612 25.2601 48.1784 25.262 48.1954 25.26C48.3155 25.2457 48.4253 25.1854 48.5018 25.0918C48.6409 24.9402 48.7556 24.7678 48.8418 24.5809C48.8596 24.5355 48.8883 24.4953 48.9254 24.4636C48.9545 24.4427 48.9991 24.4464 49.0582 24.4745L49.3854 24.6373C49.4673 24.6755 49.5091 24.7082 49.51 24.7364C49.5027 24.7937 49.4842 24.849 49.4554 24.8991C49.2786 25.2818 49.0127 25.6166 48.68 25.8755C48.3682 26.1177 47.9839 26.2481 47.5891 26.2455C47.3303 26.2638 47.0731 26.1915 46.8618 26.0409C46.7834 25.9801 46.7203 25.9019 46.6775 25.8124C46.6348 25.7229 46.6135 25.6246 46.6154 25.5255C46.6151 25.4602 46.6209 25.3951 46.6327 25.3309C46.6433 25.2709 46.6579 25.2117 46.6764 25.1536L47.1264 23.5173C47.1749 23.3558 47.2122 23.1912 47.2382 23.0245C47.262 22.9148 47.2521 22.8004 47.21 22.6964C47.1861 22.6564 47.1511 22.6243 47.1094 22.6038C47.0676 22.5833 47.0207 22.5754 46.9745 22.5809C46.8154 22.5902 46.6643 22.6544 46.5473 22.7627C46.3805 22.9039 46.2345 23.068 46.1136 23.25C45.9666 23.4653 45.84 23.6939 45.7354 23.9327C45.6238 24.1832 45.5376 24.4442 45.4782 24.7118L45.2054 25.9027C45.1948 25.9597 45.1701 26.0131 45.1336 26.0582C45.0767 26.0927 45.0098 26.1071 44.9436 26.0991H43.9618C43.8273 26.0991 43.7536 26.0836 43.74 26.0536C43.7275 25.9882 43.7319 25.9206 43.7527 25.8573L44.46 22.8018C44.4791 22.7109 44.4809 22.6509 44.46 22.6273C44.4391 22.6036 44.3773 22.5927 44.2609 22.5927H43.9582C43.8754 22.5927 43.8254 22.5809 43.8064 22.5555C43.7819 22.5091 43.7718 22.4566 43.7773 22.4045V22.02C43.7714 21.9699 43.7809 21.9191 43.8045 21.8745C43.8218 21.8545 43.8664 21.8445 43.9373 21.8445L45.8391 21.8464Z" fill="#AA8158"/>
<path d="M51.4927 21.8465C51.5636 21.8465 51.6036 21.8365 51.6136 21.8174C51.6281 21.7817 51.6397 21.7449 51.6482 21.7074L51.7627 21.221C51.7698 21.1833 51.7893 21.1491 51.8182 21.1238C51.8525 21.105 51.8909 21.0947 51.93 21.0938C52.1085 21.089 52.2851 21.0565 52.4536 20.9974C52.5612 20.9578 52.6652 20.9092 52.7645 20.8519C52.7979 20.8274 52.8329 20.8049 52.8691 20.7847C52.8937 20.7716 52.9212 20.7647 52.9491 20.7647C52.9782 20.7647 53.0282 20.7647 53.0963 20.7647C53.1541 20.7604 53.2121 20.7672 53.2673 20.7847C53.2973 20.7983 53.3045 20.8365 53.2882 20.8992L53.0963 21.6929C53.0805 21.733 53.0761 21.7767 53.0836 21.8192C53.0918 21.8383 53.1354 21.8483 53.2145 21.8483H53.8509C53.894 21.8451 53.9372 21.852 53.9773 21.8683C54.0027 21.8819 54.0136 21.9219 54.0136 21.9865V22.4038C54.0197 22.4582 54.0115 22.5134 53.99 22.5638C53.9736 22.5865 53.9245 22.5965 53.8427 22.5965H53C52.9345 22.5965 52.8927 22.6065 52.8754 22.6274C52.8528 22.6582 52.8381 22.6941 52.8327 22.7319L52.2918 24.8965C52.2782 24.9529 52.2673 25.011 52.2573 25.0719C52.2468 25.1225 52.2516 25.175 52.2709 25.2229C52.2909 25.2638 52.3354 25.2838 52.4063 25.2838C52.5193 25.2777 52.6255 25.2282 52.7027 25.1456C52.8233 25.0265 52.9273 24.8916 53.0118 24.7447C53.0366 24.7019 53.0672 24.6627 53.1027 24.6283C53.1309 24.6019 53.1745 24.6019 53.2309 24.6283L53.5545 24.791C53.6227 24.8265 53.6591 24.8565 53.6654 24.8819C53.6645 24.9338 53.6518 24.9848 53.6282 25.031C53.4862 25.3927 53.2396 25.7038 52.92 25.9247C52.5931 26.145 52.2059 26.2587 51.8118 26.2501C51.6584 26.2662 51.5034 26.249 51.3572 26.2C51.2111 26.1509 51.0771 26.0709 50.9645 25.9656C50.8796 25.8514 50.823 25.7186 50.7996 25.5782C50.7762 25.4378 50.7866 25.2939 50.83 25.1583L51.4063 22.7683C51.4161 22.726 51.4198 22.6825 51.4173 22.6392C51.4173 22.611 51.3709 22.5965 51.2918 22.5965H50.8791C50.8277 22.599 50.7765 22.59 50.7291 22.5701C50.6954 22.5519 50.6782 22.5074 50.6782 22.4338V22.0165C50.6782 21.9374 50.6963 21.8892 50.7318 21.8719C50.7828 21.8538 50.8368 21.8458 50.8909 21.8483L51.4927 21.8465Z" fill="#AA8158"/>
</g>
<mask id="mask1_79_859" style="mask-type:luminance" maskUnits="userSpaceOnUse" x="0" y="0" width="80" height="80">
<path d="M80 0H0V80H80V0Z" fill="white"/>
</mask>
<g mask="url(#mask1_79_859)">
<path d="M76.8673 24.4845C73.0195 15.3446 65.9128 7.96054 56.9269 3.76587C47.9409 -0.42881 37.7169 -1.13483 28.2397 1.78488C18.7624 4.70458 10.7082 11.0417 5.64065 19.5659C0.573092 28.0901 -1.14624 38.1933 0.816452 47.9139C2.77914 57.6345 8.28382 66.279 16.2618 72.1692C24.2398 78.0594 34.1218 80.775 43.9894 79.7888C53.857 78.8026 63.0062 74.1849 69.6606 66.8323C76.315 59.4797 80 49.9167 80 39.9999C80 34.671 78.9349 29.3959 76.8673 24.4845ZM64.8873 60.5454C63.1795 61.6011 61.7406 63.0396 60.6846 64.7472C58.5239 68.2538 55.5014 71.1489 51.905 73.1565C48.3085 75.1642 44.258 76.2175 40.1391 76.2163H39.9655C35.8466 76.2175 31.796 75.1642 28.1996 73.1565C24.6031 71.1489 21.5806 68.2538 19.42 64.7472C18.362 63.0387 16.9206 61.6001 15.21 60.5454C11.7041 58.3839 8.80963 55.3612 6.80202 51.765C4.79441 48.1687 3.74046 44.1186 3.74046 39.9999C3.74046 35.8812 4.79441 31.8311 6.80202 28.2348C8.80963 24.6386 11.7041 21.6159 15.21 19.4545C16.9178 18.3987 18.3566 16.9602 19.4127 15.2526C21.5735 11.7449 24.5966 8.84905 28.1939 6.84104C31.7913 4.83302 35.8429 3.77979 39.9627 3.78172H40.1364C44.2552 3.78038 48.3059 4.8337 51.9023 6.84135C55.4988 8.849 58.5213 11.7441 60.6818 15.2508C61.7386 16.9593 63.1784 18.3984 64.8873 19.4545C68.3932 21.6159 71.2877 24.6386 73.2953 28.2348C75.3029 31.8311 76.3568 35.8812 76.3568 39.9999C76.3568 44.1186 75.3029 48.1687 73.2953 51.765C71.2877 55.3612 68.3932 58.3839 64.8873 60.5454Z" fill="#AA8158"/>
<path d="M60.24 64.14C61.2482 62.5128 62.6195 61.1412 64.2464 60.1327C67.683 58.0154 70.5205 55.0537 72.4887 51.5295C74.4568 48.0053 75.4901 44.036 75.4901 39.9995C75.4901 35.963 74.4568 31.9937 72.4887 28.4695C70.5205 24.9453 67.683 21.9836 64.2464 19.8663C62.6174 18.8573 61.2445 17.4844 60.2355 15.8554C58.1174 12.4188 55.155 9.58147 51.6304 7.61347C48.1057 5.64547 44.136 4.6123 40.0991 4.6123C36.0622 4.6123 32.0925 5.64547 28.5678 7.61347C25.0431 9.58147 22.0808 12.4188 19.9627 15.8554C18.9567 17.4833 17.5876 18.8563 15.9627 19.8672C12.5261 21.9845 9.68856 24.9462 7.72043 28.4704C5.75229 31.9946 4.71902 35.9639 4.71902 40.0004C4.71902 44.0369 5.75229 48.0062 7.72043 51.5304C9.68856 55.0546 12.5261 58.0163 15.9627 60.1336C17.5907 61.1417 18.9631 62.5129 19.9727 64.14C22.0908 67.5766 25.0531 70.4139 28.5778 72.3819C32.1025 74.3499 36.0722 75.3831 40.1091 75.3831C44.146 75.3831 48.1157 74.3499 51.6404 72.3819C55.165 70.4139 58.1274 67.5766 60.2455 64.14M51.5891 71.909C46.3586 74.8848 40.1771 75.7139 34.3473 74.2215C28.5175 72.7292 23.4947 69.032 20.3373 63.909C19.2912 62.2239 17.8688 60.804 16.1818 59.7609C12.8079 57.6823 10.0223 54.7746 8.09012 51.3148C6.15794 47.855 5.14356 43.9582 5.14356 39.9954C5.14356 36.0326 6.15794 32.1358 8.09012 28.676C10.0223 25.2162 12.8079 22.3085 16.1818 20.23C17.8672 19.1868 19.2883 17.7676 20.3336 16.0836C22.413 12.71 25.3211 9.92465 28.7813 7.99273C32.2414 6.06081 36.1384 5.04659 40.1014 5.04659C44.0643 5.04659 47.9613 6.06081 51.4215 7.99273C54.8816 9.92465 57.7898 12.71 59.8691 16.0836C60.9138 17.7678 62.3342 19.1873 64.0191 20.2309C67.3932 22.3093 70.179 25.2169 72.1114 28.6767C74.0437 32.1365 75.0582 36.0334 75.0582 39.9963C75.0582 43.9592 74.0437 47.8561 72.1114 51.3159C70.179 54.7758 67.3932 57.6833 64.0191 59.7618C62.3353 60.8058 60.9158 62.2252 59.8718 63.909C57.82 67.2243 54.9722 69.9743 51.5873 71.909" fill="#AA8158"/>
</g>
</g>
<defs>
<clipPath id="clip0_79_859">
<rect width="80" height="80" fill="white"/>
</clipPath>
</defs>
</svg>
