<svg width="29" height="70" viewBox="0 0 29 70" fill="none" xmlns="http://www.w3.org/2000/svg">
<path d="M0.650364 4.29002C0.752064 4.39051 0.861738 4.49099 0.983377 4.58737C1.10103 4.68991 1.22865 4.78629 1.36425 4.87447C1.49985 4.96265 1.64342 5.03852 1.79696 5.10004C1.95051 5.15951 2.11004 5.20668 2.27754 5.23949C2.61255 5.30306 2.94955 5.27435 3.27458 5.20053C3.59763 5.1308 3.90072 5.02417 4.16993 4.90318C4.70434 4.66325 5.08322 4.39051 5.08322 4.39051C5.08322 4.39051 4.8878 3.97627 4.50094 3.51282C4.40323 3.39593 4.29555 3.27699 4.17391 3.16215C4.05028 3.05141 3.91668 2.94478 3.77111 2.84634C3.62554 2.74791 3.47 2.65973 3.30649 2.58591C3.14297 2.51208 2.96749 2.45261 2.78204 2.42596C2.41314 2.36649 2.05021 2.3993 1.71919 2.48337C1.38618 2.57155 1.07909 2.7233 0.823849 2.873C0.313364 3.1765 -0.00170135 3.50461 -0.00170135 3.50461C-0.00170135 3.50461 0.245565 3.89219 0.650364 4.29208V4.29002ZM5.31653 0.0574191C5.52391 0.102534 5.80906 0.188663 6.12413 0.313754C6.76024 0.553684 7.49805 1.02329 7.93077 1.72257C8.35352 2.44441 8.38543 3.25238 8.30566 3.88194C8.2239 4.51765 8.04244 4.97085 8.04244 4.97085C8.04244 4.97085 7.92878 4.94009 7.74532 4.87447C7.56187 4.81295 7.30662 4.72067 7.02945 4.58327C6.89185 4.5156 6.74828 4.43562 6.60271 4.34539C6.45914 4.25516 6.30958 4.16288 6.168 4.05009C5.88285 3.83272 5.61963 3.54973 5.41025 3.22162C4.98949 2.5654 4.8858 1.75128 4.87982 1.11352C4.87384 0.475758 4.97753 0 4.97753 0C4.97753 0 5.10515 0.0143548 5.31453 0.0574191H5.31653ZM4.62856 7.48909C4.62856 7.48909 4.89378 7.06665 5.35043 6.6155C5.80508 6.1705 6.45515 5.71115 7.23284 5.63117C7.99857 5.5717 8.7324 5.90801 9.2369 6.28739C9.49214 6.47195 9.70152 6.65446 9.83712 6.80416C9.97471 6.94976 10.0505 7.04614 10.0505 7.04614C10.0505 7.04614 9.71947 7.41731 9.20499 7.79259C8.69451 8.16171 7.99259 8.56774 7.26874 8.61696C7.179 8.62311 7.08927 8.62311 7.00153 8.61901C6.91179 8.61901 6.82605 8.61081 6.7403 8.60056C6.56881 8.58005 6.4053 8.54109 6.24976 8.48982C6.09422 8.43855 5.94865 8.37498 5.80906 8.30731C5.66748 8.24374 5.53787 8.17196 5.41822 8.09814C5.17893 7.95254 4.98351 7.79669 4.84592 7.6798C4.70634 7.56906 4.62856 7.49114 4.62856 7.49114V7.48909ZM10.4732 2.53464C10.5331 2.55515 10.6188 2.58386 10.7225 2.63102C10.9319 2.72125 11.217 2.8607 11.5301 3.04936C11.8452 3.23392 12.1702 3.49026 12.4653 3.79581C12.6129 3.94756 12.7525 4.11367 12.8761 4.29002C12.9977 4.47048 13.0994 4.6694 13.1792 4.87447C13.3407 5.28871 13.3946 5.7091 13.3826 6.10693C13.3667 6.51091 13.2849 6.88824 13.1872 7.21224C12.9878 7.86026 12.7186 8.29705 12.7186 8.29705C12.7186 8.29705 12.6029 8.24579 12.4235 8.14325C12.242 8.04277 12.0027 7.88282 11.7315 7.6962C11.4623 7.50549 11.1831 7.26146 10.9259 6.97437C10.6647 6.69342 10.4334 6.36121 10.2758 5.96748C9.95278 5.19643 9.97671 4.33719 10.0864 3.65841C10.1402 3.318 10.212 3.03501 10.2738 2.82994C10.3336 2.62692 10.3835 2.50593 10.3835 2.50593C10.3835 2.50593 10.4174 2.51619 10.4772 2.53669L10.4732 2.53464ZM8.70049 10.2821C8.70049 10.2821 9.05145 9.89043 9.6058 9.50901C9.88298 9.31829 10.212 9.13168 10.5769 9.00044C10.7584 8.93482 10.9498 8.8815 11.1492 8.85074C11.3466 8.81998 11.5441 8.81588 11.7494 8.83433C11.9528 8.85484 12.1503 8.89995 12.3397 8.96353C12.5291 9.0271 12.7106 9.10912 12.8741 9.21166C13.2051 9.41262 13.4983 9.65666 13.7336 9.89864C14.1922 10.397 14.4415 10.8502 14.4415 10.8502C14.4415 10.8502 14.0247 11.1742 13.4145 11.4695C13.1094 11.6171 12.7585 11.7607 12.3876 11.8529C12.2021 11.9001 12.0127 11.935 11.8232 11.9514C11.6298 11.9719 11.4344 11.976 11.241 11.9575C10.4752 11.8734 9.85307 11.4654 9.41238 11.0634C8.96172 10.6758 8.6985 10.2842 8.6985 10.2842L8.70049 10.2821ZM15.949 6.36941C16.0507 6.43504 16.1723 6.51911 16.3059 6.61755C16.3717 6.66676 16.4415 6.72008 16.5133 6.77545C16.5831 6.83492 16.6529 6.89644 16.7247 6.96411C17.0118 7.2307 17.3189 7.55266 17.5722 7.92998C17.8194 8.31346 18.0228 8.7441 18.1206 9.20551C18.296 10.1468 18.0189 11.0163 17.6878 11.652C17.3548 12.2918 16.9859 12.6937 16.9859 12.6937C16.9859 12.6937 16.8762 12.6137 16.7107 12.4702C16.5412 12.3266 16.3059 12.1257 16.0686 11.8673C15.949 11.7381 15.8293 11.5945 15.7097 11.4428C15.5881 11.2931 15.4684 11.129 15.3607 10.9547C15.2531 10.7804 15.1553 10.5918 15.0736 10.3929C14.9898 10.196 14.9161 9.99092 14.8682 9.77354C14.7705 9.3388 14.7745 8.8897 14.8243 8.47341C14.8722 8.05713 14.9759 7.66339 15.0915 7.32093C15.3229 6.636 15.612 6.16845 15.612 6.16845C15.612 6.16845 15.7416 6.23817 15.947 6.37147L15.949 6.36941ZM12.4155 13.9713C12.4155 13.9713 12.8562 13.6288 13.5102 13.3376C14.1683 13.0403 15.0237 12.8229 15.8772 13.0546C16.294 13.1797 16.6589 13.4094 16.9759 13.678C17.287 13.9508 17.5343 14.2768 17.7337 14.5742C17.7836 14.6501 17.8294 14.7239 17.8733 14.7936C17.9132 14.8674 17.9511 14.9392 17.985 15.0069C18.0528 15.1443 18.1106 15.2673 18.1545 15.3719C18.2442 15.5811 18.2861 15.7123 18.2861 15.7123C18.2861 15.7123 17.7875 15.9625 17.0956 16.143C16.7506 16.2332 16.3558 16.3091 15.955 16.3296C15.5522 16.3501 15.1294 16.3296 14.7386 16.2086C14.5412 16.1491 14.3657 16.065 14.1962 15.9748C14.0247 15.8846 13.8692 15.7779 13.7256 15.6631C13.582 15.5483 13.4544 15.4232 13.3367 15.294C13.2151 15.1709 13.1054 15.0438 13.0097 14.9187C12.8143 14.6726 12.6787 14.4245 12.571 14.2563C12.4693 14.0841 12.4155 13.9713 12.4155 13.9713ZM20.5135 11.1331C20.5673 11.1803 20.6451 11.2521 20.7388 11.3444C20.9262 11.5289 21.1795 11.7955 21.4387 12.1298C21.688 12.4702 21.9392 12.8783 22.1347 13.3253C22.3241 13.7765 22.4457 14.2768 22.4557 14.7793C22.4657 15.2837 22.3361 15.7595 22.1626 16.1737C21.9851 16.588 21.7518 16.9468 21.5165 17.2421C21.0379 17.8368 20.5733 18.1772 20.5733 18.1772C20.5733 18.1772 20.4756 18.0706 20.332 17.884C20.1804 17.7015 19.981 17.439 19.7856 17.117C19.5962 16.793 19.3808 16.428 19.2293 16.0138C19.0817 15.5975 18.9621 15.1545 18.9501 14.6767C18.9441 14.4368 18.9641 14.201 19.0019 13.9713C19.0358 13.7457 19.0877 13.5242 19.1555 13.311C19.2871 12.8844 19.4725 12.4927 19.662 12.1564C20.0389 11.4859 20.4297 11.0573 20.4297 11.0573C20.4297 11.0573 20.4616 11.0819 20.5155 11.129L20.5135 11.1331ZM15.5542 18.5402C15.5542 18.5402 16.0806 18.2757 16.8204 18.1096C17.5662 17.9373 18.5054 17.8881 19.3409 18.3146C19.7537 18.53 20.0827 18.8519 20.3579 19.2005C20.6271 19.5512 20.8146 19.9449 20.9621 20.2997C21.0379 20.476 21.0897 20.6504 21.1316 20.8062C21.1755 20.9641 21.2074 21.1056 21.2313 21.2225C21.2812 21.4604 21.2971 21.606 21.2971 21.606C21.2971 21.606 20.7248 21.7536 19.9671 21.7885C19.5882 21.8069 19.1615 21.7967 18.7407 21.7311C18.322 21.6634 17.8813 21.5506 17.5044 21.3414C17.311 21.2389 17.1474 21.1138 16.9879 20.9846C16.8284 20.8534 16.6888 20.7119 16.5652 20.5622C16.4395 20.4145 16.3378 20.2546 16.2361 20.1008C16.1344 19.947 16.0487 19.7932 15.9749 19.6435C15.9011 19.4938 15.8393 19.3502 15.7875 19.2169C15.7356 19.0836 15.6878 18.9688 15.6539 18.8683C15.5841 18.6673 15.5522 18.5402 15.5522 18.5402H15.5542ZM24.5674 17.3242C24.6133 17.3857 24.6791 17.478 24.7589 17.5969C24.9164 17.8327 25.1258 18.169 25.3272 18.5771C25.5146 18.9914 25.6941 19.4753 25.8058 19.988C25.9015 20.5068 25.9294 21.0543 25.8337 21.5834C25.724 22.1166 25.5007 22.5821 25.2295 22.9717C25.0939 23.1665 24.9463 23.345 24.7928 23.5049C24.6372 23.6669 24.4757 23.8105 24.3202 23.9376C23.696 24.4462 23.1397 24.6902 23.1397 24.6902C23.1397 24.6902 23.0599 24.5569 22.9502 24.3293C22.8465 24.0996 22.683 23.7838 22.5494 23.4065C22.4796 23.2178 22.4198 23.0127 22.36 22.7995C22.2982 22.5882 22.2443 22.3647 22.2084 22.133C22.1705 21.9013 22.1526 21.6613 22.1506 21.4173C22.1426 21.1753 22.1586 20.9272 22.2024 20.677C22.2463 20.4268 22.3141 20.1849 22.4019 19.9531C22.4876 19.7234 22.5853 19.5061 22.699 19.2969C22.9243 18.8827 23.1995 18.5115 23.4647 18.2039C23.7299 17.8963 23.9872 17.6502 24.1766 17.4821C24.368 17.3139 24.4897 17.2257 24.4897 17.2257C24.4897 17.2257 24.5196 17.2585 24.5654 17.32L24.5674 17.3242ZM17.8514 23.9273C17.8514 23.9273 18.4556 23.7715 19.2612 23.7633C19.666 23.7592 20.1146 23.7961 20.5573 23.915C21 24.034 21.4507 24.2308 21.8335 24.5487C22.2064 24.8707 22.4936 25.2746 22.695 25.7032C22.8844 26.1339 23.014 26.5809 23.0798 26.9849C23.1397 27.3909 23.1536 27.7498 23.1536 28.0082C23.1576 28.2645 23.1317 28.4204 23.1317 28.4204C23.1317 28.4204 22.9762 28.4245 22.7209 28.4101C22.4677 28.3958 22.1127 28.363 21.7119 28.2912C21.3131 28.2194 20.8724 28.1107 20.4457 27.9446C20.2323 27.8605 20.0229 27.7642 19.8255 27.6493C19.6261 27.5345 19.4287 27.4053 19.2532 27.2556C18.9002 26.9541 18.657 26.5994 18.4536 26.2385C18.3559 26.058 18.2781 25.8714 18.2143 25.6889C18.1525 25.5064 18.0867 25.33 18.0448 25.1598C17.9511 24.8214 17.9192 24.5077 17.8833 24.2883C17.8533 24.0668 17.8474 23.9273 17.8474 23.9273H17.8514ZM27.6184 25.0655C27.7301 25.3485 27.8876 25.7483 27.9893 26.2262C28.2126 27.1756 28.3004 28.4245 27.8397 29.4847C27.6064 30.0138 27.2814 30.4424 26.9045 30.7828C26.5256 31.1232 26.1148 31.3775 25.734 31.5661C24.9742 31.9414 24.3421 32.0583 24.3421 32.0583C24.3421 32.0583 24.2883 31.9004 24.2225 31.6379C24.1906 31.5067 24.1547 31.3488 24.1228 31.1703C24.1068 31.0822 24.0908 30.9878 24.0769 30.8894C24.0589 30.791 24.041 30.6884 24.027 30.5839C23.9154 29.7328 23.8855 28.6665 24.2843 27.6698C24.4797 27.1715 24.7828 26.7327 25.1118 26.3533C25.4369 25.976 25.7998 25.6561 26.1428 25.3977C26.8267 24.8809 27.421 24.6184 27.421 24.6184C27.421 24.6184 27.5047 24.7825 27.6184 25.0655ZM19.0358 29.9953C19.0358 29.9953 19.2014 29.9912 19.4725 30.0097C19.7457 30.0281 20.1166 30.0691 20.5314 30.1614C20.9462 30.2537 21.4028 30.3993 21.8395 30.629C22.0589 30.7438 22.2722 30.8792 22.4756 31.0371C22.6711 31.197 22.8505 31.3816 23.012 31.5928C23.1716 31.804 23.3032 32.0316 23.4109 32.2695C23.5146 32.5074 23.5824 32.7514 23.6382 32.9996C23.692 33.2456 23.7259 33.4917 23.7459 33.7317C23.7558 33.9716 23.7519 34.2033 23.7379 34.4207C23.712 34.8554 23.6522 35.2327 23.5784 35.4973C23.5126 35.7618 23.4567 35.9197 23.4567 35.9197C23.4567 35.9197 22.8067 35.7803 22.021 35.4358C21.2453 35.0913 20.2941 34.5519 19.7258 33.7624C19.4247 33.3666 19.2412 32.9401 19.1355 32.5197C19.0099 32.0993 18.968 31.6851 18.9601 31.3118C18.9381 30.9407 18.9601 30.6146 18.986 30.3788C19.0159 30.143 19.0358 29.9994 19.0358 29.9994V29.9953ZM28.8926 33.5532C28.9524 33.8752 28.9903 34.3304 29.0003 34.8534C29.0162 35.8972 28.7989 37.2219 28.075 38.2103C27.9015 38.4585 27.6902 38.6717 27.4728 38.8542C27.2535 39.0388 27.0242 39.1926 26.7908 39.3218C26.3242 39.5802 25.8456 39.7401 25.401 39.8365C24.9603 39.9329 24.5694 39.9698 24.2883 39.9842C24.0071 39.9965 23.8356 39.9883 23.8356 39.9883C23.8356 39.9883 23.8216 39.8119 23.8216 39.5248C23.8256 39.2377 23.8177 38.8358 23.8675 38.3826C23.9612 37.4762 24.1746 36.3627 24.8287 35.4296C24.9982 35.1958 25.1736 34.9846 25.3671 34.7919C25.5605 34.5991 25.7699 34.4268 25.9852 34.271C26.416 33.9593 26.8766 33.7173 27.2854 33.5348C28.1089 33.1657 28.7849 33.0406 28.7849 33.0406C28.7849 33.0406 28.8368 33.2313 28.8926 33.5532ZM18.8464 36.5185C18.8464 36.5185 19.0179 36.5554 19.2931 36.6416C19.5683 36.7277 19.9451 36.863 20.3539 37.062C20.7607 37.2609 21.2134 37.5275 21.6022 37.872C21.9931 38.2165 22.348 38.6451 22.5853 39.1639C22.695 39.4223 22.7728 39.6909 22.8226 39.9616C22.8685 40.2323 22.9024 40.5091 22.8884 40.7737C22.8804 41.0403 22.8505 41.3028 22.8087 41.555C22.7867 41.6801 22.7648 41.8031 22.7369 41.9221C22.705 42.041 22.6711 42.1538 22.6372 42.2645C22.4936 42.7034 22.344 43.0766 22.2044 43.3309C22.0669 43.5852 21.9711 43.7328 21.9711 43.7328C21.9711 43.7328 21.8116 43.6549 21.5623 43.5031C21.3131 43.3534 20.9741 43.132 20.6152 42.851C20.2582 42.5701 19.8634 42.2276 19.5164 41.838C19.3429 41.6432 19.1794 41.4361 19.0338 41.2187C18.9621 41.11 18.8943 40.9993 18.8344 40.8844C18.7706 40.7696 18.7088 40.6506 18.657 40.5317C18.4436 40.0498 18.3758 39.574 18.3479 39.1126C18.3379 38.883 18.3479 38.6615 18.3738 38.4482C18.3937 38.2349 18.4177 38.0278 18.4576 37.8371C18.4954 37.6464 18.5393 37.468 18.5872 37.3101C18.631 37.1501 18.6709 37.0086 18.7108 36.8917C18.7886 36.6559 18.8524 36.5165 18.8524 36.5165L18.8464 36.5185ZM28.1648 42.7198C28.1528 42.8961 28.1329 43.1053 28.103 43.3411C28.0651 43.5749 28.0152 43.8333 27.9514 44.106C27.8856 44.3788 27.8098 44.6679 27.7081 44.9591C27.6004 45.2483 27.4748 45.5415 27.3273 45.8266C27.2535 45.9701 27.1757 46.1116 27.092 46.249C27.0062 46.3864 26.9085 46.5197 26.8088 46.6468C26.6074 46.9032 26.384 47.141 26.1368 47.3502C25.8935 47.5594 25.6163 47.7214 25.3471 47.8547C25.0739 47.9859 24.7988 48.0844 24.5236 48.1541C23.9792 48.2976 23.4308 48.3243 22.9542 48.3038C22.4776 48.2833 22.0669 48.2136 21.7737 48.15C21.4826 48.0864 21.3091 48.029 21.3091 48.029C21.3091 48.029 21.339 47.8444 21.4128 47.5471C21.4926 47.2538 21.5943 46.8396 21.7578 46.3864C21.9313 45.9352 22.1267 45.4308 22.4158 44.9489C22.5634 44.7089 22.7129 44.469 22.8924 44.2414C23.0719 44.0138 23.2753 43.7984 23.5066 43.6016C23.9533 43.2037 24.4657 42.9166 24.9922 42.7075C25.5186 42.4983 26.0351 42.363 26.5097 42.2809C26.9823 42.1989 27.401 42.1661 27.7021 42.1558C28.0032 42.1456 28.1847 42.1579 28.1847 42.1579C28.1847 42.1579 28.1867 42.3691 28.1628 42.7198H28.1648ZM17.0677 43.1053C17.0677 43.1053 17.2352 43.1894 17.4964 43.3534C17.7576 43.5154 18.1106 43.7554 18.4815 44.0712C18.8524 44.387 19.2452 44.7807 19.5563 45.2401C19.7138 45.4718 19.8574 45.7199 19.9731 45.9865C20.0887 46.2531 20.1864 46.5402 20.2303 46.8335C20.324 47.424 20.2821 48.029 20.1186 48.5704C20.0409 48.8431 19.9471 49.1077 19.8375 49.3537C19.7218 49.5957 19.5962 49.8233 19.4686 50.0325C19.2213 50.4529 18.9401 50.7769 18.7367 51.0025C18.5333 51.2281 18.3957 51.3511 18.3957 51.3511C18.3957 51.3511 18.2542 51.226 18.0368 51.0004C17.8214 50.7749 17.5303 50.4509 17.2332 50.0592C16.9361 49.6675 16.629 49.2081 16.3817 48.716C16.1245 48.2177 15.9191 47.6824 15.8413 47.139C15.7994 46.8663 15.7795 46.5976 15.7935 46.3433C15.8014 46.087 15.8493 45.8471 15.8912 45.6092C15.9829 45.1355 16.1644 44.7151 16.3279 44.3419C16.4136 44.1573 16.5053 43.9892 16.5931 43.8415C16.6828 43.6939 16.7546 43.5585 16.8264 43.4498C16.966 43.2325 17.0657 43.1074 17.0657 43.1074L17.0677 43.1053ZM25.036 52.0524C24.9164 52.4092 24.715 52.8912 24.4418 53.4243C24.3082 53.693 24.1347 53.9596 23.9513 54.2323C23.7638 54.5009 23.5664 54.7778 23.3311 55.0259C22.8605 55.5263 22.3241 55.9795 21.684 56.2563C21.3689 56.3978 21.0519 56.4942 20.7408 56.5537C20.4257 56.6111 20.1107 56.6275 19.8076 56.6213C19.2033 56.6049 18.641 56.4819 18.1604 56.3261C17.6759 56.1661 17.2731 55.9733 16.9899 55.8216C16.7087 55.6698 16.5472 55.5611 16.5472 55.5611C16.5472 55.5611 16.631 55.3827 16.7905 55.0997C16.942 54.8126 17.1674 54.423 17.4645 54.0108C18.0368 53.1618 18.8743 52.2103 20.003 51.6464C20.2881 51.507 20.5912 51.4044 20.8844 51.3224C21.1775 51.2404 21.4766 51.1829 21.7717 51.1481C22.362 51.0763 22.9502 51.0927 23.4527 51.1358C23.9592 51.1809 24.3959 51.2629 24.707 51.3367C25.0181 51.4106 25.2016 51.4721 25.2016 51.4721C25.2016 51.4721 25.1497 51.6936 25.0341 52.0504L25.036 52.0524ZM13.5441 49.3025C13.5441 49.3025 13.6937 49.4378 13.919 49.6798C14.1463 49.9238 14.4415 50.2683 14.7326 50.6949C15.0257 51.1214 15.3129 51.632 15.5183 52.2001C15.624 52.4872 15.6977 52.7804 15.7416 53.0839C15.7855 53.3895 15.7994 53.7053 15.7735 54.0252C15.7516 54.3512 15.6678 54.6486 15.5701 54.9418C15.4664 55.231 15.3448 55.5201 15.1833 55.7703C15.0277 56.0266 14.8542 56.2645 14.6748 56.486C14.4973 56.7095 14.2959 56.8961 14.1085 57.0725C13.919 57.2448 13.7356 57.4006 13.5621 57.5318C13.3846 57.6569 13.2251 57.7636 13.0875 57.8477C12.8143 58.0158 12.6408 58.1019 12.6408 58.1019C12.6408 58.1019 12.5311 57.9297 12.3736 57.6364C12.2161 57.3411 12.0127 56.9228 11.8192 56.4347C11.6238 55.9446 11.4463 55.3909 11.3227 54.8085C11.1971 54.222 11.1432 53.6253 11.2051 53.0429C11.2589 52.4523 11.4483 51.9561 11.6697 51.4987C11.7814 51.2732 11.9189 51.0722 12.0486 50.8753C12.1782 50.6805 12.3178 50.5021 12.4593 50.3422C12.6029 50.1843 12.7345 50.0366 12.8602 49.9074C12.9858 49.7782 13.1054 49.6695 13.2071 49.5814C13.4145 49.405 13.5441 49.3025 13.5441 49.3025ZM19.2412 60.7781C19.0239 61.1164 18.6769 61.5512 18.2422 62.0167C18.1325 62.1315 18.0209 62.2525 17.8972 62.3653C17.7736 62.4781 17.644 62.5909 17.5104 62.7037C17.2412 62.9251 16.956 63.1466 16.6449 63.3353C16.0168 63.7085 15.3328 64.014 14.599 64.1063C14.2341 64.1555 13.8831 64.1617 13.5441 64.1268C13.2011 64.0879 12.8761 64.012 12.569 63.9136C11.9528 63.7126 11.4204 63.4235 10.9698 63.1077C10.5211 62.7959 10.1661 62.476 9.92286 62.2361C9.67959 61.9962 9.54598 61.8342 9.54598 61.8342C9.54598 61.8342 9.68357 61.6742 9.92685 61.4384C10.1701 61.1985 10.5071 60.8622 10.9319 60.532C11.7614 59.8409 12.8881 59.1232 14.2042 58.8812C14.8762 58.7766 15.5243 58.7869 16.1564 58.8935C16.4695 58.9448 16.7765 59.0186 17.0657 59.1006C17.3528 59.1806 17.626 59.2749 17.8793 59.3713C18.3858 59.5661 18.8125 59.7814 19.1116 59.9475C19.4107 60.1137 19.5822 60.2326 19.5822 60.2326C19.5822 60.2326 19.4646 60.4438 19.2432 60.776L19.2412 60.7781ZM8.26977 54.544C8.26977 54.544 8.38343 54.7265 8.54495 55.0423C8.70847 55.3581 8.90987 55.799 9.08934 56.324C9.26681 56.849 9.41637 57.456 9.46423 58.0978C9.51009 58.7377 9.4383 59.3939 9.20101 60.0378C8.70448 61.2948 7.59377 62.1643 6.61268 62.6216C6.3714 62.7447 6.1341 62.8349 5.91674 62.9087C5.70138 62.9826 5.50596 63.042 5.34245 63.0871C5.17893 63.1323 5.04733 63.163 4.9536 63.1774C4.86187 63.1917 4.81003 63.1999 4.81003 63.1999C4.81003 63.1999 4.7502 62.9908 4.68041 62.6442C4.61062 62.2976 4.53086 61.8096 4.47701 61.2477C4.42517 60.6879 4.40323 60.0583 4.45309 59.4349C4.47901 59.1252 4.51889 58.8074 4.58071 58.4977C4.64452 58.1881 4.73026 57.8887 4.84592 57.6077C4.96357 57.3268 5.09518 57.0581 5.25072 56.8264C5.40626 56.5926 5.57974 56.3896 5.75522 56.1907C5.9327 55.9979 6.12214 55.8277 6.31357 55.6801C6.49902 55.5222 6.69045 55.3827 6.8759 55.2638C6.96962 55.2043 7.06135 55.149 7.15108 55.0997C7.23882 55.0464 7.32258 54.9952 7.40433 54.95C7.56785 54.8578 7.71741 54.7839 7.84702 54.7245C7.97464 54.665 8.08232 54.624 8.15411 54.5932C8.2259 54.5625 8.26578 54.5461 8.26578 54.5461L8.26977 54.544ZM10.7464 67.9985C10.4154 68.2651 9.93084 68.6117 9.34458 68.9562C8.16209 69.6186 6.52095 70.1989 4.96158 69.9344C4.18388 69.8031 3.50789 69.4771 2.94755 69.0854C2.38323 68.6814 1.92458 68.1954 1.56764 67.736C1.2107 67.2767 0.951471 66.8378 0.77998 66.5159C0.608488 66.1939 0.524736 65.9868 0.524736 65.9868C0.524736 65.9868 0.712183 65.8658 1.03124 65.6997C1.19076 65.6156 1.38419 65.5213 1.60354 65.4249C1.82488 65.3306 2.06417 65.2116 2.32939 65.1091C2.46099 65.0578 2.59859 65.0066 2.74017 64.9574C2.88175 64.9102 3.02732 64.863 3.17687 64.8138C3.47399 64.7174 3.78706 64.6354 4.11409 64.578C4.43913 64.5185 4.77015 64.4611 5.11313 64.4488C5.28462 64.4406 5.45811 64.4406 5.63558 64.4488C5.80906 64.4529 5.98454 64.4652 6.16202 64.4878C6.51697 64.5329 6.86194 64.617 7.19496 64.7277C7.52797 64.8364 7.84303 64.9635 8.14813 65.1132C8.75433 65.4106 9.30869 65.7858 9.76733 66.1406C10.226 66.4954 10.5989 66.844 10.8561 67.1065C11.1133 67.3669 11.2529 67.5412 11.2529 67.5412C11.2529 67.5412 11.0695 67.7237 10.7424 67.9965L10.7464 67.9985Z" fill="#AA8158"/>
</svg>
