<svg width="71" height="252" viewBox="0 0 71 252" fill="none" xmlns="http://www.w3.org/2000/svg">
<path d="M0 249.992C0 249.44 0.447715 248.992 1 248.992C1.55228 248.992 2 249.44 2 249.992V250.002C2.53294 250.024 2.95801 250.462 2.95801 251C2.95801 251.552 2.51029 252 1.95801 252H1C0.447715 252 0 251.552 0 251V249.992ZM9.625 250C10.1773 250 10.625 250.448 10.625 251C10.625 251.552 10.1773 252 9.625 252H7.70801C7.15587 252 6.70801 251.552 6.70801 251C6.70801 250.448 7.15587 250 7.70801 250H9.625ZM17.292 250C17.8441 250 18.292 250.448 18.292 251C18.292 251.552 17.8441 252 17.292 252H15.375C14.8227 252 14.375 251.552 14.375 251C14.375 250.448 14.8227 250 15.375 250H17.292ZM24.958 250C25.5103 250 25.958 250.448 25.958 251C25.958 251.552 25.5103 252 24.958 252H23.042C22.4897 252 22.042 251.552 22.042 251C22.042 250.448 22.4897 250 23.042 250H24.958ZM32.625 250C33.1773 250 33.625 250.448 33.625 251C33.625 251.552 33.1773 252 32.625 252H30.708C30.1559 252 29.708 251.552 29.708 251C29.708 250.448 30.1559 250 30.708 250H32.625ZM40.292 250C40.8441 250 41.292 250.448 41.292 251C41.292 251.552 40.8441 252 40.292 252H38.375C37.8227 252 37.375 251.552 37.375 251C37.375 250.448 37.8227 250 38.375 250H40.292ZM47.958 250C48.5103 250 48.958 250.448 48.958 251C48.958 251.552 48.5103 252 47.958 252H46.042C45.4897 252 45.042 251.552 45.042 251C45.042 250.448 45.4897 250 46.042 250H47.958ZM55.625 250C56.1773 250 56.625 250.448 56.625 251C56.625 251.552 56.1773 252 55.625 252H53.708C53.1559 252 52.708 251.552 52.708 251C52.708 250.448 53.1559 250 53.708 250H55.625ZM63.292 250C63.8441 250 64.292 250.448 64.292 251C64.292 251.552 63.8441 252 63.292 252H61.375C60.8227 252 60.375 251.552 60.375 251C60.375 250.448 60.8227 250 61.375 250H63.292ZM69 249.992C69 249.44 69.4477 248.992 70 248.992C70.5523 248.992 71 249.44 71 249.992V251C71 251.552 70.5523 252 70 252H69.042C68.4897 252 68.042 251.552 68.042 251C68.042 250.462 68.4671 250.024 69 250.002V249.992ZM0 243.943V241.928C0 241.375 0.447715 240.928 1 240.928C1.55228 240.928 2 241.375 2 241.928V243.943C2 244.496 1.55228 244.943 1 244.943C0.447715 244.943 0 244.496 0 243.943ZM69 243.943V241.928C69 241.375 69.4477 240.928 70 240.928C70.5523 240.928 71 241.375 71 241.928V243.943C71 244.496 70.5523 244.943 70 244.943C69.4477 244.943 69 244.496 69 243.943ZM0 235.879V233.863C0 233.311 0.447715 232.863 1 232.863C1.55228 232.863 2 233.311 2 233.863V235.879C2 236.431 1.55228 236.879 1 236.879C0.447715 236.879 0 236.431 0 235.879ZM69 235.879V233.863C69 233.311 69.4477 232.863 70 232.863C70.5523 232.863 71 233.311 71 233.863V235.879C71 236.431 70.5523 236.879 70 236.879C69.4477 236.879 69 236.431 69 235.879ZM0 227.814V225.799C0 225.247 0.447715 224.799 1 224.799C1.55228 224.799 2 225.247 2 225.799V227.814C2 228.367 1.55228 228.814 1 228.814C0.447715 228.814 0 228.367 0 227.814ZM69 227.814V225.799C69 225.247 69.4477 224.799 70 224.799C70.5523 224.799 71 225.247 71 225.799V227.814C71 228.367 70.5523 228.814 70 228.814C69.4477 228.814 69 228.367 69 227.814ZM0 219.75V217.733C0.000230833 217.181 0.447858 216.733 1 216.733C1.55214 216.733 1.99977 217.181 2 217.733V219.75C1.99998 220.302 1.55227 220.75 1 220.75C0.44773 220.75 2.47382e-05 220.302 0 219.75ZM69 219.75V217.733C69.0003 217.181 69.4479 216.733 70 216.733C70.5521 216.733 70.9997 217.181 71 217.733V219.75C71 220.302 70.5523 220.75 70 220.75C69.4477 220.75 69 220.302 69 219.75ZM0 211.686V209.669C0.00019786 209.117 0.447837 208.669 1 208.669C1.55216 208.669 1.9998 209.117 2 209.669V211.686C1.99994 212.238 1.55225 212.686 1 212.686C0.447751 212.686 5.772e-05 212.238 0 211.686ZM69 211.686V209.669C69.0002 209.117 69.4479 208.669 70 208.669C70.5521 208.669 70.9998 209.117 71 209.669V211.686C71 212.238 70.5523 212.686 70 212.686C69.4477 212.686 69 212.238 69 211.686ZM0 203.621V201.604C0.000164891 201.052 0.447817 200.604 1 200.604C1.55218 200.604 1.99984 201.052 2 201.604V203.621C1.99991 204.173 1.55223 204.621 1 204.621C0.447771 204.621 9.07014e-05 204.173 0 203.621ZM69 203.621V201.604C69.0002 201.052 69.4478 200.604 70 200.604C70.5522 200.604 70.9998 201.052 71 201.604V203.621C70.9999 204.173 70.5522 204.621 70 204.621C69.4478 204.621 69.0001 204.173 69 203.621ZM0 195.557V193.54C0.000131922 192.988 0.447797 192.54 1 192.54C1.5522 192.54 1.99987 192.988 2 193.54V195.557C1.99988 196.109 1.55221 196.557 1 196.557C0.447792 196.557 0.000123675 196.109 0 195.557ZM69 195.557V193.54C69.0002 192.988 69.4478 192.54 70 192.54C70.5522 192.54 70.9998 192.988 71 193.54V195.557C70.9999 196.109 70.5522 196.557 70 196.557C69.4478 196.557 69.0001 196.109 69 195.557ZM0 187.492V185.476C9.89432e-05 184.923 0.447776 184.476 1 184.476C1.55222 184.476 1.9999 184.923 2 185.476V187.492C1.99984 188.044 1.55219 188.492 1 188.492C0.447812 188.492 0.000156652 188.044 0 187.492ZM69 187.492V185.476C69.0001 184.923 69.4478 184.476 70 184.476C70.5522 184.476 70.9999 184.923 71 185.476V187.492C70.9999 188.044 70.5522 188.492 70 188.492C69.4478 188.492 69.0001 188.044 69 187.492ZM0 179.428V177.411C6.59669e-05 176.859 0.447756 176.411 1 176.411C1.55224 176.411 1.99993 176.859 2 177.411V179.428C1.99981 179.98 1.55217 180.428 1 180.428C0.447832 180.428 0.000189618 179.98 0 179.428ZM69 179.428V177.411C69.0001 176.859 69.4478 176.411 70 176.411C70.5522 176.411 70.9999 176.859 71 177.411V179.428C70.9998 179.98 70.5522 180.428 70 180.428C69.4478 180.428 69.0002 179.98 69 179.428ZM0 171.363V169.347C3.29849e-05 168.794 0.447736 168.347 1 168.347C1.55226 168.347 1.99997 168.794 2 169.347V171.363C1.99978 171.915 1.55215 172.363 1 172.363C0.447853 172.363 0.000222585 171.915 0 171.363ZM69 171.363V169.347C69.0001 168.794 69.4478 168.347 70 168.347C70.5522 168.347 70.9999 168.794 71 169.347V171.363C70.9998 171.915 70.5522 172.363 70 172.363C69.4478 172.363 69.0002 171.915 69 171.363ZM0 163.299V161.282C0 160.73 0.447715 160.282 1 160.282C1.55228 160.282 2 160.73 2 161.282V163.299C1.99974 163.851 1.55213 164.299 1 164.299C0.447873 164.299 0.000255557 163.851 0 163.299ZM69 163.299V161.282C69 160.73 69.4477 160.282 70 160.282C70.5523 160.282 71 160.73 71 161.282V163.299C70.9998 163.851 70.5521 164.299 70 164.299C69.4479 164.299 69.0002 163.851 69 163.299ZM69 155.234V153.218C69 152.665 69.4477 152.218 70 152.218C70.5523 152.218 71 152.665 71 153.218V155.234C70.9997 155.786 70.5521 156.234 70 156.234C69.4479 156.234 69.0003 155.786 69 155.234ZM0 155.233V153.218C0 152.665 0.447715 152.218 1 152.218C1.55228 152.218 2 152.665 2 153.218V155.233C2 155.786 1.55228 156.233 1 156.233C0.447715 156.233 0 155.786 0 155.233ZM0 147.169V145.153C0 144.601 0.447715 144.153 1 144.153C1.55228 144.153 2 144.601 2 145.153V147.169C2 147.721 1.55228 148.169 1 148.169C0.447715 148.169 0 147.721 0 147.169ZM69 147.169V145.153C69 144.601 69.4477 144.153 70 144.153C70.5523 144.153 71 144.601 71 145.153V147.169C71 147.721 70.5523 148.169 70 148.169C69.4477 148.169 69 147.721 69 147.169ZM0 139.104V137.089C0 136.537 0.447715 136.089 1 136.089C1.55228 136.089 2 136.537 2 137.089V139.104C2 139.657 1.55228 140.104 1 140.104C0.447715 140.104 0 139.657 0 139.104ZM69 139.104V137.089C69 136.537 69.4477 136.089 70 136.089C70.5523 136.089 71 136.537 71 137.089V139.104C71 139.657 70.5523 140.104 70 140.104C69.4477 140.104 69 139.657 69 139.104ZM0 131.04V129.024C0 128.472 0.447715 128.024 1 128.024C1.55228 128.024 2 128.472 2 129.024V131.04C2 131.592 1.55228 132.04 1 132.04C0.447715 132.04 0 131.592 0 131.04ZM69 131.04V129.024C69 128.472 69.4477 128.024 70 128.024C70.5523 128.024 71 128.472 71 129.024V131.04C71 131.592 70.5523 132.04 70 132.04C69.4477 132.04 69 131.592 69 131.04ZM0 122.976V120.96C0 120.408 0.447715 119.96 1 119.96C1.55228 119.96 2 120.408 2 120.96V122.976C2 123.528 1.55228 123.976 1 123.976C0.447715 123.976 0 123.528 0 122.976ZM69 122.976V120.96C69 120.408 69.4477 119.96 70 119.96C70.5523 119.96 71 120.408 71 120.96V122.976C71 123.528 70.5523 123.976 70 123.976C69.4477 123.976 69 123.528 69 122.976ZM0 114.911V112.896C0 112.343 0.447715 111.896 1 111.896C1.55228 111.896 2 112.343 2 112.896V114.911C2 115.463 1.55228 115.911 1 115.911C0.447715 115.911 0 115.463 0 114.911ZM69 114.911V112.896C69 112.343 69.4477 111.896 70 111.896C70.5523 111.896 71 112.343 71 112.896V114.911C71 115.463 70.5523 115.911 70 115.911C69.4477 115.911 69 115.463 69 114.911ZM0 106.847V104.831C0 104.279 0.447715 103.831 1 103.831C1.55228 103.831 2 104.279 2 104.831V106.847C2 107.399 1.55228 107.847 1 107.847C0.447715 107.847 0 107.399 0 106.847ZM69 106.847V104.831C69 104.279 69.4477 103.831 70 103.831C70.5523 103.831 71 104.279 71 104.831V106.847C71 107.399 70.5523 107.847 70 107.847C69.4477 107.847 69 107.399 69 106.847ZM0 98.7822V96.7666C0 96.2143 0.447715 95.7666 1 95.7666C1.55228 95.7666 2 96.2143 2 96.7666V98.7822C2 99.3345 1.55228 99.7822 1 99.7822C0.447715 99.7822 0 99.3345 0 98.7822ZM69 98.7822V96.7666C69 96.2143 69.4477 95.7666 70 95.7666C70.5523 95.7666 71 96.2143 71 96.7666V98.7822C71 99.3345 70.5523 99.7822 70 99.7822C69.4477 99.7822 69 99.3345 69 98.7822ZM0 90.7178V88.7012C0.00023083 88.1491 0.447858 87.7012 1 87.7012C1.55214 87.7012 1.99977 88.1491 2 88.7012V90.7178C1.99998 91.27 1.55227 91.7178 1 91.7178C0.44773 91.7178 2.47386e-05 91.27 0 90.7178ZM69 90.7178V88.7012C69.0003 88.1491 69.4479 87.7012 70 87.7012C70.5521 87.7012 70.9997 88.1491 71 88.7012V90.7178C71 91.2701 70.5523 91.7178 70 91.7178C69.4477 91.7178 69 91.2701 69 90.7178ZM0 82.6533V80.6367C0.000197863 80.0846 0.447837 79.6367 1 79.6367C1.55216 79.6367 1.9998 80.0846 2 80.6367V82.6533C1.99994 83.2056 1.55225 83.6533 1 83.6533C0.447751 83.6533 5.77208e-05 83.2056 0 82.6533ZM69 82.6533V80.6367C69.0002 80.0846 69.4479 79.6367 70 79.6367C70.5521 79.6367 70.9998 80.0846 71 80.6367V82.6533C71 83.2056 70.5523 83.6533 70 83.6533C69.4477 83.6533 69 83.2056 69 82.6533ZM0 74.5889V72.5723C0.000164893 72.0201 0.447817 71.5723 1 71.5723C1.55218 71.5723 1.99984 72.0201 2 72.5723V74.5889C1.99991 75.1411 1.55223 75.5889 1 75.5889C0.447771 75.5889 9.07002e-05 75.1411 0 74.5889ZM69 74.5889V72.5723C69.0002 72.0201 69.4478 71.5723 70 71.5723C70.5522 71.5723 70.9998 72.0201 71 72.5723V74.5889C70.9999 75.1411 70.5522 75.5889 70 75.5889C69.4478 75.5889 69.0001 75.1411 69 74.5889ZM0 66.5244V64.5078C0.00013192 63.9556 0.447797 63.5078 1 63.5078C1.5522 63.5078 1.99987 63.9556 2 64.5078V66.5244C1.99988 67.0766 1.55221 67.5244 1 67.5244C0.447792 67.5244 0.000123677 67.0766 0 66.5244ZM69 66.5244V64.5078C69.0002 63.9557 69.4478 63.5078 70 63.5078C70.5522 63.5078 70.9998 63.9557 71 64.5078V66.5244C70.9999 67.0766 70.5522 67.5244 70 67.5244C69.4478 67.5244 69.0001 67.0766 69 66.5244ZM0 58.46V56.4434C9.89446e-05 55.8912 0.447776 55.4434 1 55.4434C1.55222 55.4434 1.9999 55.8912 2 56.4434V58.46C1.99984 59.0121 1.55219 59.46 1 59.46C0.447812 59.46 0.00015665 59.0121 0 58.46ZM69 58.46V56.4434C69.0001 55.8912 69.4478 55.4434 70 55.4434C70.5522 55.4434 70.9999 55.8912 71 56.4434V58.46C70.9999 59.0121 70.5522 59.46 70 59.46C69.4478 59.46 69.0001 59.0121 69 58.46ZM0 50.3955V48.3789C6.5966e-05 47.8267 0.447756 47.3789 1 47.3789C1.55224 47.3789 1.99993 47.8267 2 48.3789V50.3955C1.99981 50.9476 1.55217 51.3955 1 51.3955C0.447832 51.3955 0.000189621 50.9476 0 50.3955ZM69 50.3955V48.3789C69.0001 47.8267 69.4478 47.3789 70 47.3789C70.5522 47.3789 70.9999 47.8267 71 48.3789V50.3955C70.9998 50.9477 70.5522 51.3955 70 51.3955C69.4478 51.3955 69.0002 50.9477 69 50.3955ZM0 42.3311V40.3145C3.29845e-05 39.7622 0.447736 39.3145 1 39.3145C1.55226 39.3145 1.99997 39.7622 2 40.3145V42.3311C1.99978 42.8831 1.55215 43.3311 1 43.3311C0.447853 43.3311 0.000222589 42.8831 0 42.3311ZM69 42.3311V40.3145C69.0001 39.7622 69.4477 39.3145 70 39.3145C70.5523 39.3145 70.9999 39.7622 71 40.3145V42.3311C70.9998 42.8832 70.5522 43.3311 70 43.3311C69.4478 43.3311 69.0002 42.8832 69 42.3311ZM0 34.2666V32.25C0 31.6977 0.447715 31.25 1 31.25C1.55228 31.25 2 31.6977 2 32.25V34.2666C1.99974 34.8187 1.55213 35.2666 1 35.2666C0.447873 35.2666 0.000255553 34.8187 0 34.2666ZM69 34.2666V32.25C69 31.6977 69.4477 31.25 70 31.25C70.5523 31.25 71 31.6977 71 32.25V34.2666C70.9998 34.8187 70.5521 35.2666 70 35.2666C69.4479 35.2666 69.0002 34.8187 69 34.2666ZM69 26.2021V24.1855C69 23.6333 69.4477 23.1855 70 23.1855C70.5523 23.1855 71 23.6333 71 24.1855V26.2021C70.9997 26.7542 70.5521 27.2021 70 27.2021C69.4479 27.2021 69.0003 26.7542 69 26.2021ZM0 26.2012V24.1855C0 23.6333 0.447715 23.1855 1 23.1855C1.55228 23.1855 2 23.6333 2 24.1855V26.2012C2 26.7535 1.55228 27.2012 1 27.2012C0.447715 27.2012 0 26.7535 0 26.2012ZM0 18.1367V16.1211C0 15.5688 0.447715 15.1211 1 15.1211C1.55228 15.1211 2 15.5688 2 16.1211V18.1367C2 18.689 1.55228 19.1367 1 19.1367C0.447715 19.1367 0 18.689 0 18.1367ZM69 18.1367V16.1211C69 15.5688 69.4477 15.1211 70 15.1211C70.5523 15.1211 71 15.5688 71 16.1211V18.1367C71 18.689 70.5523 19.1367 70 19.1367C69.4477 19.1367 69 18.689 69 18.1367ZM0 10.0723V8.05664C0 7.50436 0.447715 7.05664 1 7.05664C1.55228 7.05664 2 7.50436 2 8.05664V10.0723C2 10.6246 1.55228 11.0723 1 11.0723C0.447715 11.0723 0 10.6246 0 10.0723ZM69 10.0723V8.05664C69 7.50436 69.4477 7.05664 70 7.05664C70.5523 7.05664 71 7.50436 71 8.05664V10.0723C71 10.6245 70.5523 11.0723 70 11.0723C69.4477 11.0723 69 10.6245 69 10.0723ZM0 2.00781V1C0 0.447715 0.447715 0 1 0H1.95801C2.51029 0 2.95801 0.447715 2.95801 1C2.95801 1.5383 2.53292 1.97518 2 1.99707V2.00781C2 2.5601 1.55228 3.00781 1 3.00781C0.447715 3.00781 0 2.5601 0 2.00781ZM69 2.00781V1.99707C68.4671 1.97518 68.042 1.5383 68.042 1C68.042 0.447715 68.4897 0 69.042 0H70C70.5523 0 71 0.447715 71 1V2.00781C71 2.5601 70.5523 3.00781 70 3.00781C69.4477 3.00781 69 2.5601 69 2.00781ZM9.625 0C10.1773 2.06163e-06 10.625 0.447716 10.625 1C10.625 1.55228 10.1773 2 9.625 2H7.70801C7.15587 1.99983 6.70801 1.55218 6.70801 1C6.70801 0.447822 7.15587 0.000173136 7.70801 0H9.625ZM17.292 0C17.8441 0.000178287 18.292 0.447825 18.292 1C18.292 1.55217 17.8441 1.99982 17.292 2H15.375C14.8227 2 14.375 1.55228 14.375 1C14.375 0.447715 14.8227 0 15.375 0H17.292ZM24.958 0C25.5103 0 25.958 0.447715 25.958 1C25.958 1.55228 25.5103 2 24.958 2H23.042C22.4897 2 22.042 1.55228 22.042 1C22.042 0.447715 22.4897 0 23.042 0H24.958ZM32.625 0C33.1773 1.03081e-06 33.625 0.447716 33.625 1C33.625 1.55228 33.1773 2 32.625 2H30.708C30.1559 1.99983 29.708 1.55218 29.708 1C29.708 0.447823 30.1559 0.000174166 30.708 0H32.625ZM40.292 0C40.8441 0.000175197 41.292 0.447823 41.292 1C41.292 1.55218 40.8441 1.99982 40.292 2H38.375C37.8227 2 37.375 1.55228 37.375 1C37.375 0.447715 37.8227 0 38.375 0H40.292ZM47.958 0C48.5103 0 48.958 0.447715 48.958 1C48.958 1.55228 48.5103 2 47.958 2H46.042C45.4897 2 45.042 1.55228 45.042 1C45.042 0.447715 45.4897 0 46.042 0H47.958ZM55.625 0C56.1773 0 56.625 0.447715 56.625 1C56.625 1.55228 56.1773 2 55.625 2H53.708C53.1559 1.99982 52.708 1.55218 52.708 1C52.708 0.447823 53.1559 0.000175197 53.708 0H55.625ZM63.292 0C63.8441 0.000175197 64.292 0.447823 64.292 1C64.292 1.55218 63.8441 1.99982 63.292 2H61.375C60.8227 2 60.375 1.55228 60.375 1C60.375 0.447715 60.8227 0 61.375 0H63.292Z" fill="#DA1F00"/>
</svg>
