<svg width="86" height="52" viewBox="122 56 86 52" fill="none" xmlns="http://www.w3.org/2000/svg">
<path d="M207.39 89.7372L198.397 68.2692C197.849 60.2897 180.94 56 164.994 56C149.048 56 132.155 60.3068 131.607 68.2692L122.613 89.7372C117.37 103.91 146.973 107.882 164.993 108C183.047 107.883 212.618 103.927 207.39 89.7372ZM161.808 77.9679C155.635 77.801 147.571 76.549 142.742 74.7295C141.53 72.0585 142.642 70.6062 146.044 70.3391C146.558 70.289 147.023 69.9885 147.288 69.5545C147.305 69.5211 149.412 66.1825 152.217 65.9154C153.677 65.7819 155.204 66.5498 156.73 68.2358C157.178 68.7199 157.875 68.9035 158.506 68.6865C161.742 67.5848 166.305 68.6031 167.798 73.0268C168.047 73.6278 168.611 74.0117 169.225 74.0618C172.61 73.2939 178.534 72.2088 179.862 76.7161C174.038 77.8178 167.782 78.2018 161.808 77.9848L161.808 77.9679ZM164.961 65.5983C165.956 64.9139 167.516 64.3296 169.905 64.2628C175.896 64.0625 178.302 68.2191 178.385 68.3694C178.7 68.9537 179.347 69.2876 179.994 69.2208C183.529 69.0372 190.498 69.1874 188.59 74.2288C186.98 74.8966 185.171 75.4474 183.131 75.9649C181.604 70.2391 175.249 69.2375 170.254 70.4227C169.092 68.2359 167.267 66.483 164.961 65.5983ZM164.994 59.3216C182.632 59.2381 202.462 65.5315 192.224 72.359C192.274 66.4996 183.927 65.5481 180.675 65.8318C177.157 60.3731 165.376 58.6203 160.962 64.9304C159.967 64.9304 159.087 65.0806 158.457 65.2142C153.661 60.2896 147.671 63.0608 144.949 67.0838C141.166 67.6347 138.826 69.6713 138.976 73.0601C126.199 65.9821 146.625 59.2375 165.011 59.3048L164.994 59.3216ZM203.375 96.0972C191.726 107.348 138.295 107.348 126.663 96.0972C125.319 94.8786 124.938 92.842 125.701 91.0224L133.301 72.8771C143.938 84.1613 185.935 84.2788 196.755 72.8771L204.354 91.0224C205.118 92.842 204.72 94.8786 203.392 96.0972H203.375Z" fill="#81C776"/>
</svg>