<svg width="177" height="63" viewBox="0 0 177 63" fill="none" xmlns="http://www.w3.org/2000/svg">
<g clip-path="url(#clip0_2001_600)">
<path d="M13.8716 61.9982C11.1251 61.9982 8.71248 61.4003 6.64167 60.2044C4.57087 59.0086 2.94523 57.3376 1.76873 55.1874C0.592226 53.0373 0 50.5506 0 47.7233C0 45.5059 0.576327 43.4745 1.73296 41.6293C2.88959 39.784 4.27277 38.3585 5.88649 37.3607C4.5351 36.3628 3.40232 35.0997 2.48417 33.5791C1.56999 32.0586 1.10893 30.2331 1.10893 28.1028C1.10893 25.4973 1.65346 23.2125 2.7465 21.2604C3.83556 19.3042 5.34196 17.7718 7.26172 16.6631C9.18149 15.5544 11.3835 15 13.8716 15C16.3597 15 18.6253 15.5544 20.5451 16.6631C22.4648 17.7718 23.9673 19.3042 25.0603 21.2604C26.1494 23.2165 26.6979 25.4973 26.6979 28.1028C26.6979 30.2331 26.2288 32.0586 25.2908 33.5791C24.3528 35.0997 23.228 36.3589 21.9203 37.3607C23.5777 38.3625 24.9729 39.784 26.1096 41.6293C27.2424 43.4785 27.8108 45.5059 27.8108 47.7233C27.8108 50.5902 27.2106 53.0888 26.0102 55.2191C24.8099 57.3494 23.1644 59.0125 21.0697 60.2044C18.9751 61.4003 16.5783 61.9982 13.8716 61.9982ZM13.8716 54.5657C15.9225 54.5657 17.4488 54.0035 18.4504 52.871C19.452 51.7425 19.9568 49.9804 19.9568 47.5926C19.9568 45.4187 19.456 43.7042 18.4504 42.445C17.4448 41.1858 15.9186 40.5562 13.8716 40.5562C11.8246 40.5562 10.35 41.1858 9.32458 42.445C8.29911 43.7042 7.78638 45.4227 7.78638 47.5926C7.78638 49.9843 8.29911 51.7425 9.32458 52.871C10.35 53.9995 11.8644 54.5657 13.8716 54.5657ZM13.8716 34.4225C17.1865 34.4225 18.8439 32.3595 18.8439 28.2295C18.8439 26.2298 18.363 24.7647 17.4051 23.8302C16.4432 22.8957 15.2667 22.4285 13.8716 22.4285C12.4765 22.4285 11.296 22.8957 10.3381 23.8302C9.37625 24.7647 8.89929 26.2338 8.89929 28.2295C8.89929 32.3595 10.5567 34.4225 13.8716 34.4225ZM44.6872 61.9982C41.11 61.9982 38.3198 61.1072 36.3126 59.3254C34.3054 57.5435 32.9103 54.9142 32.1233 51.4375C31.3363 47.9609 30.9468 43.6606 30.9468 38.5327C30.9468 33.4049 31.3403 29.0373 32.1233 25.5606C32.9103 22.084 34.3054 19.4547 36.3126 17.6728C38.3198 15.8909 41.11 15 44.6872 15C48.2644 15 51.0348 15.8909 52.9982 17.6728C54.9617 19.4547 56.3449 22.084 57.1518 25.5606C57.9586 29.0373 58.3641 33.3613 58.3641 38.5327C58.3641 43.7042 57.9586 47.9609 57.1518 51.4375C56.3449 54.9142 54.9617 57.5435 52.9982 59.3254C51.0348 61.1072 48.2644 61.9982 44.6872 61.9982ZM44.6872 54.5657C46.1698 54.5657 47.3383 54.0985 48.1889 53.164C49.0395 52.2295 49.6516 50.602 50.0212 48.2737C50.3909 45.9493 50.5777 42.7024 50.5777 38.5288C50.5777 34.3552 50.3909 31.0964 50.0212 28.7522C49.6516 26.4041 49.0395 24.7647 48.1889 23.8302C47.3383 22.8957 46.1698 22.4285 44.6872 22.4285C43.2047 22.4285 42.0242 22.8957 41.1537 23.8302C40.2793 24.7647 39.6593 26.4041 39.2896 28.7522C38.92 31.1003 38.7332 34.3592 38.7332 38.5288C38.7332 42.6984 38.92 45.9493 39.2896 48.2737C39.6593 50.5981 40.2793 52.2295 41.1537 53.164C42.0242 54.0985 43.2047 54.5657 44.6872 54.5657ZM75.8327 61.9982C72.2555 61.9982 69.4653 61.1072 67.4581 59.3254C65.4509 57.5435 64.0558 54.9142 63.2688 51.4375C62.4818 47.9609 62.0923 43.6606 62.0923 38.5327C62.0923 33.4049 62.4858 29.0373 63.2688 25.5606C64.0518 22.084 65.4509 19.4547 67.4581 17.6728C69.4653 15.8909 72.2555 15 75.8327 15C79.4099 15 82.1803 15.8909 84.1438 17.6728C86.1072 19.4547 87.4904 22.084 88.2973 25.5606C89.1041 29.0373 89.5056 33.3613 89.5056 38.5327C89.5056 43.7042 89.1002 47.9609 88.2973 51.4375C87.4904 54.9142 86.1072 57.5435 84.1438 59.3254C82.1803 61.1072 79.4099 61.9982 75.8327 61.9982ZM75.8327 54.5657C77.3153 54.5657 78.4838 54.0985 79.3344 53.164C80.185 52.2295 80.7931 50.602 81.1667 48.2737C81.5364 45.9493 81.7232 42.7024 81.7232 38.5288C81.7232 34.3552 81.5364 31.0964 81.1667 28.7522C80.7971 26.4041 80.185 24.7647 79.3344 23.8302C78.4838 22.8957 77.3153 22.4285 75.8327 22.4285C74.3502 22.4285 73.1697 22.8957 72.2992 23.8302C71.4248 24.7647 70.8048 26.4041 70.4351 28.7522C70.0655 31.1003 69.8787 34.3592 69.8787 38.5288C69.8787 42.6984 70.0655 45.9493 70.4351 48.2737C70.8048 50.5981 71.4288 52.2295 72.2992 53.164C73.1697 54.0985 74.3502 54.5657 75.8327 54.5657ZM96.4613 62.018C95.8054 62.018 95.2649 61.7962 94.8436 61.3567C94.4223 60.9172 94.2116 60.3391 94.2116 59.6223V42.6905C94.2116 40.972 94.3507 39.5742 94.6289 38.4892C94.9072 37.4042 95.3841 36.5687 96.0598 35.9748C96.7395 35.3808 97.6616 34.969 98.8302 34.7314C99.9987 34.4978 101.477 34.379 103.262 34.379H110.222C112.006 34.379 113.489 34.4978 114.669 34.7314C115.85 34.965 116.78 35.3808 117.455 35.9748C118.131 36.5687 118.616 37.4082 118.902 38.4892C119.188 39.5742 119.332 40.972 119.332 42.6905V55.2983C119.332 56.9772 119.133 58.2879 118.731 59.2382C118.33 60.1886 117.702 60.8697 116.839 61.2775C115.977 61.6854 114.86 61.923 113.485 61.9823C112.662 62.0021 112.002 61.8319 111.497 61.4755C110.993 61.1191 110.703 60.5687 110.619 59.8362C110.536 59.1195 110.706 58.5136 111.128 58.0107C111.549 57.5118 112.117 57.2386 112.837 57.199C113.699 57.1396 114.244 56.9376 114.47 56.6011C114.697 56.2645 114.808 55.6349 114.808 54.7162V49.8101H98.7069V59.6263C98.7069 60.343 98.4963 60.9211 98.075 61.3607C97.6537 61.8002 97.1131 62.0219 96.4573 62.0219L96.4613 62.018ZM98.7069 45.6722H104.526V38.6159H103.262C101.99 38.6159 101.024 38.707 100.368 38.8931C99.7125 39.0752 99.2714 39.4554 99.0448 40.0295C98.8182 40.6037 98.7069 41.4907 98.7069 42.6984V45.6722ZM109.021 45.6722H114.808V42.6984C114.808 41.4907 114.693 40.6037 114.47 40.0295C114.244 39.4554 113.803 39.0792 113.147 38.8931C112.491 38.7109 111.513 38.6159 110.222 38.6159H109.021V45.6722ZM126.919 62.7822C126.589 62.9802 126.259 63.0436 125.933 62.9723C125.608 62.901 125.333 62.6991 125.107 62.3664C124.141 60.9132 123.382 59.4283 122.833 57.9038C122.285 56.3793 122.006 54.7321 122.006 52.9621C122.006 51.192 122.281 49.5448 122.833 48.0124C123.382 46.48 124.141 44.9951 125.107 43.5577C125.333 43.229 125.608 43.0271 125.933 42.9558C126.259 42.8845 126.585 42.9439 126.919 43.1419C127.225 43.3122 127.404 43.5695 127.468 43.9022C127.527 44.2387 127.468 44.5436 127.277 44.8248C126.693 45.7355 126.196 46.6027 125.786 47.4303C125.377 48.2579 125.063 49.1092 124.852 49.9922C124.642 50.8753 124.534 51.8652 124.534 52.9621C124.534 54.0589 124.642 55.0528 124.852 55.9437C125.063 56.8347 125.377 57.69 125.786 58.5057C126.196 59.3254 126.693 60.1886 127.277 61.0993C127.464 61.3765 127.523 61.6854 127.468 62.0219C127.408 62.3585 127.225 62.6119 126.919 62.7822ZM134.332 61.3171C133.962 61.3171 133.644 61.1944 133.378 60.9489C133.112 60.7033 132.981 60.3787 132.981 59.9708V55.1993C132.822 55.4884 132.671 55.7616 132.523 56.0111C132.376 56.2605 132.253 56.4783 132.146 56.6644C131.975 56.9535 131.701 57.1475 131.319 57.2465C130.942 57.3455 130.58 57.2703 130.238 57.0168C129.948 56.807 129.781 56.5337 129.741 56.1932C129.701 55.8566 129.773 55.5636 129.96 55.3141C130.159 55.037 130.397 54.6845 130.675 54.2569C130.953 53.8292 131.24 53.3739 131.53 52.8908C131.82 52.4077 132.09 51.9404 132.337 51.4851C132.583 51.0297 132.782 50.6377 132.941 50.3051H131.331C130.973 50.3051 130.667 50.1784 130.417 49.9289C130.166 49.6794 130.039 49.3745 130.039 49.0182C130.039 48.6618 130.166 48.3608 130.417 48.1193C130.667 47.8738 130.973 47.755 131.331 47.755H132.981V46.6265C132.782 46.6661 132.583 46.7057 132.384 46.7453C132.186 46.7849 131.995 46.8165 131.808 46.8442C131.359 46.9353 130.989 46.8918 130.703 46.7175C130.417 46.5393 130.238 46.2582 130.155 45.8781C130.087 45.5098 130.155 45.193 130.365 44.9357C130.572 44.6783 130.886 44.5159 131.311 44.4486C131.776 44.3694 132.301 44.2625 132.889 44.1318C133.477 44.0012 134.062 43.8546 134.638 43.6963C135.214 43.5379 135.699 43.3874 136.097 43.2409C136.494 43.1102 136.848 43.0983 137.158 43.2092C137.468 43.3201 137.691 43.5577 137.822 43.914C137.953 44.2585 137.945 44.5832 137.794 44.8921C137.643 45.201 137.384 45.4227 137.027 45.5534C136.828 45.6207 136.617 45.688 136.391 45.7632C136.164 45.8345 135.926 45.9058 135.675 45.9731V47.755H136.788C137.106 47.755 137.384 47.854 137.623 48.052C137.861 48.25 138.008 48.4994 138.06 48.8043C138.167 48.25 138.382 47.8183 138.704 47.5095C139.03 47.2006 139.503 46.9789 140.127 46.8442C139.928 46.7136 139.761 46.5552 139.63 46.3691C139.551 46.2503 139.443 46.0879 139.312 45.882C139.181 45.6761 139.054 45.4781 138.935 45.2802C138.815 45.0822 138.724 44.9436 138.656 44.8644C138.458 44.5595 138.406 44.2387 138.497 43.8942C138.589 43.5497 138.788 43.2884 139.094 43.1023C139.439 42.8766 139.797 42.7934 140.167 42.8449C140.536 42.8964 140.842 43.0904 141.081 43.4191C141.16 43.526 141.268 43.6804 141.399 43.8824C141.53 44.0883 141.665 44.2902 141.796 44.4882C141.928 44.6862 142.023 44.8327 142.075 44.9238C142.261 45.2128 142.325 45.5257 142.273 45.8543C142.222 46.183 142.067 46.4602 141.816 46.6859H143.029C143.148 46.3968 143.295 46.0404 143.474 45.6167C143.653 45.193 143.823 44.7891 143.978 44.3971C144.137 44.0091 144.249 43.7279 144.316 43.5577C144.463 43.2013 144.718 42.9558 145.079 42.8251C145.445 42.6944 145.811 42.7063 146.184 42.8647C146.542 43.0231 146.789 43.2567 146.932 43.5695C147.071 43.8784 147.075 44.211 146.94 44.5674C146.848 44.7931 146.689 45.1376 146.463 45.6049C146.236 46.0721 146.033 46.5077 145.847 46.9036C146.59 47.0898 147.095 47.4303 147.369 47.9332C147.639 48.4361 147.778 49.1488 147.778 50.0714V50.4278C147.778 51.4059 147.627 52.1463 147.321 52.6532C147.015 53.16 146.435 53.5006 145.572 53.6708V57.789C145.572 58.078 145.616 58.2641 145.703 58.3433C145.791 58.4225 145.958 58.4621 146.212 58.4621C146.359 58.4621 146.471 58.4146 146.55 58.3117C146.63 58.2087 146.709 57.9988 146.789 57.6702C146.896 57.2742 147.107 57.001 147.424 56.8466C147.742 56.6961 148.088 56.6723 148.458 56.7792C149.213 57.0168 149.511 57.5395 149.352 58.3433C149.153 59.3848 148.812 60.1133 148.331 60.5212C147.846 60.9291 147.107 61.135 146.113 61.135C145.33 61.135 144.71 61.0597 144.245 60.9053C143.78 60.7548 143.45 60.4856 143.251 60.1015C143.052 59.7174 142.953 59.1828 142.953 58.4978V53.8253H142.357C142.265 55.4369 141.92 56.8505 141.323 58.0701C140.727 59.2897 139.813 60.2717 138.581 61.0122C138.223 61.2221 137.85 61.3052 137.456 61.2577C137.066 61.2102 136.753 61.0043 136.51 60.6321C136.323 60.343 136.272 60.0104 136.351 59.6421C136.431 59.2739 136.649 58.9888 137.007 58.7908C137.949 58.2641 138.633 57.5633 139.062 56.6921C139.491 55.821 139.753 54.7835 139.849 53.5837C139.121 53.3857 138.625 53.0373 138.358 52.5463C138.092 52.0513 137.961 51.3425 137.961 50.4159V49.7903C137.961 49.7032 137.969 49.6161 137.981 49.525C137.889 49.7507 137.734 49.9328 137.516 50.0794C137.297 50.2259 137.055 50.2971 136.788 50.2971H135.675V50.9901C135.795 51.1089 135.965 51.2752 136.192 51.4851C136.419 51.6949 136.657 51.9206 136.908 52.1582C137.158 52.3958 137.396 52.6096 137.615 52.7997C137.834 52.9898 137.997 53.1323 138.1 53.2274C138.378 53.4372 138.521 53.7144 138.529 54.0589C138.537 54.4034 138.426 54.7123 138.199 54.9894C137.973 55.2666 137.671 55.4131 137.285 55.425C136.9 55.4369 136.59 55.3141 136.351 55.0488C136.18 54.8786 135.954 54.6331 135.675 54.3163V59.9589C135.675 60.3668 135.544 60.6954 135.286 60.937C135.027 61.1825 134.706 61.3052 134.324 61.3052L134.332 61.3171ZM142.182 51.4375H143.573C144.181 51.4375 144.579 51.3702 144.757 51.2396C144.936 51.1089 145.024 50.8357 145.024 50.4278V50.0714C145.024 49.6755 144.932 49.4102 144.757 49.2676C144.579 49.129 144.185 49.0617 143.573 49.0617H142.182C141.574 49.0617 141.18 49.129 141.001 49.2676C140.823 49.4062 140.735 49.6755 140.735 50.0714V50.4278C140.735 50.8357 140.823 51.1089 141.001 51.2396C141.18 51.3702 141.574 51.4375 142.182 51.4375ZM161.757 60.8815C159.901 60.8815 158.403 60.7509 157.258 60.4974C156.113 60.2401 155.215 59.8005 154.563 59.1788C154.404 59.2976 154.205 59.4441 153.967 59.6144C153.728 59.7847 153.506 59.947 153.303 60.1015C153.096 60.2519 152.941 60.3668 152.838 60.4499C152.508 60.6875 152.13 60.7746 151.705 60.7073C151.28 60.64 150.962 60.4301 150.751 60.0737C150.541 59.7293 150.477 59.365 150.56 58.9729C150.648 58.5849 150.871 58.2958 151.224 58.1137C151.423 58.0068 151.689 57.8682 152.019 57.686C152.349 57.5078 152.647 57.3534 152.913 57.2227V53.3026C152.913 52.9977 152.87 52.7957 152.786 52.6888C152.699 52.5819 152.504 52.5304 152.198 52.5304H151.741C151.344 52.5304 151.03 52.4037 150.795 52.1543C150.564 51.9048 150.445 51.5999 150.445 51.2435C150.445 50.8871 150.561 50.5822 150.795 50.3328C151.026 50.0833 151.344 49.9566 151.741 49.9566H153.41C154.893 49.9566 155.636 50.6971 155.636 52.1741V56.6684C155.902 57.0247 156.256 57.3178 156.697 57.5474C157.143 57.7771 157.763 57.9553 158.565 58.0741C159.368 58.1929 160.43 58.2523 161.753 58.2523C162.826 58.2523 163.852 58.2325 164.834 58.1929C165.815 58.1533 166.67 58.1058 167.397 58.0543C167.902 58.0147 168.311 58.1216 168.629 58.379C168.947 58.6364 169.106 58.9769 169.106 59.4006C169.106 59.8243 168.975 60.1925 168.709 60.4697C168.443 60.7469 168.025 60.8855 167.457 60.8855H161.753L161.757 60.8815ZM153.828 47.3986C153.669 47.2283 153.462 47.0343 153.212 46.8165C152.961 46.5987 152.707 46.381 152.456 46.1632C152.206 45.9454 151.979 45.7632 151.781 45.6167C151.502 45.391 151.359 45.094 151.351 44.7258C151.344 44.3575 151.455 44.0408 151.681 43.7754C151.92 43.4983 152.222 43.328 152.588 43.2607C152.953 43.1934 153.291 43.2884 153.609 43.5379C153.955 43.7873 154.336 44.0843 154.754 44.4288C155.171 44.7733 155.505 45.0544 155.759 45.2802C156.065 45.5573 156.22 45.886 156.224 46.2701C156.228 46.6542 156.089 46.9947 155.795 47.2996C155.529 47.5887 155.207 47.7471 154.821 47.7748C154.436 47.8025 154.106 47.6758 153.828 47.3986ZM166.666 57.0406C165.791 56.2882 165.004 55.3775 164.301 54.3084C163.597 53.2392 163.029 52.0592 162.592 50.7644C162.103 51.9642 161.515 53.1125 160.835 54.2094C160.151 55.3062 159.408 56.2288 158.601 56.9812C158.311 57.2702 157.937 57.4009 157.488 57.3653C157.039 57.3336 156.681 57.1515 156.415 56.8188C156.205 56.5298 156.125 56.213 156.185 55.8685C156.244 55.524 156.407 55.227 156.67 54.9776C157.397 54.3163 158.069 53.5125 158.677 52.5621C159.285 51.6118 159.821 50.6139 160.279 49.5606C160.736 48.5113 161.105 47.5134 161.384 46.5631C161.213 46.472 160.966 46.4245 160.648 46.4245H158.919C158.494 46.4245 158.156 46.2938 157.906 46.0285C157.655 45.7632 157.528 45.4425 157.528 45.0584C157.528 44.6743 157.655 44.3536 157.906 44.0883C158.156 43.823 158.494 43.6923 158.919 43.6923H160.966C162.012 43.6923 162.771 43.8744 163.244 44.2387C163.713 44.603 164.003 45.292 164.106 46.3057C164.225 47.4026 164.492 48.4717 164.901 49.521C165.311 50.5704 165.835 51.5484 166.471 52.4592C167.107 53.3699 167.822 54.1698 168.617 54.8548C168.908 55.1043 169.078 55.4211 169.126 55.7972C169.174 56.1734 169.078 56.5021 168.84 56.7792C168.574 57.096 168.232 57.2861 167.807 57.3534C167.381 57.4207 167.004 57.3138 166.674 57.0366L166.666 57.0406ZM172.091 62.7822C171.801 62.6119 171.626 62.3585 171.567 62.0219C171.507 61.6854 171.567 61.3805 171.734 61.0993C172.33 60.1886 172.831 59.3254 173.232 58.5057C173.637 57.686 173.943 56.8347 174.158 55.9437C174.373 55.0528 174.476 54.0589 174.476 52.9621C174.476 51.8652 174.369 50.8753 174.158 49.9922C173.947 49.1092 173.637 48.2539 173.232 47.4303C172.827 46.6067 172.33 45.7355 171.734 44.8248C171.563 44.5476 171.503 44.2427 171.567 43.9022C171.626 43.5656 171.801 43.3122 172.091 43.1419C172.437 42.9439 172.771 42.8805 173.097 42.9558C173.423 43.0271 173.689 43.229 173.904 43.5577C174.885 44.9951 175.645 46.48 176.189 48.0124C176.734 49.5448 177.004 51.192 177.004 52.9621C177.004 54.7321 176.734 56.3753 176.189 57.9038C175.645 59.4283 174.885 60.9172 173.904 62.3664C173.693 62.6951 173.423 62.897 173.097 62.9723C172.771 63.0436 172.437 62.9802 172.091 62.7822Z" fill="url(#paint0_linear_2001_600)"/>
<g clip-path="url(#clip1_2001_600)">
<path d="M96.502 26.8342C96.166 26.8342 96 26.7366 96 26.5415C96 26.0244 96.1484 25.5307 96.4453 25.0546C96.7422 24.5805 97.1739 24.0751 97.7384 23.5366C97.9748 23.3063 98.1974 23.0781 98.4045 22.8517C98.6096 22.6254 98.7795 22.399 98.9123 22.1766C99.0451 21.9542 99.1155 21.7376 99.1213 21.5268C99.135 21.1151 99.0412 20.8088 98.8381 20.6059C98.635 20.4029 98.3498 20.3015 97.9787 20.3015C97.7208 20.3015 97.504 20.3756 97.3282 20.5259C97.1544 20.6761 97.0391 20.8907 96.9825 21.1698C96.9415 21.3239 96.8848 21.441 96.8145 21.5249C96.7442 21.6088 96.6368 21.6498 96.4903 21.6498C96.3438 21.6498 96.2403 21.6029 96.1602 21.5093C96.0801 21.4156 96.0527 21.2849 96.082 21.1171C96.1719 20.6 96.3867 20.1922 96.7266 19.8937C97.0645 19.5932 97.4825 19.4429 97.9787 19.4429C98.383 19.4429 98.7424 19.5249 99.053 19.6888C99.3635 19.8527 99.6038 20.0907 99.7757 20.4049C99.9476 20.719 100.026 21.0995 100.012 21.5463C100.004 21.8742 99.9241 22.1805 99.7718 22.4615C99.6174 22.7444 99.4182 23.0176 99.1741 23.2829C98.9299 23.5483 98.6564 23.8273 98.3576 24.12C98.0216 24.4615 97.7169 24.7912 97.4415 25.1093C97.1661 25.4273 97.004 25.7259 96.9551 26.0029H99.4065C99.7425 26.0029 99.9085 26.1395 99.9085 26.4107C99.9085 26.682 99.7405 26.8303 99.4065 26.8303H96.502V26.8342Z" fill="#424242"/>
<path d="M102.336 26.8342C102.029 26.8342 101.875 26.68 101.875 26.3737V19.7805C101.875 19.48 102.029 19.3298 102.336 19.3298H102.357C102.664 19.3298 102.818 19.48 102.818 19.7805V23.882L104.588 22.0712C104.678 21.96 104.776 21.88 104.877 21.8312C104.979 21.7825 105.074 21.7571 105.166 21.7571C105.34 21.7571 105.467 21.8273 105.543 21.9659C105.619 22.1064 105.567 22.2761 105.387 22.479L103.733 24.081L105.67 26.2781C105.789 26.4322 105.809 26.5688 105.727 26.6917C105.647 26.8147 105.526 26.8751 105.365 26.8751C105.219 26.8751 105.104 26.8556 105.02 26.8186C104.936 26.7795 104.865 26.719 104.811 26.6351L102.82 24.2917V26.3737C102.82 26.68 102.666 26.8342 102.359 26.8342H102.338H102.336Z" fill="#424242"/>
<path d="M109.552 29C108.771 29 108.142 28.7483 107.667 28.2468C107.556 28.1278 107.511 28.0088 107.53 27.8917C107.552 27.7727 107.624 27.6751 107.751 27.599C107.87 27.5151 107.98 27.4878 108.081 27.5151C108.183 27.5424 108.292 27.6088 108.411 27.7141C108.704 27.9932 109.085 28.1337 109.554 28.1337C110.023 28.1337 110.351 27.9893 110.581 27.6985C110.812 27.4098 110.927 26.961 110.927 26.3541V25.8C110.759 26.0088 110.556 26.1727 110.314 26.2917C110.073 26.4107 109.806 26.4693 109.513 26.4693C109.079 26.4693 108.692 26.3756 108.351 26.1863C108.009 25.9971 107.741 25.7239 107.55 25.3649C107.358 25.0059 107.261 24.5746 107.261 24.0732C107.261 23.5717 107.356 23.1327 107.55 22.7815C107.741 22.4302 108.009 22.159 108.351 21.9698C108.692 21.7805 109.081 21.6868 109.513 21.6868C109.82 21.6868 110.111 21.7571 110.382 21.8956C110.654 22.0361 110.874 22.2488 111.042 22.5337V22.1883C111.042 22.0498 111.077 21.9522 111.148 21.8956C111.218 21.839 111.32 21.8117 111.452 21.8117C111.724 21.8117 111.861 21.9756 111.861 22.3034V26.3541C111.861 27.2185 111.663 27.8761 111.269 28.3268C110.874 28.7776 110.304 29.002 109.556 29.002L109.552 29ZM109.573 25.642C109.986 25.642 110.323 25.4995 110.589 25.2127C110.855 24.9259 110.988 24.5473 110.988 24.0712C110.988 23.5951 110.855 23.2205 110.589 22.9415C110.323 22.6624 109.986 22.5239 109.573 22.5239C109.161 22.5239 108.839 22.6644 108.583 22.9415C108.327 23.2205 108.2 23.5971 108.2 24.0712C108.2 24.5454 108.327 24.9259 108.583 25.2127C108.839 25.4995 109.167 25.642 109.573 25.642Z" fill="#424242"/>
<path d="M116.286 26.4419C116.157 26.6975 116.015 26.7853 115.859 26.7034C115.708 26.6097 115.693 26.4439 115.816 26.2058L118.845 20.2663C118.974 20.0166 119.117 19.9327 119.273 20.0127C119.423 20.0946 119.441 20.2605 119.326 20.5102L116.288 26.44L116.286 26.4419Z" fill="#424242"/>
<path d="M127.871 26.9122C127.307 26.9122 126.819 26.8868 126.408 26.8341C125.998 26.7815 125.647 26.6956 125.352 26.5727C125.057 26.4497 124.801 26.2878 124.578 26.0849C124.484 26.1493 124.373 26.2254 124.242 26.3151C124.111 26.4049 123.986 26.4907 123.867 26.5727C123.748 26.6546 123.656 26.7151 123.592 26.7561C123.498 26.8146 123.395 26.8322 123.281 26.8127C123.168 26.7932 123.082 26.7366 123.023 26.6429C122.971 26.5434 122.959 26.4419 122.988 26.3385C123.018 26.2332 123.078 26.1551 123.172 26.1024C123.272 26.0556 123.418 25.9795 123.613 25.8722C123.809 25.7649 123.981 25.6673 124.133 25.5795V23.5132C124.133 23.361 124.108 23.2595 124.055 23.2029C124.002 23.1463 123.9 23.121 123.75 23.121H123.227C123.115 23.121 123.029 23.0839 122.965 23.0078C122.9 22.9317 122.869 22.8478 122.869 22.7541C122.869 22.6546 122.9 22.5688 122.965 22.4927C123.029 22.4166 123.115 22.3795 123.227 22.3795H124.004C124.58 22.3795 124.867 22.6722 124.867 23.2595V25.4312C125.059 25.6107 125.278 25.7532 125.522 25.8585C125.766 25.9639 126.074 26.038 126.448 26.0849C126.821 26.1317 127.295 26.1551 127.871 26.1551C128.383 26.1551 128.856 26.1473 129.29 26.1336C129.723 26.12 130.1 26.1005 130.42 26.0771C130.549 26.0654 130.657 26.0985 130.743 26.1766C130.831 26.2546 130.874 26.3522 130.874 26.4693C130.874 26.5863 130.837 26.6839 130.764 26.7658C130.692 26.8478 130.583 26.8868 130.436 26.8868C130.215 26.8927 129.954 26.8966 129.655 26.9005C129.356 26.9024 129.047 26.9063 128.733 26.9083C128.418 26.9102 128.131 26.9122 127.87 26.9122H127.871ZM124.467 21.0078C124.379 20.9083 124.27 20.801 124.139 20.6858C124.008 20.5688 123.875 20.4556 123.742 20.3405C123.607 20.2273 123.488 20.1336 123.385 20.0575C123.309 19.999 123.272 19.9229 123.272 19.8273C123.272 19.7317 123.303 19.6478 123.367 19.5795C123.432 19.5034 123.51 19.4585 123.604 19.4449C123.697 19.4312 123.787 19.4546 123.875 19.519C123.992 19.601 124.119 19.6985 124.26 19.8117C124.401 19.9249 124.535 20.038 124.666 20.1512C124.797 20.2644 124.906 20.3619 124.994 20.4439C125.076 20.52 125.117 20.6097 125.117 20.7151C125.117 20.8205 125.076 20.9122 124.994 20.9941C124.918 21.0702 124.83 21.1112 124.729 21.1171C124.627 21.1229 124.541 21.0878 124.471 21.0117L124.467 21.0078ZM129.959 25.7102C129.534 25.4956 129.153 25.2302 128.811 24.9161C128.469 24.6019 128.202 24.2449 128.004 23.8429C127.619 24.6449 126.94 25.2654 125.961 25.7005C125.85 25.7473 125.74 25.761 125.629 25.7395C125.518 25.72 125.434 25.6536 125.375 25.5424C125.322 25.4371 125.315 25.3356 125.35 25.238C125.385 25.1385 125.463 25.0644 125.586 25.0117C126.074 24.7971 126.465 24.5532 126.756 24.28C127.047 24.0068 127.256 23.6849 127.385 23.3122H125.604C125.498 23.3122 125.414 23.2751 125.35 23.2029C125.285 23.1307 125.254 23.0468 125.254 22.9551C125.254 22.8556 125.285 22.7717 125.35 22.7014C125.414 22.6312 125.498 22.5961 125.604 22.5961H127.524C127.53 22.5317 127.534 22.4693 127.537 22.4088C127.539 22.3483 127.541 22.2858 127.541 22.2214V21.6029H125.891C125.785 21.6029 125.703 21.5678 125.643 21.4975C125.582 21.4273 125.551 21.3473 125.551 21.2536C125.551 21.1541 125.582 21.0722 125.643 21.0058C125.703 20.9395 125.787 20.9063 125.891 20.9063H128.153C128.217 20.7834 128.293 20.6293 128.383 20.4439C128.473 20.2585 128.561 20.0751 128.645 19.8936C128.729 19.7141 128.791 19.5717 128.832 19.4663C128.879 19.3551 128.95 19.281 129.047 19.2439C129.143 19.2068 129.241 19.2068 129.34 19.2478C129.44 19.2829 129.512 19.3454 129.559 19.4351C129.606 19.5249 129.606 19.6224 129.559 19.7278C129.495 19.8741 129.403 20.0595 129.28 20.2858C129.157 20.5122 129.043 20.719 128.94 20.9044H130.032C130.143 20.9044 130.229 20.9375 130.29 21.0039C130.35 21.0702 130.381 21.1541 130.381 21.2517C130.381 21.3454 130.35 21.4254 130.29 21.4956C130.229 21.5658 130.143 21.601 130.032 21.601H128.346V22.4068C128.346 22.4673 128.34 22.5297 128.329 22.5941H130.397C130.508 22.5941 130.594 22.6293 130.659 22.6995C130.723 22.7697 130.754 22.8536 130.754 22.9532C130.754 23.0468 130.723 23.1288 130.659 23.201C130.594 23.2732 130.506 23.3102 130.397 23.3102H128.52C128.676 23.7005 128.913 24.0341 129.227 24.3132C129.541 24.5922 129.93 24.8341 130.397 25.0371C130.503 25.078 130.569 25.1483 130.598 25.2497C130.628 25.3512 130.618 25.4527 130.573 25.5502C130.514 25.6556 130.426 25.7219 130.307 25.7512C130.188 25.7805 130.073 25.7649 129.961 25.7083L129.959 25.7102ZM127.348 20.7736C127.254 20.8322 127.16 20.8497 127.065 20.8302C126.969 20.8107 126.889 20.7541 126.825 20.6605C126.778 20.5785 126.717 20.4829 126.641 20.3717C126.565 20.2605 126.49 20.1532 126.418 20.0497C126.346 19.9444 126.285 19.8605 126.239 19.7961C126.18 19.72 126.162 19.6361 126.186 19.5424C126.209 19.4488 126.258 19.3766 126.334 19.3239C126.422 19.2712 126.514 19.2497 126.614 19.2595C126.713 19.2673 126.793 19.3141 126.858 19.3941C126.91 19.4585 126.975 19.5463 127.055 19.6595C127.135 19.7727 127.211 19.8858 127.291 19.9951C127.369 20.1063 127.426 20.1922 127.461 20.2566C127.526 20.3502 127.543 20.4458 127.518 20.5454C127.493 20.6449 127.436 20.719 127.348 20.7717V20.7736Z" fill="#424242"/>
<path d="M134.343 27.1561C134.243 27.1561 134.157 27.121 134.085 27.0508C134.013 26.9805 133.976 26.8908 133.976 26.7795V23.8839C133.796 24.1688 133.607 24.4459 133.409 24.7171C133.212 24.9883 133.028 25.2166 132.858 25.402C132.788 25.4781 132.702 25.5191 132.601 25.5288C132.499 25.5366 132.409 25.5034 132.335 25.4293C132.259 25.3649 132.222 25.2849 132.222 25.1854C132.222 25.0859 132.257 25.0059 132.327 24.9415C132.483 24.7854 132.661 24.5766 132.86 24.3171C133.058 24.0576 133.249 23.7844 133.433 23.4976C133.616 23.2108 133.769 22.9473 133.892 22.7093H132.634C132.54 22.7093 132.46 22.6761 132.39 22.6098C132.319 22.5434 132.284 22.4634 132.284 22.3698C132.284 22.2703 132.319 22.1883 132.39 22.122C132.46 22.0556 132.54 22.0225 132.634 22.0225H133.978V19.4644C133.978 19.3473 134.015 19.2576 134.087 19.1893C134.159 19.121 134.245 19.0898 134.345 19.0898C134.45 19.0898 134.538 19.123 134.611 19.1893C134.683 19.2556 134.72 19.3473 134.72 19.4644V22.0205H135.829C135.929 22.0205 136.011 22.0537 136.077 22.12C136.144 22.1864 136.177 22.2703 136.177 22.3678C136.177 22.4615 136.144 22.5415 136.077 22.6078C136.011 22.6742 135.927 22.7073 135.829 22.7073H134.72V22.8908C134.825 23.0137 134.952 23.1581 135.105 23.3259C135.255 23.4956 135.409 23.6576 135.564 23.8137C135.718 23.9698 135.845 24.0966 135.943 24.1883C135.99 24.2351 136.021 24.2878 136.038 24.3444C136.103 24.2508 136.193 24.1961 136.31 24.1786C136.589 24.1317 136.929 24.0712 137.328 23.9951C137.726 23.9191 138.121 23.841 138.511 23.7591V19.4644C138.511 19.3473 138.548 19.2576 138.624 19.1893C138.701 19.123 138.791 19.0898 138.896 19.0898C139.001 19.0898 139.089 19.123 139.162 19.1893C139.234 19.2556 139.271 19.3473 139.271 19.4644V23.6069C139.416 23.5717 139.552 23.5405 139.677 23.5112C139.802 23.482 139.914 23.4566 140.013 23.4332C140.113 23.4039 140.205 23.4176 140.293 23.4722C140.38 23.5269 140.431 23.6049 140.449 23.7025C140.49 23.9405 140.4 24.0869 140.177 24.1395C140.048 24.1688 139.908 24.2 139.753 24.2351C139.599 24.2703 139.437 24.3073 139.269 24.3483V26.7717C139.269 26.883 139.232 26.9747 139.16 27.0469C139.087 27.1191 138.998 27.1561 138.894 27.1561C138.791 27.1561 138.699 27.1191 138.623 27.0469C138.546 26.9747 138.509 26.883 138.509 26.7717V24.5122C138.148 24.5883 137.787 24.6625 137.423 24.7347C137.06 24.8069 136.732 24.8693 136.441 24.922C136.329 24.9395 136.234 24.922 136.152 24.8693C136.07 24.8166 136.015 24.7386 135.986 24.6332C135.974 24.6566 135.962 24.6742 135.95 24.6859C135.886 24.762 135.804 24.801 135.702 24.803C135.601 24.8069 135.515 24.7717 135.445 24.7034C135.351 24.6039 135.241 24.481 135.113 24.3327C134.984 24.1844 134.853 24.0283 134.72 23.8664V26.7795C134.72 26.8908 134.683 26.9805 134.611 27.0508C134.538 27.121 134.448 27.1561 134.345 27.1561H134.343ZM133.427 21.6186C133.333 21.6595 133.243 21.6615 133.155 21.6264C133.067 21.5912 133.007 21.5269 132.972 21.4351C132.937 21.3434 132.892 21.2303 132.837 21.0995C132.782 20.9688 132.726 20.8361 132.667 20.7034C132.608 20.5708 132.554 20.4537 132.501 20.3542C132.46 20.2722 132.458 20.1903 132.497 20.1064C132.534 20.0225 132.597 19.962 132.685 19.9269C132.784 19.8859 132.874 19.882 132.956 19.9132C133.038 19.9444 133.099 20.0049 133.14 20.0927C133.187 20.1805 133.241 20.2937 133.306 20.4322C133.37 20.5708 133.433 20.7093 133.493 20.8459C133.554 20.9825 133.603 21.0976 133.638 21.1893C133.673 21.283 133.671 21.3688 133.634 21.4469C133.597 21.5249 133.528 21.5815 133.429 21.6166L133.427 21.6186ZM135.198 21.6634C135.105 21.6225 135.042 21.56 135.011 21.4761C134.98 21.3922 134.984 21.3122 135.025 21.2361C135.077 21.1366 135.136 21.0137 135.198 20.8654C135.263 20.7171 135.325 20.5708 135.386 20.4244C135.447 20.28 135.491 20.1591 135.521 20.0673C135.562 19.9678 135.626 19.8995 135.712 19.8586C135.8 19.8176 135.886 19.8156 135.974 19.8508C136.068 19.88 136.134 19.9327 136.175 20.0127C136.216 20.0908 136.218 20.1805 136.183 20.2781C136.142 20.3951 136.091 20.5278 136.031 20.68C135.97 20.8322 135.906 20.9805 135.839 21.1288C135.773 21.2771 135.71 21.4 135.652 21.4995C135.611 21.5756 135.546 21.6303 135.46 21.6654C135.372 21.7005 135.286 21.7005 135.198 21.6654V21.6634ZM137.415 23.1366C137.304 23.0371 137.163 22.9278 136.992 22.8049C136.82 22.6839 136.667 22.5786 136.533 22.4908C136.456 22.4322 136.415 22.3522 136.406 22.2508C136.398 22.1493 136.421 22.0595 136.48 21.9854C136.55 21.9034 136.63 21.8566 136.724 21.8469C136.818 21.8351 136.91 21.8586 137.003 21.9171C137.091 21.9698 137.191 22.0342 137.304 22.1142L137.644 22.3503C137.757 22.4283 137.849 22.5005 137.919 22.563C138.001 22.6332 138.042 22.7191 138.046 22.8244C138.048 22.9298 138.015 23.0215 137.947 23.1034C137.876 23.1795 137.79 23.2205 137.689 23.2264C137.587 23.2322 137.495 23.203 137.413 23.1386L137.415 23.1366ZM137.662 21.2869C137.55 21.1873 137.413 21.0761 137.247 20.9512C137.081 20.8264 136.931 20.7171 136.798 20.6234C136.716 20.5649 136.673 20.4849 136.667 20.3834C136.661 20.282 136.691 20.1922 136.755 20.1181C136.826 20.0361 136.908 19.9912 137.003 19.9834C137.099 19.9756 137.191 19.9991 137.279 20.0576C137.361 20.1103 137.458 20.1766 137.572 20.2586C137.685 20.3405 137.798 20.4225 137.912 20.5064C138.025 20.5903 138.117 20.6644 138.187 20.7288C138.269 20.7991 138.31 20.8849 138.31 20.9903C138.31 21.0956 138.273 21.1873 138.197 21.2693C138.126 21.3454 138.04 21.3844 137.939 21.3864C137.837 21.3903 137.746 21.3551 137.663 21.2869H137.662Z" fill="#424242"/>
<path d="M142.198 26.8947C142.087 26.8947 141.993 26.8576 141.915 26.7854C141.837 26.7132 141.798 26.6215 141.798 26.5103C141.798 26.3932 141.837 26.2995 141.915 26.2273C141.993 26.1551 142.089 26.1181 142.198 26.1181H146.695C147.009 26.1181 147.246 26.0927 147.402 26.0439C147.558 25.9951 147.664 25.8995 147.716 25.761C147.769 25.6225 147.794 25.4176 147.794 25.1503V24.9942H142.583C142.472 24.9942 142.378 24.9571 142.3 24.8849C142.222 24.8127 142.183 24.721 142.183 24.6098C142.183 24.4927 142.222 24.3991 142.3 24.3269C142.378 24.2547 142.474 24.2176 142.583 24.2176H147.794V24.122C147.794 23.8488 147.769 23.642 147.716 23.5034C147.664 23.363 147.56 23.2693 147.402 23.2205C147.246 23.1717 147.009 23.1464 146.695 23.1464H142.226C142.114 23.1464 142.022 23.1093 141.946 23.0371C141.87 22.9649 141.833 22.8732 141.833 22.762C141.833 22.6449 141.87 22.5532 141.946 22.483C142.022 22.4127 142.114 22.3776 142.226 22.3776H144.958V19.5522C144.958 19.4351 144.999 19.3395 145.081 19.2654C145.163 19.1893 145.259 19.1522 145.37 19.1522C145.488 19.1522 145.583 19.1893 145.663 19.2654C145.741 19.3415 145.781 19.4371 145.781 19.5522V22.3776H146.697C147.203 22.3776 147.595 22.4322 147.874 22.5395C148.154 22.6469 148.351 22.8283 148.464 23.08C148.578 23.3317 148.634 23.681 148.634 24.122V25.1503C148.634 25.5815 148.578 25.923 148.464 26.1786C148.351 26.4342 148.154 26.6176 147.874 26.7288C147.595 26.84 147.203 26.8947 146.697 26.8947H142.2H142.198ZM143.874 22.0556C143.775 22.1142 143.671 22.1278 143.564 22.0986C143.456 22.0693 143.376 22.0049 143.323 21.9073C143.253 21.7688 143.161 21.601 143.044 21.4059C142.927 21.2108 142.808 21.0156 142.687 20.8205C142.564 20.6254 142.454 20.4654 142.355 20.3366C142.296 20.2547 142.28 20.163 142.306 20.0615C142.331 19.96 142.388 19.88 142.476 19.8215C142.569 19.763 142.667 19.7454 142.773 19.7649C142.878 19.7864 142.964 19.8391 143.034 19.9269C143.14 20.0615 143.255 20.2273 143.384 20.4244C143.513 20.6215 143.636 20.8186 143.755 21.0137C143.874 21.2088 143.968 21.3766 144.038 21.5151C144.091 21.6147 144.103 21.7142 144.073 21.8156C144.044 21.9171 143.978 21.9971 143.872 22.0556H143.874ZM146.722 22.0908C146.628 22.0322 146.57 21.9542 146.548 21.8547C146.525 21.7551 146.542 21.6654 146.601 21.5834C146.701 21.4391 146.814 21.2615 146.941 21.0508C147.07 20.842 147.195 20.6273 147.316 20.4088C147.437 20.1903 147.537 20.0069 147.613 19.8547C147.665 19.7434 147.744 19.6712 147.849 19.6361C147.955 19.601 148.058 19.6069 148.164 19.6537C148.269 19.6947 148.343 19.7649 148.39 19.8683C148.437 19.9698 148.431 20.0771 148.373 20.1864C148.291 20.3483 148.187 20.5415 148.058 20.762C147.929 20.9825 147.798 21.1991 147.662 21.4117C147.525 21.6244 147.404 21.802 147.3 21.9483C147.236 22.042 147.148 22.1025 147.038 22.1317C146.927 22.161 146.824 22.1473 146.724 22.0888L146.722 22.0908Z" fill="#424242"/>
<path d="M152.582 27.1308C152.476 27.1308 152.387 27.0937 152.31 27.0215C152.234 26.9493 152.197 26.8537 152.197 26.7386V23.8351C152.023 23.9971 151.844 24.1532 151.66 24.3015C151.476 24.4498 151.291 24.5903 151.105 24.7249C151.012 24.7893 150.906 24.8166 150.787 24.8069C150.668 24.7991 150.576 24.7464 150.512 24.6547C150.447 24.561 150.424 24.4634 150.441 24.3581C150.459 24.2527 150.513 24.1727 150.607 24.1142C150.887 23.9347 151.172 23.7239 151.463 23.482C151.754 23.24 152.029 22.9864 152.287 22.7191C152.547 22.4517 152.764 22.1961 152.937 21.9522C153.158 21.6439 153.086 21.4898 152.719 21.4898H151.033C150.933 21.4898 150.847 21.4547 150.775 21.3844C150.703 21.3142 150.666 21.2283 150.666 21.123C150.666 21.0234 150.703 20.9395 150.775 20.8693C150.847 20.7991 150.933 20.7639 151.033 20.7639H152.168V19.4742C152.168 19.3571 152.205 19.2654 152.281 19.1951C152.357 19.1249 152.447 19.0898 152.553 19.0898C152.664 19.0898 152.756 19.1249 152.832 19.1951C152.908 19.2654 152.945 19.3571 152.945 19.4742V20.7659C153.416 20.7717 153.719 20.9044 153.854 21.162C153.988 21.4215 153.926 21.7415 153.67 22.1259C153.541 22.323 153.396 22.522 153.234 22.7191C153.352 22.7893 153.482 22.8693 153.631 22.9591C153.779 23.0488 153.924 23.1366 154.066 23.2205C154.209 23.3044 154.324 23.3766 154.412 23.4351C154.506 23.4937 154.563 23.5756 154.586 23.683C154.609 23.7903 154.588 23.8917 154.525 23.9834C154.461 24.0771 154.373 24.1337 154.264 24.1532C154.152 24.1747 154.049 24.1532 153.949 24.0966C153.826 24.0205 153.674 23.9191 153.49 23.7922C153.307 23.6634 153.133 23.5425 152.971 23.4254V26.7386C152.971 26.8556 152.934 26.9493 152.857 27.0215C152.781 27.0937 152.689 27.1308 152.578 27.1308H152.582ZM154.145 26.7464C154.039 26.7464 153.949 26.7093 153.873 26.6332C153.797 26.5571 153.76 26.4673 153.76 26.362C153.76 26.2566 153.797 26.1669 153.873 26.0927C153.949 26.0166 154.039 25.9795 154.145 25.9795H155.848V22.6488H154.582C154.477 22.6488 154.387 22.6117 154.311 22.5356C154.234 22.4595 154.197 22.3698 154.197 22.2644C154.197 22.1532 154.234 22.0615 154.311 21.9854C154.387 21.9093 154.477 21.8722 154.582 21.8722H155.848V19.5093C155.848 19.3883 155.887 19.2908 155.965 19.2166C156.043 19.1444 156.139 19.1073 156.248 19.1073C156.365 19.1073 156.463 19.1444 156.541 19.2166C156.619 19.2888 156.658 19.3864 156.658 19.5093V21.8722H157.959C158.065 21.8722 158.155 21.9093 158.231 21.9854C158.307 22.0615 158.344 22.1551 158.344 22.2644C158.344 22.3698 158.307 22.4595 158.231 22.5356C158.155 22.6117 158.065 22.6488 157.959 22.6488H156.658V25.9795H158.229C158.334 25.9795 158.424 26.0166 158.5 26.0927C158.577 26.1688 158.614 26.2586 158.614 26.362C158.614 26.4654 158.577 26.5571 158.5 26.6332C158.424 26.7093 158.334 26.7464 158.229 26.7464H154.143H154.145Z" fill="#424242"/>
<path d="M163.204 25.4388C162.796 25.4388 162.466 25.4193 162.208 25.3783C161.952 25.3374 161.757 25.2613 161.624 25.1481C161.489 25.0349 161.397 24.871 161.348 24.6603C161.3 24.4476 161.274 24.1705 161.274 23.8271V22.8769C161.274 22.5335 161.3 22.2583 161.348 22.0476C161.397 21.8388 161.489 21.6749 161.624 21.5598C161.759 21.4427 161.952 21.3647 162.208 21.3237C162.464 21.2827 162.796 21.2632 163.204 21.2632H163.981C164.046 21.1813 164.112 21.0974 164.183 21.0096C164.253 20.9218 164.312 20.8476 164.357 20.7832C164.48 20.6271 164.444 20.5471 164.251 20.5471H162.462C162.177 20.8203 161.874 21.072 161.554 21.3022C161.233 21.5325 160.923 21.7335 160.62 21.9091C160.509 21.9676 160.397 21.9871 160.284 21.9657C160.171 21.9442 160.085 21.8896 160.026 21.7959C159.973 21.7022 159.956 21.6066 159.973 21.5091C159.991 21.4096 160.052 21.3354 160.157 21.2827C160.483 21.1149 160.8 20.9179 161.104 20.6935C161.409 20.4691 161.69 20.2291 161.946 19.9735C162.202 19.7179 162.411 19.4642 162.575 19.2144C162.64 19.1149 162.731 19.0505 162.851 19.0174C162.97 18.9861 163.079 19.0018 163.179 19.0661C163.272 19.1305 163.325 19.2125 163.341 19.3101C163.354 19.4096 163.327 19.5071 163.259 19.6066C163.224 19.6593 163.187 19.712 163.149 19.7627C163.112 19.8154 163.071 19.8681 163.032 19.9188H164.831C165.128 19.9188 165.327 20.0047 165.429 20.1764C165.53 20.3481 165.503 20.5471 165.347 20.7735C165.288 20.8496 165.228 20.9296 165.163 21.0135C165.099 21.0974 165.034 21.1813 164.972 21.2613C165.316 21.2671 165.595 21.2964 165.81 21.3491C166.025 21.4018 166.189 21.4857 166.304 21.6027C166.417 21.7198 166.495 21.8798 166.534 22.0866C166.575 22.2935 166.595 22.5569 166.595 22.8749V23.8252C166.595 24.1686 166.57 24.4457 166.521 24.6583C166.472 24.871 166.38 25.033 166.245 25.1461C166.111 25.2593 165.917 25.3374 165.665 25.3764C165.411 25.4174 165.079 25.4369 164.665 25.4369H163.208L163.204 25.4388ZM160.846 27.0876C160.718 27.1286 160.604 27.1286 160.507 27.0876C160.407 27.0466 160.339 26.9705 160.298 26.8613C160.257 26.7559 160.261 26.6544 160.311 26.5569C160.36 26.4574 160.45 26.3949 160.577 26.3657C160.78 26.3071 161.013 26.231 161.276 26.1354C161.538 26.0398 161.796 25.9364 162.05 25.8252C162.304 25.714 162.522 25.6125 162.708 25.5208C162.808 25.4681 162.905 25.4544 163.001 25.4779C163.097 25.5013 163.169 25.5559 163.214 25.6437C163.261 25.7374 163.269 25.8291 163.239 25.9188C163.21 26.0086 163.145 26.0827 163.048 26.1413C162.845 26.2525 162.612 26.3676 162.354 26.4905C162.095 26.6135 161.835 26.7266 161.573 26.8301C161.311 26.9335 161.069 27.0213 160.848 27.0915L160.846 27.0876ZM162.087 23.634H165.771V23.0759H162.087V23.634ZM162.095 22.4652H165.761C165.749 22.2915 165.712 22.1647 165.652 22.0866C165.591 22.0086 165.484 21.9579 165.329 21.9383C165.175 21.9188 164.952 21.9071 164.661 21.9071H163.204C162.919 21.9071 162.698 21.9169 162.54 21.9383C162.382 21.9598 162.274 22.0086 162.212 22.0866C162.151 22.1647 162.112 22.2915 162.095 22.4652ZM163.204 24.793H164.661C164.952 24.793 165.175 24.7832 165.329 24.7618C165.484 24.7422 165.591 24.6915 165.652 24.6096C165.712 24.5276 165.749 24.4027 165.761 24.2349H162.095C162.112 24.4027 162.151 24.5276 162.212 24.6096C162.272 24.6915 162.382 24.7422 162.54 24.7618C162.696 24.7813 162.919 24.793 163.204 24.793ZM166.913 27.0876C166.698 27.0174 166.458 26.9315 166.193 26.8261C165.927 26.7208 165.667 26.6076 165.411 26.4866C165.155 26.3637 164.923 26.2486 164.712 26.1374C164.612 26.0788 164.55 26.0047 164.525 25.9149C164.499 25.8252 164.509 25.7335 164.556 25.6398C164.603 25.552 164.673 25.4974 164.771 25.474C164.866 25.4505 164.962 25.4661 165.054 25.5169C165.239 25.6105 165.462 25.712 165.718 25.8213C165.974 25.9325 166.234 26.034 166.495 26.1315C166.757 26.2271 166.99 26.3052 167.195 26.3618C167.318 26.391 167.402 26.4554 167.452 26.553C167.501 26.6525 167.507 26.754 167.466 26.8574C167.425 26.9686 167.357 27.0427 167.261 27.0837C167.165 27.1247 167.05 27.1247 166.915 27.0837L166.913 27.0876Z" fill="#424242"/>
<path d="M169.841 27.1054C169.706 27.1054 169.605 27.0703 169.531 27C169.458 26.9298 169.415 26.8381 169.404 26.721C169.398 26.6098 169.425 26.5142 169.486 26.4342C169.546 26.3522 169.636 26.3034 169.751 26.2859C169.978 26.2742 170.122 26.239 170.183 26.1805C170.243 26.122 170.275 25.9971 170.275 25.8059V24.1395C169.966 24.2683 169.718 24.3659 169.532 24.4361C169.415 24.4771 169.302 24.4751 169.193 24.4322C169.081 24.3893 169.003 24.3034 168.956 24.1746C168.921 24.0634 168.929 23.962 168.978 23.8644C169.027 23.7688 169.107 23.7005 169.218 23.6595C169.329 23.6185 169.478 23.5659 169.667 23.4976C169.857 23.4312 170.058 23.359 170.275 23.2849V21.6634H169.349C169.238 21.6634 169.15 21.6264 169.083 21.5542C169.017 21.482 168.984 21.3922 168.984 21.2888C168.984 21.1893 169.017 21.1034 169.083 21.0312C169.15 20.959 169.24 20.922 169.349 20.922H170.275V19.4566C170.275 19.3395 170.312 19.2478 170.388 19.1776C170.464 19.1073 170.554 19.0722 170.66 19.0722C170.765 19.0722 170.855 19.1073 170.931 19.1776C171.007 19.2478 171.044 19.3395 171.044 19.4566V20.922H171.716C171.828 20.922 171.915 20.959 171.982 21.0312C172.048 21.1034 172.082 21.1893 172.082 21.2888C172.082 21.3942 172.048 21.482 171.982 21.5542C171.915 21.6264 171.826 21.6634 171.716 21.6634H171.044V23.0156C171.171 22.9688 171.29 22.9278 171.398 22.8888C171.505 22.8517 171.595 22.8205 171.664 22.7971C171.763 22.762 171.855 22.7659 171.939 22.8049C172.023 22.8459 172.08 22.9122 172.109 23.0059C172.144 23.1054 172.146 23.199 172.113 23.2888C172.082 23.3785 172.007 23.4468 171.89 23.4937C171.802 23.5346 171.685 23.5834 171.537 23.642C171.388 23.7005 171.224 23.7649 171.044 23.8332V25.962C171.044 26.3639 170.956 26.6546 170.779 26.8342C170.601 27.0137 170.288 27.1054 169.841 27.1054ZM171.91 26.7288C171.798 26.7288 171.708 26.6917 171.638 26.6156C171.568 26.5395 171.533 26.4537 171.533 26.3542C171.533 26.2488 171.568 26.161 171.638 26.0888C171.708 26.0166 171.798 25.9795 171.91 25.9795H176.623C176.74 25.9795 176.83 26.0166 176.898 26.0888C176.965 26.161 176.998 26.2507 176.998 26.3542C176.998 26.4537 176.965 26.5395 176.898 26.6156C176.832 26.6917 176.74 26.7288 176.623 26.7288H171.91ZM174.371 24.8985C173.882 24.8985 173.502 24.8478 173.232 24.7464C172.96 24.6449 172.771 24.4751 172.66 24.241C172.548 24.0049 172.494 23.6907 172.494 23.2946V21.1756C172.494 20.7737 172.548 20.4556 172.66 20.2215C172.771 19.9854 172.96 19.8176 173.232 19.7161C173.503 19.6146 173.882 19.5639 174.371 19.5639C174.859 19.5639 175.248 19.6146 175.519 19.7161C175.791 19.8176 175.978 19.9873 176.088 20.2215C176.195 20.4576 176.25 20.7756 176.25 21.1756V23.2946C176.25 23.6907 176.195 24.0049 176.088 24.241C175.98 24.4771 175.791 24.6449 175.519 24.7464C175.248 24.8478 174.865 24.8985 174.371 24.8985ZM173.263 21.8546H175.48V21.1737C175.48 20.9356 175.455 20.7503 175.402 20.6195C175.349 20.4888 175.246 20.399 175.088 20.3483C174.931 20.2995 174.691 20.2742 174.371 20.2742C174.05 20.2742 173.82 20.2995 173.66 20.3483C173.5 20.3971 173.394 20.4868 173.341 20.6195C173.289 20.7503 173.263 20.9356 173.263 21.1737V21.8546ZM174.371 24.1922C174.691 24.1922 174.929 24.1668 175.088 24.1181C175.244 24.0693 175.349 23.9795 175.402 23.8488C175.455 23.7181 175.48 23.5327 175.48 23.2946V22.5532H173.263V23.2946C173.263 23.5327 173.289 23.7181 173.341 23.8488C173.394 23.9795 173.5 24.0693 173.66 24.1181C173.82 24.1668 174.056 24.1922 174.371 24.1922Z" fill="#424242"/>
</g>
</g>
<defs>
<linearGradient id="paint0_linear_2001_600" x1="29.5" y1="39" x2="29.5" y2="15" gradientUnits="userSpaceOnUse">
<stop stop-color="#FF5100"/>
<stop offset="1" stop-color="#FF9100"/>
</linearGradient>
<clipPath id="clip0_2001_600">
<rect width="177" height="48" fill="white" transform="translate(0 15)"/>
</clipPath>
<clipPath id="clip1_2001_600">
<rect width="81" height="10" fill="white" transform="translate(96 19)"/>
</clipPath>
</defs>
</svg>
