<svg width="336" height="382" viewBox="0 0 336 382" fill="none" xmlns="http://www.w3.org/2000/svg">
<g filter="url(#filter0_d_173_1240)">
<rect x="2" y="2" width="326" height="372" rx="10" fill="white" shape-rendering="crispEdges"/>
<path d="M35.5 37L37.4084 42.8734L43.584 42.8734L38.5878 46.5033L40.4962 52.3766L35.5 48.7467L30.5038 52.3766L32.4122 46.5033L27.416 42.8734L33.5916 42.8734L35.5 37Z" fill="#FF5100"/>
<path d="M57.5 37L59.4084 42.8734L65.584 42.8734L60.5878 46.5033L62.4962 52.3766L57.5 48.7467L52.5038 52.3766L54.4122 46.5033L49.416 42.8734L55.5916 42.8734L57.5 37Z" fill="#FF5100"/>
<path d="M79.5 37L81.4084 42.8734L87.584 42.8734L82.5878 46.5033L84.4962 52.3766L79.5 48.7467L74.5038 52.3766L76.4122 46.5033L71.416 42.8734L77.5916 42.8734L79.5 37Z" fill="#FF5100"/>
<path d="M101.5 37L103.408 42.8734L109.584 42.8734L104.588 46.5033L106.496 52.3766L101.5 48.7467L96.5038 52.3766L98.4122 46.5033L93.416 42.8734L99.5916 42.8734L101.5 37Z" fill="#FF5100"/>
<path d="M123.5 37L125.408 42.8734L131.584 42.8734L126.588 46.5033L128.496 52.3766L123.5 48.7467L118.504 52.3766L120.412 46.5033L115.416 42.8734L121.592 42.8734L123.5 37Z" fill="#FF5100"/>
</g>
<defs>
<filter id="filter0_d_173_1240" x="0" y="0" width="336" height="382" filterUnits="userSpaceOnUse" color-interpolation-filters="sRGB">
<feFlood flood-opacity="0" result="BackgroundImageFix"/>
<feColorMatrix in="SourceAlpha" type="matrix" values="0 0 0 0 0 0 0 0 0 0 0 0 0 0 0 0 0 0 127 0" result="hardAlpha"/>
<feOffset dx="3" dy="3"/>
<feGaussianBlur stdDeviation="2.5"/>
<feComposite in2="hardAlpha" operator="out"/>
<feColorMatrix type="matrix" values="0 0 0 0 0 0 0 0 0 0 0 0 0 0 0 0 0 0 0.05 0"/>
<feBlend mode="normal" in2="BackgroundImageFix" result="effect1_dropShadow_173_1240"/>
<feBlend mode="normal" in="SourceGraphic" in2="effect1_dropShadow_173_1240" result="shape"/>
</filter>
</defs>
</svg>
