<svg width="98" height="72" viewBox="0 0 98 72" fill="none" xmlns="http://www.w3.org/2000/svg">
<g clip-path="url(#clip0_173_895)">
<path d="M97.5478 43.7365L87.417 35.5464L97.5478 27.3693" fill="#E1D7BF"/>
<path d="M0.452148 35.5464C24.5128 16.095 63.4983 16.095 87.559 35.5464C63.4983 54.9978 24.5128 54.9978 0.452148 35.5464Z" fill="#E1D7BF"/>
<path d="M26.9165 24.6479C29.8627 24.6479 32.2662 29.5335 32.2662 35.5594C32.2662 41.5853 29.8756 46.4708 26.9165 46.4708" stroke="#5B4A27" stroke-width="0.7" stroke-linecap="round" stroke-linejoin="round"/>
<path d="M0.452148 35.5464C24.5128 16.095 63.4983 16.095 87.559 35.5464C63.4983 54.9978 24.5128 54.9978 0.452148 35.5464Z" stroke="#5B4A27" stroke-width="0.7" stroke-linecap="round" stroke-linejoin="round"/>
<path d="M97.5478 43.7365L87.417 35.5464L97.5478 27.3693" stroke="#5B4A27" stroke-width="0.7" stroke-linecap="round" stroke-linejoin="round"/>
<path d="M38.1455 32.5788L49.8399 30.324V40.7689L38.1455 38.527" stroke="#5B4A27" stroke-width="0.7" stroke-linecap="round" stroke-linejoin="round"/>
<path d="M14.744 35.5464C15.4006 35.5464 15.9328 35.0127 15.9328 34.3542C15.9328 33.6958 15.4006 33.162 14.744 33.162C14.0874 33.162 13.5552 33.6958 13.5552 34.3542C13.5552 35.0127 14.0874 35.5464 14.744 35.5464Z" stroke="#5B4A27" stroke-width="0.7" stroke-linecap="round" stroke-linejoin="round"/>
<path d="M55.1504 30.324C55.1504 30.324 67.4779 30.0259 79.1594 33.6933" stroke="#5B4A27" stroke-width="0.7" stroke-linecap="round" stroke-linejoin="round"/>
<path d="M55.1504 35.5464H80.1414" stroke="#5B4A27" stroke-width="0.7" stroke-linecap="round" stroke-linejoin="round"/>
<path d="M33.0415 0.453552H36.5692C38.921 0.453552 40.8205 2.35852 40.8205 4.71705V8.24189C40.8205 10.6004 38.921 12.5054 36.5692 12.5054H33.0415V0.453552Z" stroke="#5B4A27" stroke-width="0.7" stroke-linecap="round" stroke-linejoin="round"/>
<path d="M45.4336 0.453552V12.5183" stroke="#5B4A27" stroke-width="0.7" stroke-linecap="round" stroke-linejoin="round"/>
<path d="M52.1396 0.453552V12.5183" stroke="#5B4A27" stroke-width="0.7" stroke-linecap="round" stroke-linejoin="round"/>
<path d="M45.4336 6.47949H52.1401" stroke="#5B4A27" stroke-width="0.7" stroke-linecap="round" stroke-linejoin="round"/>
<path d="M56.6885 12.5183L60.8106 0.453552L64.9456 12.5183" stroke="#5B4A27" stroke-width="0.7" stroke-linecap="round" stroke-linejoin="round"/>
<path d="M58.0459 8.53992H63.5765" stroke="#5B4A27" stroke-width="0.7" stroke-linecap="round" stroke-linejoin="round"/>
<path d="M55.2021 71.5464L59.3372 59.4816L63.4593 71.5464" stroke="#5B4A27" stroke-width="0.7" stroke-linecap="round" stroke-linejoin="round"/>
<path d="M56.5586 67.581H62.1021" stroke="#5B4A27" stroke-width="0.7" stroke-linecap="round" stroke-linejoin="round"/>
<path d="M41.6729 59.6371H34.5142V71.3002H42.0993" stroke="#5B4A27" stroke-width="0.7" stroke-linecap="round" stroke-linejoin="round"/>
<path d="M34.5142 65.4687H40.9234" stroke="#5B4A27" stroke-width="0.7" stroke-linecap="round" stroke-linejoin="round"/>
<path d="M46.6221 71.3002V59.6371H50.1239C51.9071 59.6371 53.3544 61.0885 53.3544 62.8769C53.3544 64.6134 51.9847 66.0518 50.2531 66.1166L46.6221 66.2592" stroke="#5B4A27" stroke-width="0.7" stroke-linecap="round" stroke-linejoin="round"/>
</g>
<defs>
<clipPath id="clip0_173_895">
<rect width="98" height="72" fill="white"/>
</clipPath>
</defs>
</svg>
