<svg width="89" height="97" viewBox="120.5 36 89 97" fill="none" xmlns="http://www.w3.org/2000/svg">
<path d="M187.071 101.194C194.015 101.194 199.629 95.6356 199.629 88.7603V86.3153H199.671V83.6405C199.671 83.4106 199.671 83.1807 199.629 82.9509V81.5925H199.567C198.486 65.4389 184.971 52.6497 168.379 52.6497H147.94C144.489 52.6497 141.682 49.8704 141.682 46.4432V36.726" stroke="#5E4A21" stroke-width="0.7" stroke-linecap="round" stroke-linejoin="round"/>
<path d="M154.593 121.047H192.518C197.425 121.047 201.812 117.515 202.269 112.688C202.81 107.15 198.423 101.215 192.934 101.215H144.426" stroke="#5E4A21" stroke-width="0.7" stroke-linecap="round" stroke-linejoin="round"/>
<path d="M154.594 121.047H168.691C173.868 121.047 178.068 125.226 178.068 130.346V133" stroke="#5E4A21" stroke-width="0.7" stroke-linecap="round" stroke-linejoin="round"/>
<path d="M155.01 110.494C150.103 110.494 145.175 114.464 144.697 119.897C144.156 126.125 149.105 131.391 154.594 131.391H168.691C169.377 131.391 169.959 132.018 169.959 132.791V132.958" stroke="#5E4A21" stroke-width="0.7" stroke-linecap="round" stroke-linejoin="round"/>
<path d="M173.368 91.9159H144.842C139.935 91.9159 135.568 95.4475 135.09 100.275C134.549 105.813 138.937 110.494 144.426 110.494H192.934C193.62 110.494 194.202 111.058 194.202 111.747" stroke="#5E4A21" stroke-width="0.7" stroke-linecap="round" stroke-linejoin="round"/>
<path d="M135.195 36.726V60.1728C135.195 60.1728 134.488 91.874 166.487 91.874H190.314C190.98 91.874 191.541 92.4174 191.541 93.0861" stroke="#5E4A21" stroke-width="0.7" stroke-linecap="round" stroke-linejoin="round"/>
<path d="M202.29 54.7603C202.29 52.6706 197.55 47.906 195.471 47.906C197.55 47.906 202.29 43.1414 202.29 41.0516C202.29 43.1414 207.031 47.906 209.11 47.906C207.031 47.906 202.29 52.6706 202.29 54.7603Z" stroke="#5E4A21" stroke-width="0.7" stroke-linecap="round" stroke-linejoin="round"/>
<path d="M125.921 96.0118C125.921 94.4654 122.428 90.9546 120.89 90.9546C122.428 90.9546 125.921 87.4439 125.921 85.8975C125.921 87.4439 129.414 90.9546 130.953 90.9546C129.414 90.9546 125.921 94.4654 125.921 96.0118Z" stroke="#5E4A21" stroke-width="0.7" stroke-linecap="round" stroke-linejoin="round"/>
</svg>