<svg width="83" height="72" viewBox="0 0 83 72" fill="none" xmlns="http://www.w3.org/2000/svg">
<path d="M77.4565 31.302C80.1652 36.9087 81.8187 43.0906 82.3032 48.8494C82.529 51.7432 82.5188 54.4964 82.2463 57.0455C81.9739 59.5946 81.5047 61.8822 80.9655 63.8554C80.2648 66.3742 79.2209 68.5283 78.2905 69.9478C78.0502 70.3022 77.8427 70.6279 77.6396 70.892C77.4364 71.1561 77.2355 71.3895 77.0389 71.5612C76.6762 71.9069 76.4206 72.0436 76.3026 71.9733C76.1846 71.9031 76.1452 71.5909 76.239 71.1334C76.287 70.8892 76.3678 70.6164 76.4507 70.3129C76.5337 70.0093 76.6516 69.6463 76.7717 69.2525C77.2804 67.7104 78.014 65.5962 78.7038 63.2313C80.256 57.8021 80.6477 51.8267 79.9295 46.3299C79.2726 40.8373 77.6259 35.8628 75.8026 32.0825C74.0886 28.4956 71.894 25.1842 69.3083 22.1855C66.7226 19.1868 63.7786 16.4722 60.5922 14.1428C54.191 9.45089 46.8332 6.1148 39.1348 4.11616C35.09 3.05659 29.9222 2.22706 24.3984 2.08407C21.6343 2.04337 18.796 2.18307 15.9949 2.66579C13.1938 3.14852 10.4343 3.91267 7.92402 5.06577C5.73269 6.05575 3.89758 7.22565 2.5431 8.12008C1.86803 8.53651 1.31751 8.9308 0.902407 9.149C0.487309 9.3672 0.203278 9.47089 0.0590306 9.33692C-0.0568028 9.2359 -0.00443536 8.93016 0.240178 8.51425C0.486969 8.06754 0.836409 7.47337 1.46335 6.86788C2.60141 5.55587 4.52166 4.05162 6.93583 2.95362C8.81036 2.09595 11.0455 1.35661 13.5428 0.821467C16.038 0.317118 18.7954 0.0169731 21.6556 0.002588C27.4088 -0.0548091 33.5861 0.846094 39.5669 2.35198C47.4467 4.39439 55.045 7.80936 61.6494 12.6703C64.9516 15.1008 67.983 17.8834 70.6823 21.0139C73.3839 24.1137 75.6594 27.5855 77.4565 31.302Z" fill="black"/>
</svg>
