<svg width="31" height="72" viewBox="0 0 31 72" fill="none" xmlns="http://www.w3.org/2000/svg">
<path d="M5.1322 17.8236C6.40992 15.8407 7.92148 14.029 9.48552 12.3449C11.0801 10.6629 12.7251 9.13916 14.3307 7.73644C17.5441 4.90021 20.7796 2.62252 23.6067 1.3371C25.3872 0.503737 27.1701 0.0727994 28.4658 0.00968947C28.8045 0.00269084 29.082 -0.0086325 29.3573 0.010833C29.6326 0.0302984 29.8446 0.0762272 30.026 0.119994C30.3887 0.207528 30.5963 0.315039 30.6138 0.50194C30.6335 0.658052 30.4675 0.831978 30.1464 1.02588C29.9869 1.10743 29.7946 1.21761 29.5718 1.32563C29.3489 1.43365 29.0955 1.53951 28.8093 1.67399C27.6994 2.15251 26.2116 2.75902 24.5599 3.50867C20.8087 5.25479 17.2653 7.97487 14.0911 10.6901C10.917 13.4053 8.28915 16.2211 6.62704 18.8576L6.03951 19.7753C5.83419 20.0702 5.6857 20.431 5.51098 20.7281C5.33408 21.056 5.15936 21.3531 4.98028 21.7117L4.51076 22.6997C4.33386 23.0276 4.21814 23.3598 4.06965 23.7206L3.65914 24.7436L3.30763 25.8018C3.18973 26.1648 3.07401 26.497 2.98671 26.8622C2.20303 29.6845 1.74714 32.6538 1.75447 35.594C1.76181 38.5342 2.10564 41.4981 2.85586 44.3671C3.60826 47.2052 4.73429 49.9769 6.18146 52.5547C6.94658 53.9085 7.88871 55.3675 9.04281 56.8725C10.1991 58.3468 11.5083 59.8318 13.0054 61.2682C14.472 62.7025 16.1286 64.0574 17.8857 65.2956C18.3249 65.6051 18.7664 65.8839 19.2057 66.1934C19.6449 66.503 20.1192 66.7531 20.5606 67.0319C21.4741 67.5916 22.3919 68.0896 23.3141 68.5262C24.9225 69.2588 26.3954 69.7342 27.4858 69.966C28.574 70.2286 29.3715 70.2541 29.4393 70.5993C29.4896 70.7575 29.3236 70.9315 29.0003 71.1561C28.8386 71.2685 28.618 71.3457 28.3645 71.4516C28.1133 71.5266 27.8008 71.5974 27.46 71.6352C26.7761 71.7415 25.948 71.7139 25.0673 71.5589C24.1867 71.4038 23.2558 71.0904 22.362 70.6868C21.6475 70.3578 20.9066 69.965 20.1701 69.5107C19.7855 69.2978 19.4337 69.0564 19.0512 68.8127C18.8436 68.7052 18.6688 68.5691 18.4633 68.4308C18.2579 68.2925 18.0831 68.1563 17.8777 68.018C16.2932 66.9468 14.6934 65.6578 13.1067 64.1841C9.93109 61.2675 6.90384 57.5568 4.64126 53.467C3.14161 50.7617 1.96311 47.8625 1.16041 44.8661C0.359889 41.8389 -0.00582807 38.7496 -9.92244e-05 35.6247C0.00562961 32.4998 0.470223 29.4073 1.29756 26.4024C1.38486 26.0372 1.53552 25.6456 1.65342 25.2826L2.00928 24.1628L2.45474 23.0804C2.60323 22.7195 2.75172 22.3587 2.9002 21.9979L3.40467 20.9505C3.55316 20.5897 3.76065 20.264 3.93973 19.9053C4.11663 19.5774 4.2957 19.2188 4.5032 18.8931L5.1322 17.8236Z" fill="black"/>
</svg>
