<svg width="67" height="32" viewBox="0 0 67 32" fill="none" xmlns="http://www.w3.org/2000/svg">
<path d="M42.2962 0.736953C45.9014 0.187306 49.6071 -0.0457906 52.9852 0.00738216C56.3633 0.0605552 59.4159 0.369209 61.7802 0.845808C64.7848 1.39862 67.0029 2.63847 66.8064 3.24345C66.6077 3.87923 64.191 3.70836 61.3394 3.16637C58.0639 2.53251 54.5852 2.16279 51.3317 2.08748C48.0782 2.01217 45.0192 2.22911 42.5677 2.55088C40.2385 2.8813 37.9575 3.40079 35.7027 3.98402C33.4457 4.59804 31.239 5.37034 29.0542 6.26796C26.8978 7.19853 24.7961 8.2258 22.7469 9.38055C20.726 10.5682 18.7598 11.8526 16.8767 13.2667C14.8953 14.7666 12.6015 16.7705 10.3407 19.179C8.08196 21.5567 5.88892 24.3103 4.00178 27.0856C2.35491 29.5066 0.779988 31.3447 0.18776 31.0243C-0.376054 30.7369 0.350912 28.2819 2.06768 25.7421C3.40658 23.7635 5.36154 21.3334 7.68577 18.8985C10.0406 16.4657 12.828 14.0016 15.751 11.7946C17.6997 10.3233 19.7292 9.01248 21.8134 7.79831C23.9282 6.5863 26.0933 5.53257 28.313 4.57554C30.5612 3.65146 32.8312 2.8527 35.1822 2.21437C37.5331 1.57605 39.9059 1.06305 42.2962 0.736953Z" fill="black"/>
</svg>
