<svg width="282" height="38" viewBox="0 0 282 38" fill="none" xmlns="http://www.w3.org/2000/svg">
<mask id="path-1-inside-1_173_796" fill="white">
<path d="M1.37151 10.4676C2.52153 12.1548 4.30221 13.5321 6.23128 14.6684C8.16035 15.8046 10.312 16.6655 12.5007 17.3541C16.8783 18.7314 21.3299 19.4201 24.9655 19.8677C28.601 20.2809 31.4205 20.4531 32.4963 20.5908C34.8705 20.9351 39.5819 21.5893 45.3691 22.0025C46.8159 22.1058 48.3369 22.2091 49.9321 22.2436C50.7482 22.278 51.5273 22.2436 52.3063 22.2436H54.7177C57.9822 22.2091 61.2839 22.0714 64.5485 21.8648C71.0405 21.486 77.1987 20.9007 81.7246 20.4875C86.2505 20.1087 89.1812 19.8333 89.1812 19.8333C89.1812 19.8333 90.0344 19.7644 91.5183 19.6611C93.0022 19.5578 95.1539 19.3856 97.7878 19.2135C103.019 18.9036 110.178 18.6626 117.746 18.7314C125.351 18.8003 133.364 19.2479 140.413 19.8677C147.424 20.4875 153.434 21.3483 156.995 21.8648C158.405 22.0714 159.778 22.3124 161.15 22.5535C162.486 22.7945 163.821 23.07 165.12 23.311C167.679 23.8619 170.128 24.4817 172.354 25.2392C176.805 26.7198 180.404 28.6825 182.926 30.714C183.223 30.9551 183.557 31.2305 183.854 31.4715C183.965 31.5748 184.114 31.6781 184.225 31.8159C184.336 31.9192 184.447 32.0569 184.559 32.1602C185.004 32.6423 185.449 33.1588 185.894 33.6752C186.339 34.1917 186.822 34.7427 187.341 35.2247C187.823 35.7068 188.417 36.12 188.973 36.4643V36.5676C189.01 37.0497 189.27 37.394 189.827 37.635C190.569 37.9449 191.273 38.0482 192.015 37.9793C192.386 37.9449 192.757 37.876 193.091 37.7727C193.462 37.6694 193.833 37.5661 194.204 37.394C195.651 36.7742 197.283 35.7756 198.953 34.7427C202.291 32.6078 206.075 30.3697 207.114 30.0254C208.227 29.681 210.453 29.0268 213.198 28.407C215.943 27.7528 219.245 27.1674 222.435 26.6854C225.663 26.1689 228.705 25.6524 230.968 25.2392C233.231 24.826 234.677 24.5506 234.677 24.5506C234.677 24.5506 236.347 24.2407 238.944 23.6897C241.54 23.1388 245.065 22.3813 248.812 21.4172C252.558 20.4531 256.454 19.3168 259.867 18.1461C263.242 16.9754 266.099 15.7702 267.768 14.9783C270.402 13.7387 272.888 12.5335 275.077 11.1906C277.265 9.84777 279.12 8.2983 280.344 6.67996C281.606 5.06162 282.125 3.37441 281.977 2.16926C281.828 0.929685 281.049 0.206597 279.714 0.0344328C279.306 -0.0344328 278.972 0 278.712 0.137731C278.452 0.241029 278.23 0.447626 278.044 0.688655C277.97 0.826386 277.859 0.964117 277.785 1.13628C277.71 1.30844 277.599 1.48061 277.525 1.68721C277.451 1.8938 277.339 2.1004 277.228 2.34143C277.117 2.58246 277.006 2.82349 276.857 3.06452C276.338 4.0975 275.485 5.44038 274.075 6.85212C272.665 8.26386 270.736 9.71004 268.251 11.0185C265.542 12.4302 262.426 13.7731 259.162 14.9094C255.897 16.0457 252.484 17.0786 249.257 17.905C242.802 19.5922 236.977 20.7285 233.973 21.3139C228.927 22.278 225.477 22.8289 221.397 23.4831C219.356 23.793 217.13 24.1718 214.459 24.7227C211.825 25.2736 208.746 25.9967 204.999 27.2019C204.146 27.4773 202.477 27.8561 200.511 28.4759C198.544 29.0957 196.244 29.9565 194.204 31.0584C193.165 31.6093 192.238 32.2635 191.459 32.9177C191.385 32.8489 191.31 32.7456 191.273 32.6767C191.014 32.3668 190.68 31.9192 190.309 31.4027C189.938 30.8862 189.493 30.3008 188.899 29.6466C188.639 29.3367 188.306 28.9924 187.935 28.6481L187.378 28.1316C187.193 27.9594 187.007 27.8561 186.822 27.6839C186.451 27.4085 186.08 27.0986 185.672 26.8231C185.264 26.5477 184.856 26.2722 184.41 25.9967C182.667 24.9293 180.626 23.9308 178.363 23.1044C176.101 22.2436 173.652 21.5549 171.018 20.9351C169.683 20.6252 168.347 20.3498 166.937 20.1087C165.528 19.8333 164.081 19.6267 162.634 19.3512C149.836 17.1475 134.514 15.6669 120.825 15.4259C113.999 15.2881 107.582 15.3914 102.091 15.6325C96.6007 15.8735 92.0748 16.2178 88.9586 16.4933C78.6455 17.3541 71.6712 18.0772 63.5097 18.5593C62.5081 18.6281 61.4694 18.6626 60.3936 18.697C59.3177 18.7659 58.2419 18.7659 57.0919 18.8003C55.979 18.8347 54.7918 18.8347 53.6047 18.8692H51.7499C51.1192 18.8692 50.4885 18.8692 49.8579 18.8347C47.2982 18.7659 44.4788 18.5248 41.3626 18.2494C38.2835 17.9395 34.9076 17.5263 31.1979 16.9409C29.5285 16.6655 26.3752 15.9768 22.6655 14.9438C18.9928 13.9108 14.7637 12.4991 11.2394 10.8119C9.49586 9.9855 7.93776 9.05582 6.75065 8.16057C5.56353 7.26531 4.82158 6.40449 4.33931 5.68141C4.07963 5.30265 3.93124 4.95832 3.74575 4.64842C3.67156 4.47626 3.59736 4.33853 3.52317 4.16636C3.44897 4.02863 3.37478 3.8909 3.30058 3.75317C3.0038 3.23668 2.59573 2.92678 1.96507 3.09895C1.557 3.20225 1.14893 3.44328 0.815052 3.85647C0.740857 3.95977 0.666662 4.06307 0.55537 4.16636C0.481175 4.26966 0.40698 4.40739 0.369882 4.54512C0.295688 4.68286 0.25859 4.82059 0.184395 4.99275C0.147298 5.13048 0.1102 5.30265 0.0731029 5.47481C-0.0381895 6.16346 -0.0381895 6.98985 0.184395 7.85067C0.369882 8.74592 0.777954 9.64117 1.37151 10.4676Z"/>
</mask>
<path d="M1.37151 10.4676C2.52153 12.1548 4.30221 13.5321 6.23128 14.6684C8.16035 15.8046 10.312 16.6655 12.5007 17.3541C16.8783 18.7314 21.3299 19.4201 24.9655 19.8677C28.601 20.2809 31.4205 20.4531 32.4963 20.5908C34.8705 20.9351 39.5819 21.5893 45.3691 22.0025C46.8159 22.1058 48.3369 22.2091 49.9321 22.2436C50.7482 22.278 51.5273 22.2436 52.3063 22.2436H54.7177C57.9822 22.2091 61.2839 22.0714 64.5485 21.8648C71.0405 21.486 77.1987 20.9007 81.7246 20.4875C86.2505 20.1087 89.1812 19.8333 89.1812 19.8333C89.1812 19.8333 90.0344 19.7644 91.5183 19.6611C93.0022 19.5578 95.1539 19.3856 97.7878 19.2135C103.019 18.9036 110.178 18.6626 117.746 18.7314C125.351 18.8003 133.364 19.2479 140.413 19.8677C147.424 20.4875 153.434 21.3483 156.995 21.8648C158.405 22.0714 159.778 22.3124 161.15 22.5535C162.486 22.7945 163.821 23.07 165.12 23.311C167.679 23.8619 170.128 24.4817 172.354 25.2392C176.805 26.7198 180.404 28.6825 182.926 30.714C183.223 30.9551 183.557 31.2305 183.854 31.4715C183.965 31.5748 184.114 31.6781 184.225 31.8159C184.336 31.9192 184.447 32.0569 184.559 32.1602C185.004 32.6423 185.449 33.1588 185.894 33.6752C186.339 34.1917 186.822 34.7427 187.341 35.2247C187.823 35.7068 188.417 36.12 188.973 36.4643V36.5676C189.01 37.0497 189.27 37.394 189.827 37.635C190.569 37.9449 191.273 38.0482 192.015 37.9793C192.386 37.9449 192.757 37.876 193.091 37.7727C193.462 37.6694 193.833 37.5661 194.204 37.394C195.651 36.7742 197.283 35.7756 198.953 34.7427C202.291 32.6078 206.075 30.3697 207.114 30.0254C208.227 29.681 210.453 29.0268 213.198 28.407C215.943 27.7528 219.245 27.1674 222.435 26.6854C225.663 26.1689 228.705 25.6524 230.968 25.2392C233.231 24.826 234.677 24.5506 234.677 24.5506C234.677 24.5506 236.347 24.2407 238.944 23.6897C241.54 23.1388 245.065 22.3813 248.812 21.4172C252.558 20.4531 256.454 19.3168 259.867 18.1461C263.242 16.9754 266.099 15.7702 267.768 14.9783C270.402 13.7387 272.888 12.5335 275.077 11.1906C277.265 9.84777 279.12 8.2983 280.344 6.67996C281.606 5.06162 282.125 3.37441 281.977 2.16926C281.828 0.929685 281.049 0.206597 279.714 0.0344328C279.306 -0.0344328 278.972 0 278.712 0.137731C278.452 0.241029 278.23 0.447626 278.044 0.688655C277.97 0.826386 277.859 0.964117 277.785 1.13628C277.71 1.30844 277.599 1.48061 277.525 1.68721C277.451 1.8938 277.339 2.1004 277.228 2.34143C277.117 2.58246 277.006 2.82349 276.857 3.06452C276.338 4.0975 275.485 5.44038 274.075 6.85212C272.665 8.26386 270.736 9.71004 268.251 11.0185C265.542 12.4302 262.426 13.7731 259.162 14.9094C255.897 16.0457 252.484 17.0786 249.257 17.905C242.802 19.5922 236.977 20.7285 233.973 21.3139C228.927 22.278 225.477 22.8289 221.397 23.4831C219.356 23.793 217.13 24.1718 214.459 24.7227C211.825 25.2736 208.746 25.9967 204.999 27.2019C204.146 27.4773 202.477 27.8561 200.511 28.4759C198.544 29.0957 196.244 29.9565 194.204 31.0584C193.165 31.6093 192.238 32.2635 191.459 32.9177C191.385 32.8489 191.31 32.7456 191.273 32.6767C191.014 32.3668 190.68 31.9192 190.309 31.4027C189.938 30.8862 189.493 30.3008 188.899 29.6466C188.639 29.3367 188.306 28.9924 187.935 28.6481L187.378 28.1316C187.193 27.9594 187.007 27.8561 186.822 27.6839C186.451 27.4085 186.08 27.0986 185.672 26.8231C185.264 26.5477 184.856 26.2722 184.41 25.9967C182.667 24.9293 180.626 23.9308 178.363 23.1044C176.101 22.2436 173.652 21.5549 171.018 20.9351C169.683 20.6252 168.347 20.3498 166.937 20.1087C165.528 19.8333 164.081 19.6267 162.634 19.3512C149.836 17.1475 134.514 15.6669 120.825 15.4259C113.999 15.2881 107.582 15.3914 102.091 15.6325C96.6007 15.8735 92.0748 16.2178 88.9586 16.4933C78.6455 17.3541 71.6712 18.0772 63.5097 18.5593C62.5081 18.6281 61.4694 18.6626 60.3936 18.697C59.3177 18.7659 58.2419 18.7659 57.0919 18.8003C55.979 18.8347 54.7918 18.8347 53.6047 18.8692H51.7499C51.1192 18.8692 50.4885 18.8692 49.8579 18.8347C47.2982 18.7659 44.4788 18.5248 41.3626 18.2494C38.2835 17.9395 34.9076 17.5263 31.1979 16.9409C29.5285 16.6655 26.3752 15.9768 22.6655 14.9438C18.9928 13.9108 14.7637 12.4991 11.2394 10.8119C9.49586 9.9855 7.93776 9.05582 6.75065 8.16057C5.56353 7.26531 4.82158 6.40449 4.33931 5.68141C4.07963 5.30265 3.93124 4.95832 3.74575 4.64842C3.67156 4.47626 3.59736 4.33853 3.52317 4.16636C3.44897 4.02863 3.37478 3.8909 3.30058 3.75317C3.0038 3.23668 2.59573 2.92678 1.96507 3.09895C1.557 3.20225 1.14893 3.44328 0.815052 3.85647C0.740857 3.95977 0.666662 4.06307 0.55537 4.16636C0.481175 4.26966 0.40698 4.40739 0.369882 4.54512C0.295688 4.68286 0.25859 4.82059 0.184395 4.99275C0.147298 5.13048 0.1102 5.30265 0.0731029 5.47481C-0.0381895 6.16346 -0.0381895 6.98985 0.184395 7.85067C0.369882 8.74592 0.777954 9.64117 1.37151 10.4676Z" fill="#FF5100" stroke="white" mask="url(#path-1-inside-1_173_796)"/>
</svg>
