<svg width="33" height="28" viewBox="0 0 33 28" fill="none" xmlns="http://www.w3.org/2000/svg">
<path d="M24.5328 0.00158034C19.506 0.0954553 17.0459 3.54514 16.5 6.68152C15.9541 3.54514 13.494 0.0953928 8.46721 0.00158034C3.83251 -0.0847947 0 3.37233 0 9.68158C0 17.7808 9.44767 21.5222 15.9081 27.5722C16.133 27.7829 16.0801 27.7775 16.0801 27.7775C16.1862 27.9044 16.3388 27.978 16.4993 27.978V27.9786C16.4993 27.9786 16.4997 27.9786 16.5 27.9786C16.5 27.9786 16.5004 27.9786 16.5007 27.9786V27.978C16.6611 27.978 16.8137 27.9044 16.9198 27.7775C16.9198 27.7775 16.8669 27.7828 17.0919 27.5722C23.5523 21.5222 33 17.7808 33 9.68158C33 3.37233 29.1675 -0.0847947 24.5328 0.00158034Z" fill="#222222"/>
</svg>
