<svg width="51" height="53" viewBox="0 0 51 53" fill="none" xmlns="http://www.w3.org/2000/svg">
<path d="M49.1518 24.4283C47.4321 22.7268 44.6575 22.7417 42.9564 24.4623L29.6075 37.956V4.38161C29.6075 1.96328 27.6459 0 25.2271 0C22.8061 0 20.8455 1.96328 20.8455 4.38161V37.9559L7.49713 24.4624C5.79554 22.7418 3.02091 22.7269 1.30027 24.4284C-0.41995 26.13 -0.435373 28.9057 1.26611 30.6264L22.1111 51.6984C22.9352 52.5321 24.0561 53 25.2271 53C26.398 53 27.5173 52.5321 28.342 51.6983L49.1863 30.6263C50.8874 28.9056 50.874 26.1299 49.1518 24.4283Z" fill="#35A21F"/>
</svg>
