<svg width="31" height="27" viewBox="0 0 31 27" fill="none" xmlns="http://www.w3.org/2000/svg">
<path d="M29.0646 0H1.93571C0.872032 0 0.000167847 0.867832 0.000167847 1.92659V21.2133C0.000167847 22.2721 0.872032 23.1399 1.93571 23.1399H19.373V17.8357C19.0626 17.1032 18.8882 16.284 18.8882 15.4231C18.8882 11.9691 21.7166 9.1539 25.1831 9.1539C27.7987 9.1539 30.0446 10.7542 30.9967 13.0105V1.93006C30.9967 0.871304 30.1248 0.00347133 29.0611 0.00347133L29.0646 0ZM10.6543 17.3566H5.81027C5.27669 17.3566 4.84076 16.9227 4.84076 16.3916C4.84076 15.8605 5.27669 15.4266 5.81027 15.4266H10.6543C11.1879 15.4266 11.6239 15.8605 11.6239 16.3916C11.6239 16.9227 11.1879 17.3566 10.6543 17.3566ZM14.5324 12.535H5.81376C5.28018 12.535 4.84424 12.1011 4.84424 11.5699C4.84424 11.0388 5.28018 10.6049 5.81376 10.6049H14.5324C15.066 10.6049 15.5019 11.0388 15.5019 11.5699C15.5019 12.1011 15.066 12.535 14.5324 12.535ZM18.407 7.71329H5.81376C5.28018 7.71329 4.84424 7.27938 4.84424 6.74826C4.84424 6.21715 5.28018 5.78324 5.81376 5.78324H18.407C18.9405 5.78324 19.3765 6.21715 19.3765 6.74826C19.3765 7.27938 18.9405 7.71329 18.407 7.71329ZM25.1866 21.6958C26.6513 21.6958 27.994 21.1925 29.0611 20.3559V26.035C29.0611 26.3925 28.8693 26.7188 28.5485 26.8854C28.402 26.9618 28.2486 27 28.0951 27C27.9103 27 27.7185 26.941 27.5615 26.8368L25.1901 25.2643L22.8186 26.8368C22.5291 27.0382 22.1385 27.0486 21.8316 26.8854C21.5108 26.7223 21.319 26.3925 21.319 26.035V20.3559C22.3827 21.1959 23.7323 21.6958 25.1936 21.6958H25.1866ZM29.5459 15.4266C29.5459 17.8218 27.5929 19.7657 25.1866 19.7657C22.7802 19.7657 20.8273 17.8218 20.8273 15.4266C20.8273 13.0314 22.7802 11.0874 25.1866 11.0874C27.5929 11.0874 29.5459 13.0314 29.5459 15.4266Z" fill="#222222"/>
</svg>
