<svg width="29" height="70" viewBox="0 0 29 70" fill="none" xmlns="http://www.w3.org/2000/svg">
<path d="M28.3496 4.29002C28.2479 4.39051 28.1383 4.49099 28.0166 4.58737C27.899 4.68991 27.7713 4.78629 27.6358 4.87447C27.5002 4.96265 27.3566 5.03852 27.203 5.10004C27.0495 5.15951 26.89 5.20668 26.7225 5.23949C26.3875 5.30306 26.0505 5.27435 25.7254 5.20053C25.4024 5.1308 25.0993 5.02417 24.8301 4.90318C24.2957 4.66325 23.9168 4.39051 23.9168 4.39051C23.9168 4.39051 24.1122 3.97627 24.4991 3.51282C24.5968 3.39593 24.7044 3.27699 24.8261 3.16215C24.9497 3.05141 25.0833 2.94478 25.2289 2.84634C25.3745 2.74791 25.53 2.65973 25.6935 2.58591C25.857 2.51208 26.0325 2.45261 26.218 2.42596C26.5869 2.36649 26.9498 2.3993 27.2808 2.48337C27.6138 2.57155 27.9209 2.7233 28.1762 2.873C28.6866 3.1765 29.0017 3.50461 29.0017 3.50461C29.0017 3.50461 28.7544 3.89219 28.3496 4.29208V4.29002ZM23.6835 0.0574191C23.4761 0.102534 23.1909 0.188663 22.8759 0.313754C22.2398 0.553684 21.5019 1.02329 21.0692 1.72257C20.6465 2.44441 20.6146 3.25238 20.6943 3.88194C20.7761 4.51765 20.9576 4.97085 20.9576 4.97085C20.9576 4.97085 21.0712 4.94009 21.2547 4.87447C21.4381 4.81295 21.6934 4.72067 21.9706 4.58327C22.1081 4.5156 22.2517 4.43562 22.3973 4.34539C22.5409 4.25516 22.6904 4.16288 22.832 4.05009C23.1172 3.83272 23.3804 3.54973 23.5898 3.22162C24.0105 2.5654 24.1142 1.75128 24.1202 1.11352C24.1262 0.475758 24.0225 0 24.0225 0C24.0225 0 23.8948 0.0143548 23.6855 0.0574191H23.6835ZM24.3714 7.48909C24.3714 7.48909 24.1062 7.06665 23.6496 6.6155C23.1949 6.1705 22.5449 5.71115 21.7672 5.63117C21.0014 5.5717 20.2676 5.90801 19.7631 6.28739C19.5079 6.47195 19.2985 6.65446 19.1629 6.80416C19.0253 6.94976 18.9495 7.04614 18.9495 7.04614C18.9495 7.04614 19.2805 7.41731 19.795 7.79259C20.3055 8.16171 21.0074 8.56774 21.7313 8.61696C21.821 8.62311 21.9107 8.62311 21.9985 8.61901C22.0882 8.61901 22.174 8.61081 22.2597 8.60056C22.4312 8.58005 22.5947 8.54109 22.7502 8.48982C22.9058 8.43855 23.0513 8.37498 23.1909 8.30731C23.3325 8.24374 23.4621 8.17196 23.5818 8.09814C23.8211 7.95254 24.0165 7.79669 24.1541 7.6798C24.2937 7.56906 24.3714 7.49114 24.3714 7.49114V7.48909ZM18.5268 2.53464C18.4669 2.55515 18.3812 2.58386 18.2775 2.63102C18.0681 2.72125 17.783 2.8607 17.4699 3.04936C17.1548 3.23392 16.8298 3.49026 16.5347 3.79581C16.3871 3.94756 16.2475 4.11367 16.1239 4.29002C16.0023 4.47048 15.9006 4.6694 15.8208 4.87447C15.6593 5.28871 15.6054 5.7091 15.6174 6.10693C15.6333 6.51091 15.7151 6.88824 15.8128 7.21224C16.0122 7.86026 16.2814 8.29705 16.2814 8.29705C16.2814 8.29705 16.3971 8.24579 16.5765 8.14325C16.758 8.04277 16.9973 7.88282 17.2685 7.6962C17.5377 7.50549 17.8169 7.26146 18.0741 6.97437C18.3353 6.69342 18.5666 6.36121 18.7242 5.96748C19.0472 5.19643 19.0233 4.33719 18.9136 3.65841C18.8598 3.318 18.788 3.03501 18.7262 2.82994C18.6664 2.62692 18.6165 2.50593 18.6165 2.50593C18.6165 2.50593 18.5826 2.51619 18.5228 2.53669L18.5268 2.53464ZM20.2995 10.2821C20.2995 10.2821 19.9486 9.89043 19.3942 9.50901C19.117 9.31829 18.788 9.13168 18.4231 9.00044C18.2416 8.93482 18.0502 8.8815 17.8508 8.85074C17.6534 8.81998 17.4559 8.81588 17.2506 8.83433C17.0472 8.85484 16.8497 8.89995 16.6603 8.96353C16.4709 9.0271 16.2894 9.10912 16.1259 9.21166C15.7949 9.41262 15.5017 9.65666 15.2664 9.89864C14.8078 10.397 14.5585 10.8502 14.5585 10.8502C14.5585 10.8502 14.9753 11.1742 15.5855 11.4695C15.8906 11.6171 16.2415 11.7607 16.6124 11.8529C16.7979 11.9001 16.9873 11.935 17.1768 11.9514C17.3702 11.9719 17.5656 11.976 17.759 11.9575C18.5248 11.8734 19.1469 11.4654 19.5876 11.0634C20.0383 10.6758 20.3015 10.2842 20.3015 10.2842L20.2995 10.2821ZM13.051 6.36941C12.9493 6.43504 12.8277 6.51911 12.6941 6.61755C12.6283 6.66676 12.5585 6.72008 12.4867 6.77545C12.4169 6.83492 12.3471 6.89644 12.2753 6.96411C11.9882 7.2307 11.6811 7.55266 11.4278 7.92998C11.1806 8.31346 10.9772 8.7441 10.8794 9.20551C10.704 10.1468 10.9811 11.0163 11.3122 11.652C11.6452 12.2918 12.0141 12.6937 12.0141 12.6937C12.0141 12.6937 12.1238 12.6137 12.2893 12.4702C12.4588 12.3266 12.6941 12.1257 12.9314 11.8673C13.051 11.7381 13.1707 11.5945 13.2903 11.4428C13.4119 11.2931 13.5316 11.129 13.6393 10.9547C13.7469 10.7804 13.8447 10.5918 13.9264 10.3929C14.0102 10.196 14.0839 9.99092 14.1318 9.77354C14.2295 9.3388 14.2255 8.8897 14.1757 8.47341C14.1278 8.05713 14.0241 7.66339 13.9085 7.32093C13.6771 6.636 13.388 6.16845 13.388 6.16845C13.388 6.16845 13.2584 6.23817 13.053 6.37147L13.051 6.36941ZM16.5845 13.9713C16.5845 13.9713 16.1438 13.6288 15.4898 13.3376C14.8317 13.0403 13.9763 12.8229 13.1228 13.0546C12.706 13.1797 12.3411 13.4094 12.0241 13.678C11.713 13.9508 11.4657 14.2768 11.2663 14.5742C11.2164 14.6501 11.1706 14.7239 11.1267 14.7936C11.0868 14.8674 11.0489 14.9392 11.015 15.0069C10.9472 15.1443 10.8894 15.2673 10.8455 15.3719C10.7558 15.5811 10.7139 15.7123 10.7139 15.7123C10.7139 15.7123 11.2125 15.9625 11.9044 16.143C12.2494 16.2332 12.6442 16.3091 13.045 16.3296C13.4478 16.3501 13.8706 16.3296 14.2614 16.2086C14.4588 16.1491 14.6343 16.065 14.8038 15.9748C14.9753 15.8846 15.1308 15.7779 15.2744 15.6631C15.418 15.5483 15.5456 15.4232 15.6633 15.294C15.7849 15.1709 15.8946 15.0438 15.9903 14.9187C16.1857 14.6726 16.3213 14.4245 16.429 14.2563C16.5307 14.0841 16.5845 13.9713 16.5845 13.9713ZM8.48654 11.1331C8.4327 11.1803 8.35493 11.2521 8.26121 11.3444C8.07377 11.5289 7.82052 11.7955 7.56129 12.1298C7.31202 12.4702 7.06077 12.8783 6.86535 13.3253C6.67591 13.7765 6.55427 14.2768 6.5443 14.7793C6.53433 15.2837 6.66395 15.7595 6.83743 16.1737C7.01491 16.588 7.24821 16.9468 7.48352 17.2421C7.9621 17.8368 8.42672 18.1772 8.42672 18.1772C8.42672 18.1772 8.52443 18.0706 8.668 17.884C8.81955 17.7015 9.01896 17.439 9.21438 17.117C9.40382 16.793 9.61918 16.428 9.77073 16.0138C9.9183 15.5975 10.0379 15.1545 10.0499 14.6767C10.0559 14.4368 10.0359 14.201 9.99806 13.9713C9.96416 13.7457 9.91231 13.5242 9.84451 13.311C9.7129 12.8844 9.52746 12.4927 9.33802 12.1564C8.96113 11.4859 8.57029 11.0573 8.57029 11.0573C8.57029 11.0573 8.53839 11.0819 8.48455 11.129L8.48654 11.1331ZM13.4458 18.5402C13.4458 18.5402 12.9194 18.2757 12.1796 18.1096C11.4338 17.9373 10.4946 17.8881 9.65906 18.3146C9.24629 18.53 8.91726 18.8519 8.64208 19.2005C8.37288 19.5512 8.18543 19.9449 8.03787 20.2997C7.9621 20.476 7.91025 20.6504 7.86837 20.8062C7.8245 20.9641 7.7926 21.1056 7.76867 21.2225C7.71882 21.4604 7.70287 21.606 7.70287 21.606C7.70287 21.606 8.27517 21.7536 9.03292 21.7885C9.4118 21.8069 9.83853 21.7967 10.2593 21.7311C10.678 21.6634 11.1187 21.5506 11.4956 21.3414C11.689 21.2389 11.8526 21.1138 12.0121 20.9846C12.1716 20.8534 12.3112 20.7119 12.4348 20.5622C12.5605 20.4145 12.6622 20.2546 12.7639 20.1008C12.8656 19.947 12.9513 19.7932 13.0251 19.6435C13.0989 19.4938 13.1607 19.3502 13.2125 19.2169C13.2644 19.0836 13.3122 18.9688 13.3461 18.8683C13.4159 18.6673 13.4478 18.5402 13.4478 18.5402H13.4458ZM4.43256 17.3242C4.3867 17.3857 4.32089 17.478 4.24113 17.5969C4.0836 17.8327 3.87422 18.169 3.67282 18.5771C3.48537 18.9914 3.3059 19.4753 3.19424 19.988C3.09852 20.5068 3.0706 21.0543 3.16632 21.5834C3.27599 22.1166 3.49933 22.5821 3.77053 22.9717C3.90612 23.1665 4.05369 23.345 4.20723 23.5049C4.36277 23.6669 4.52429 23.8105 4.67983 23.9376C5.30398 24.4462 5.86033 24.6902 5.86033 24.6902C5.86033 24.6902 5.94009 24.5569 6.04977 24.3293C6.15346 24.0996 6.31698 23.7838 6.45058 23.4065C6.52037 23.2178 6.58019 23.0127 6.64002 22.7995C6.70183 22.5882 6.75567 22.3647 6.79157 22.133C6.82946 21.9013 6.8474 21.6613 6.8494 21.4173C6.85737 21.1753 6.84142 20.9272 6.79755 20.677C6.75368 20.4268 6.68588 20.1849 6.59814 19.9531C6.5124 19.7234 6.41469 19.5061 6.30102 19.2969C6.07569 18.8827 5.80051 18.5115 5.53529 18.2039C5.27008 17.8963 5.01284 17.6502 4.8234 17.4821C4.63197 17.3139 4.51033 17.2257 4.51033 17.2257C4.51033 17.2257 4.48042 17.2585 4.43456 17.32L4.43256 17.3242ZM11.1486 23.9273C11.1486 23.9273 10.5444 23.7715 9.73883 23.7633C9.33403 23.7592 8.88536 23.7961 8.44267 23.915C7.99998 24.034 7.54932 24.2308 7.16646 24.5487C6.79356 24.8707 6.50641 25.2746 6.30501 25.7032C6.11557 26.1339 5.98596 26.5809 5.92015 26.9849C5.86033 27.3909 5.84637 27.7498 5.84637 28.0082C5.84238 28.2645 5.86831 28.4204 5.86831 28.4204C5.86831 28.4204 6.02384 28.4245 6.27909 28.4101C6.53234 28.3958 6.88728 28.363 7.28809 28.2912C7.68691 28.2194 8.12761 28.1107 8.55434 27.9446C8.76771 27.8605 8.97709 27.7642 9.1745 27.6493C9.37391 27.5345 9.57132 27.4053 9.7468 27.2556C10.0998 26.9541 10.343 26.5994 10.5464 26.2385C10.6441 26.058 10.7219 25.8714 10.7857 25.6889C10.8475 25.5064 10.9133 25.33 10.9552 25.1598C11.0489 24.8214 11.0808 24.5077 11.1167 24.2883C11.1467 24.0668 11.1526 23.9273 11.1526 23.9273H11.1486ZM1.38161 25.0655C1.26994 25.3485 1.11241 25.7483 1.01071 26.2262C0.787373 27.1756 0.699633 28.4245 1.16027 29.4847C1.39358 30.0138 1.71861 30.4424 2.09549 30.7828C2.47437 31.1232 2.88515 31.3775 3.26602 31.5661C4.02577 31.9414 4.6579 32.0583 4.6579 32.0583C4.6579 32.0583 4.71174 31.9004 4.77754 31.6379C4.80945 31.5067 4.84534 31.3488 4.87724 31.1703C4.8932 31.0822 4.90915 30.9878 4.92311 30.8894C4.94106 30.791 4.959 30.6884 4.97296 30.5839C5.08463 29.7328 5.11454 28.6665 4.71572 27.6698C4.5203 27.1715 4.2172 26.7327 3.88818 26.3533C3.56314 25.976 3.20022 25.6561 2.85723 25.3977C2.17326 24.8809 1.57903 24.6184 1.57903 24.6184C1.57903 24.6184 1.49527 24.7825 1.38161 25.0655ZM9.96416 29.9953C9.96416 29.9953 9.79865 29.9912 9.52745 30.0097C9.25426 30.0281 8.88336 30.0691 8.46859 30.1614C8.05382 30.2537 7.59718 30.3993 7.16047 30.629C6.94112 30.7438 6.72776 30.8792 6.52436 31.0371C6.32894 31.197 6.14947 31.3816 5.98795 31.5928C5.82842 31.804 5.69681 32.0316 5.58913 32.2695C5.48544 32.5074 5.41764 32.7514 5.36181 32.9996C5.30797 33.2456 5.27407 33.4917 5.25413 33.7317C5.24416 33.9716 5.24814 34.2033 5.2621 34.4207C5.28803 34.8554 5.34785 35.2327 5.42163 35.4973C5.48743 35.7618 5.54327 35.9197 5.54327 35.9197C5.54327 35.9197 6.19334 35.7803 6.97901 35.4358C7.75471 35.0913 8.70589 34.5519 9.27421 33.7624C9.57531 33.3666 9.75877 32.9401 9.86446 32.5197C9.99008 32.0993 10.032 31.6851 10.0399 31.3118C10.0619 30.9407 10.0399 30.6146 10.014 30.3788C9.9841 30.143 9.96416 29.9994 9.96416 29.9994V29.9953ZM0.10739 33.5532C0.0475669 33.8752 0.00967929 34.3304 -0.000291147 34.8534C-0.0162438 35.8972 0.201112 37.2219 0.924965 38.2103C1.09845 38.4585 1.30982 38.6717 1.52718 38.8542C1.74653 39.0388 1.97585 39.1926 2.20916 39.3218C2.67577 39.5802 3.15435 39.7401 3.59903 39.8365C4.03973 39.9329 4.43057 39.9698 4.71174 39.9842C4.9929 39.9965 5.16439 39.9883 5.16439 39.9883C5.16439 39.9883 5.17835 39.8119 5.17835 39.5248C5.17436 39.2377 5.18234 38.8358 5.13249 38.3826C5.03877 37.4762 4.8254 36.3627 4.17134 35.4296C4.00184 35.1958 3.82636 34.9846 3.63293 34.7919C3.43951 34.5991 3.23013 34.4268 3.01477 34.271C2.58404 33.9593 2.12341 33.7173 1.71462 33.5348C0.891066 33.1657 0.21507 33.0406 0.21507 33.0406C0.21507 33.0406 0.163224 33.2313 0.10739 33.5532ZM10.1536 36.5185C10.1536 36.5185 9.98211 36.5554 9.70692 36.6416C9.43174 36.7277 9.05486 36.863 8.64607 37.062C8.23927 37.2609 7.78662 37.5275 7.39777 37.872C7.00693 38.2165 6.65198 38.6451 6.41469 39.1639C6.30501 39.4223 6.22724 39.6909 6.17739 39.9616C6.13152 40.2323 6.09763 40.5091 6.11158 40.7737C6.11956 41.0403 6.14947 41.3028 6.19135 41.555C6.21328 41.6801 6.23522 41.8031 6.26313 41.9221C6.29504 42.041 6.32894 42.1538 6.36284 42.2645C6.50641 42.7034 6.65597 43.0766 6.79556 43.3309C6.93315 43.5852 7.02886 43.7328 7.02886 43.7328C7.02886 43.7328 7.18839 43.6549 7.43765 43.5031C7.68691 43.3534 8.02591 43.132 8.38484 42.851C8.74178 42.5701 9.13661 42.2276 9.48359 41.838C9.65707 41.6432 9.82059 41.4361 9.96615 41.2187C10.0379 41.11 10.1057 40.9993 10.1656 40.8844C10.2294 40.7696 10.2912 40.6506 10.343 40.5317C10.5564 40.0498 10.6242 39.574 10.6521 39.1126C10.6621 38.883 10.6521 38.6615 10.6262 38.4482C10.6063 38.2349 10.5823 38.0278 10.5424 37.8371C10.5046 37.6464 10.4607 37.468 10.4128 37.3101C10.369 37.1501 10.3291 37.0086 10.2892 36.8917C10.2114 36.6559 10.1476 36.5165 10.1476 36.5165L10.1536 36.5185ZM0.835231 42.7198C0.847196 42.8961 0.867136 43.1053 0.897048 43.3411C0.934935 43.5749 0.984788 43.8333 1.0486 44.106C1.1144 44.3788 1.19018 44.6679 1.29188 44.9591C1.39956 45.2483 1.52519 45.5415 1.67275 45.8266C1.74653 45.9701 1.8243 46.1116 1.90805 46.249C1.9938 46.3864 2.09151 46.5197 2.19121 46.6468C2.39261 46.9032 2.61595 47.141 2.86322 47.3502C3.1065 47.5594 3.38367 47.7214 3.65288 47.8547C3.92607 47.9859 4.20125 48.0844 4.47643 48.1541C5.02082 48.2976 5.56919 48.3243 6.04578 48.3038C6.52237 48.2833 6.93315 48.2136 7.22628 48.15C7.51742 48.0864 7.6909 48.029 7.6909 48.029C7.6909 48.029 7.66099 47.8444 7.58721 47.5471C7.50744 47.2538 7.40575 46.8396 7.24223 46.3864C7.06875 45.9352 6.87333 45.4308 6.58418 44.9489C6.43662 44.7089 6.28706 44.469 6.1076 44.2414C5.92813 44.0138 5.72473 43.7984 5.49342 43.6016C5.04674 43.2037 4.53426 42.9166 4.00782 42.7075C3.48138 42.4983 2.96492 42.363 2.49032 42.2809C2.01772 42.1989 1.59897 42.1661 1.29786 42.1558C0.996752 42.1456 0.81529 42.1579 0.81529 42.1579C0.81529 42.1579 0.813296 42.3691 0.837225 42.7198H0.835231ZM11.9323 43.1053C11.9323 43.1053 11.7648 43.1894 11.5036 43.3534C11.2424 43.5154 10.8894 43.7554 10.5185 44.0712C10.1476 44.387 9.75478 44.7807 9.4437 45.2401C9.28617 45.4718 9.1426 45.7199 9.02694 45.9865C8.91128 46.2531 8.81357 46.5402 8.7697 46.8335C8.67598 47.424 8.71786 48.029 8.88137 48.5704C8.95914 48.8431 9.05286 49.1077 9.16254 49.3537C9.27819 49.5957 9.40382 49.8233 9.53144 50.0325C9.77871 50.4529 10.0599 50.7769 10.2633 51.0025C10.4667 51.2281 10.6043 51.3511 10.6043 51.3511C10.6043 51.3511 10.7458 51.226 10.9632 51.0004C11.1786 50.7749 11.4697 50.4509 11.7668 50.0592C12.0639 49.6675 12.371 49.2081 12.6183 48.716C12.8755 48.2177 13.0809 47.6824 13.1587 47.139C13.2006 46.8663 13.2205 46.5976 13.2065 46.3433C13.1986 46.087 13.1507 45.8471 13.1088 45.6092C13.0171 45.1355 12.8356 44.7151 12.6721 44.3419C12.5864 44.1573 12.4947 43.9892 12.4069 43.8415C12.3172 43.6939 12.2454 43.5585 12.1736 43.4498C12.034 43.2325 11.9343 43.1074 11.9343 43.1074L11.9323 43.1053ZM3.96395 52.0524C4.0836 52.4092 4.285 52.8912 4.55819 53.4243C4.69179 53.693 4.86528 53.9596 5.04874 54.2323C5.23618 54.5009 5.43359 54.7778 5.6689 55.0259C6.1395 55.5263 6.67591 55.9795 7.31601 56.2563C7.63108 56.3978 7.94814 56.4942 8.25922 56.5537C8.57428 56.6111 8.88935 56.6275 9.19245 56.6213C9.79666 56.6049 10.359 56.4819 10.8396 56.3261C11.3241 56.1661 11.7269 55.9733 12.0101 55.8216C12.2913 55.6698 12.4528 55.5611 12.4528 55.5611C12.4528 55.5611 12.369 55.3827 12.2095 55.0997C12.058 54.8126 11.8326 54.423 11.5355 54.0108C10.9632 53.1618 10.1257 52.2103 8.99703 51.6464C8.71187 51.507 8.40877 51.4044 8.11564 51.3224C7.82251 51.2404 7.5234 51.1829 7.22827 51.1481C6.63802 51.0763 6.04977 51.0927 5.54726 51.1358C5.04076 51.1809 4.60405 51.2629 4.29298 51.3367C3.9819 51.4106 3.79844 51.4721 3.79844 51.4721C3.79844 51.4721 3.85029 51.6936 3.96595 52.0504L3.96395 52.0524ZM15.4559 49.3025C15.4559 49.3025 15.3063 49.4378 15.081 49.6798C14.8537 49.9238 14.5585 50.2683 14.2674 50.6949C13.9743 51.1214 13.6871 51.632 13.4817 52.2001C13.376 52.4872 13.3023 52.7804 13.2584 53.0839C13.2145 53.3895 13.2006 53.7053 13.2265 54.0252C13.2484 54.3512 13.3322 54.6486 13.4299 54.9418C13.5336 55.231 13.6552 55.5201 13.8167 55.7703C13.9723 56.0266 14.1458 56.2645 14.3252 56.486C14.5027 56.7095 14.7041 56.8961 14.8915 57.0725C15.081 57.2448 15.2644 57.4006 15.4379 57.5318C15.6154 57.6569 15.7749 57.7636 15.9125 57.8477C16.1857 58.0158 16.3592 58.1019 16.3592 58.1019C16.3592 58.1019 16.4689 57.9297 16.6264 57.6364C16.7839 57.3411 16.9873 56.9228 17.1808 56.4347C17.3762 55.9446 17.5537 55.3909 17.6773 54.8085C17.8029 54.222 17.8568 53.6253 17.7949 53.0429C17.7411 52.4523 17.5517 51.9561 17.3303 51.4987C17.2186 51.2732 17.0811 51.0722 16.9514 50.8753C16.8218 50.6805 16.6822 50.5021 16.5407 50.3422C16.3971 50.1843 16.2655 50.0366 16.1398 49.9074C16.0142 49.7782 15.8946 49.6695 15.7929 49.5814C15.5855 49.405 15.4559 49.3025 15.4559 49.3025ZM9.75877 60.7781C9.97612 61.1164 10.3231 61.5512 10.7578 62.0167C10.8675 62.1315 10.9791 62.2525 11.1028 62.3653C11.2264 62.4781 11.356 62.5909 11.4896 62.7037C11.7588 62.9251 12.044 63.1466 12.3551 63.3353C12.9832 63.7085 13.6672 64.014 14.401 64.1063C14.7659 64.1555 15.1169 64.1617 15.4559 64.1268C15.7989 64.0879 16.1239 64.012 16.431 63.9136C17.0472 63.7126 17.5796 63.4235 18.0302 63.1077C18.4789 62.7959 18.8339 62.476 19.0771 62.2361C19.3204 61.9962 19.454 61.8342 19.454 61.8342C19.454 61.8342 19.3164 61.6742 19.0731 61.4384C18.8299 61.1985 18.4929 60.8622 18.0681 60.532C17.2386 59.8409 16.1119 59.1232 14.7958 58.8812C14.1238 58.7766 13.4757 58.7869 12.8436 58.8935C12.5305 58.9448 12.2235 59.0186 11.9343 59.1006C11.6472 59.1806 11.374 59.2749 11.1207 59.3713C10.6142 59.5661 10.1875 59.7814 9.88838 59.9475C9.58927 60.1137 9.41778 60.2326 9.41778 60.2326C9.41778 60.2326 9.53543 60.4438 9.75677 60.776L9.75877 60.7781ZM20.7302 54.544C20.7302 54.544 20.6166 54.7265 20.455 55.0423C20.2915 55.3581 20.0901 55.799 19.9107 56.324C19.7332 56.849 19.5836 57.456 19.5358 58.0978C19.4899 58.7377 19.5617 59.3939 19.799 60.0378C20.2955 61.2948 21.4062 62.1643 22.3873 62.6216C22.6286 62.7447 22.8659 62.8349 23.0833 62.9087C23.2986 62.9826 23.494 63.042 23.6576 63.0871C23.8211 63.1323 23.9527 63.163 24.0464 63.1774C24.1381 63.1917 24.19 63.1999 24.19 63.1999C24.19 63.1999 24.2498 62.9908 24.3196 62.6442C24.3894 62.2976 24.4691 61.8096 24.523 61.2477C24.5748 60.6879 24.5968 60.0583 24.5469 59.4349C24.521 59.1252 24.4811 58.8074 24.4193 58.4977C24.3555 58.1881 24.2697 57.8887 24.1541 57.6077C24.0364 57.3268 23.9048 57.0581 23.7493 56.8264C23.5937 56.5926 23.4203 56.3896 23.2448 56.1907C23.0673 55.9979 22.8779 55.8277 22.6864 55.6801C22.501 55.5222 22.3095 55.3827 22.1241 55.2638C22.0304 55.2043 21.9386 55.149 21.8489 55.0997C21.7612 55.0464 21.6774 54.9952 21.5957 54.95C21.4322 54.8578 21.2826 54.7839 21.153 54.7245C21.0254 54.665 20.9177 54.624 20.8459 54.5932C20.7741 54.5625 20.7342 54.5461 20.7342 54.5461L20.7302 54.544ZM18.2536 67.9985C18.5846 68.2651 19.0692 68.6117 19.6554 68.9562C20.8379 69.6186 22.479 70.1989 24.0384 69.9344C24.8161 69.8031 25.4921 69.4771 26.0524 69.0854C26.6168 68.6814 27.0754 68.1954 27.4324 67.736C27.7893 67.2767 28.0485 66.8378 28.22 66.5159C28.3915 66.1939 28.4753 65.9868 28.4753 65.9868C28.4753 65.9868 28.2878 65.8658 27.9688 65.6997C27.8092 65.6156 27.6158 65.5213 27.3965 65.4249C27.1751 65.3306 26.9358 65.2116 26.6706 65.1091C26.539 65.0578 26.4014 65.0066 26.2598 64.9574C26.1183 64.9102 25.9727 64.863 25.8231 64.8138C25.526 64.7174 25.2129 64.6354 24.8859 64.578C24.5609 64.5185 24.2299 64.4611 23.8869 64.4488C23.7154 64.4406 23.5419 64.4406 23.3644 64.4488C23.1909 64.4529 23.0155 64.4652 22.838 64.4878C22.483 64.5329 22.1381 64.617 21.805 64.7277C21.472 64.8364 21.157 64.9635 20.8519 65.1132C20.2457 65.4106 19.6913 65.7858 19.2327 66.1406C18.774 66.4954 18.4011 66.844 18.1439 67.1065C17.8867 67.3669 17.7471 67.5412 17.7471 67.5412C17.7471 67.5412 17.9305 67.7237 18.2576 67.9965L18.2536 67.9985Z" fill="#AA8158"/>
</svg>
