<svg width="18" height="16" viewBox="0 0 18 16" fill="none" xmlns="http://www.w3.org/2000/svg">
<g clip-path="url(#clip0_12_261)">
<mask id="mask0_12_261" style="mask-type:luminance" maskUnits="userSpaceOnUse" x="0" y="0" width="18" height="16">
<path d="M18 0H0V16H18V0Z" fill="white"/>
</mask>
<g mask="url(#mask0_12_261)">
<path d="M13.7652 10.443L13.7583 10.438L13.6534 10.357L10.4558 7.88997C9.99141 7.54073 9.42376 7.36053 8.84517 7.37869C8.26657 7.39685 7.71108 7.61229 7.26906 7.98997C6.05969 9.05597 4.54946 10.39 4.34361 10.567H4.33867L4.32184 10.582C3.98563 10.8543 3.71387 11.1991 3.52638 11.5911C3.3389 11.9832 3.24043 12.4126 3.23816 12.848C3.26587 14.619 5.03242 16.029 7.18296 15.997C7.66982 15.9907 8.1527 15.9074 8.61401 15.75C8.9454 15.6366 9.30362 15.631 9.63831 15.734C10.1044 15.8761 10.5896 15.9436 11.0763 15.934C13.2268 15.902 14.9469 14.44 14.9192 12.669C14.9029 12.2335 14.7908 11.8071 14.591 11.4208C14.3912 11.0346 14.1088 10.6981 13.7642 10.436" fill="#AA8158"/>
<path d="M5.1611 5.19797C5.4201 5.32986 5.7115 5.3827 5.99972 5.35002C6.28794 5.31735 6.56051 5.20058 6.78415 5.01397L7.26215 4.61397C7.50877 4.40866 7.70668 4.15007 7.8413 3.85725C7.97592 3.56443 8.04383 3.24482 8.04003 2.92197L8.01727 1.45897C8.00474 1.20301 7.92612 0.954827 7.78922 0.739096C7.65233 0.523365 7.46192 0.347603 7.23695 0.229289C7.01197 0.110976 6.76027 0.0542324 6.50686 0.0647025C6.25345 0.0751725 6.00717 0.152491 5.7925 0.288969C4.94259 0.774092 4.31266 1.57412 4.03585 2.51997C3.84745 3.02697 3.8592 3.58777 4.06866 4.08626C4.27811 4.58476 4.66925 4.98279 5.1611 5.19797Z" fill="#AA8158"/>
<path d="M3.83791 6.37983L2.88981 4.72982C2.80279 4.57375 2.68023 4.44087 2.53228 4.34217C2.38433 4.24347 2.21525 4.1818 2.03902 4.16225C1.86279 4.14271 1.68449 4.16585 1.51888 4.22977C1.35327 4.29369 1.2051 4.39655 1.08664 4.52982C0.475312 5.14843 0.0963466 5.96291 0.014891 6.83324C-0.0665645 7.70357 0.154578 8.57539 0.640304 9.29882C0.847905 9.52468 1.13461 9.65965 1.43928 9.67497C1.74396 9.69028 2.04251 9.58474 2.27127 9.38082L3.82108 7.98082C3.93331 7.88121 4.02352 7.75882 4.08583 7.62164C4.14815 7.48446 4.18118 7.33555 4.18276 7.18462C4.18435 7.03368 4.15446 6.8841 4.09505 6.74561C4.03563 6.60712 3.94802 6.48183 3.83791 6.37983Z" fill="#AA8158"/>
<path d="M9.57007 1.43291L9.59283 2.89991C9.59948 3.22299 9.67759 3.54048 9.82144 3.8291C9.96528 4.11771 10.1712 4.37015 10.4241 4.56791L10.919 4.95591C11.148 5.13575 11.424 5.24428 11.7131 5.26825C12.0022 5.29223 12.292 5.2306 12.547 5.09091C13.0322 4.86096 13.411 4.45092 13.6047 3.94603C13.7984 3.44114 13.7921 2.88023 13.5871 2.37991C13.2807 1.44089 12.6248 0.659103 11.7582 0.199913C11.54 0.069385 11.2917 -0.00102066 11.0381 -0.00427626C10.7845 -0.00753187 10.5345 0.0564765 10.3131 0.181359C10.0916 0.306242 9.9065 0.487631 9.77611 0.70742C9.64573 0.927208 9.57469 1.17771 9.57007 1.43391" fill="#AA8158"/>
<path d="M16.5135 4.06384C16.2518 3.93733 15.952 3.917 15.6758 4.00703C15.3997 4.09706 15.1682 4.29061 15.029 4.54784L14.1383 6.22584C14.0315 6.33151 13.9478 6.45872 13.8928 6.59921C13.8379 6.73969 13.8128 6.8903 13.8192 7.04124C13.8257 7.19217 13.8635 7.34004 13.9302 7.47522C13.997 7.6104 14.0911 7.72987 14.2066 7.82584L15.8 9.17984C16.0345 9.37678 16.3359 9.47331 16.6399 9.44883C16.9438 9.42436 17.2263 9.28082 17.427 9.04884C17.89 8.3103 18.084 7.43187 17.9756 6.56449C17.8673 5.69711 17.4633 4.89495 16.8332 4.29584C16.7438 4.20079 16.6386 4.12227 16.5224 4.06384" fill="#AA8158"/>
</g>
</g>
<defs>
<clipPath id="clip0_12_261">
<rect width="18" height="16" fill="white"/>
</clipPath>
</defs>
</svg>
